<?xml version="1.0" encoding="UTF-8"?>
<!DOCTYPE svg PUBLIC "-//W3C//DTD SVG 1.1//EN" "http://www.w3.org/Graphics/SVG/1.1/DTD/svg11.dtd">
<svg xmlns="http://www.w3.org/2000/svg" version="1.1" width="700px" height="700px" style="shape-rendering:geometricPrecision; text-rendering:geometricPrecision; image-rendering:optimizeQuality; fill-rule:evenodd; clip-rule:evenodd" xmlns:xlink="http://www.w3.org/1999/xlink">
<g><path style="opacity:0.999" fill="#f0ecf4" d="M 410.5,213.5 C 410.586,214.496 410.252,215.329 409.5,216C 403.689,218.994 398.022,222.161 392.5,225.5C 385.816,229.195 379.15,232.862 372.5,236.5C 369.86,235.18 367.193,233.847 364.5,232.5C 365.642,230.567 367.308,229.067 369.5,228C 375.361,224.957 380.694,221.957 385.5,219C 390.203,216.328 394.87,213.662 399.5,211C 403.734,209.952 407.4,210.785 410.5,213.5 Z"/></g>
<g><path style="opacity:1" fill="#2670fc" d="M 410.5,213.5 C 411.117,213.611 411.617,213.944 412,214.5C 412.498,217.482 412.665,220.482 412.5,223.5C 411.508,223.328 410.842,223.662 410.5,224.5C 404.702,227.233 399.035,230.233 393.5,233.5C 392.5,233.167 391.833,232.5 391.5,231.5C 393.487,230.836 395.154,229.669 396.5,228C 395.906,227.536 395.239,227.369 394.5,227.5C 393.167,227.5 392.5,226.833 392.5,225.5C 398.022,222.161 403.689,218.994 409.5,216C 410.252,215.329 410.586,214.496 410.5,213.5 Z"/></g>
<g><path style="opacity:0.999" fill="#f2f5fe" d="M 410.5,224.5 C 411.141,248.396 410.474,272.063 408.5,295.5C 374.1,315.698 339.434,335.365 304.5,354.5C 304.5,331.5 304.5,308.5 304.5,285.5C 313.967,279.596 323.633,273.929 333.5,268.5C 344.202,262.152 354.869,255.819 365.5,249.5C 375.096,244.559 384.429,239.225 393.5,233.5C 399.035,230.233 404.702,227.233 410.5,224.5 Z"/></g>
<g><path style="opacity:0.999" fill="#4f95ff" d="M 392.5,225.5 C 392.5,226.833 393.167,227.5 394.5,227.5C 389.564,230.642 384.564,233.809 379.5,237C 383.802,236.019 387.802,234.186 391.5,231.5C 391.833,232.5 392.5,233.167 393.5,233.5C 384.429,239.225 375.096,244.559 365.5,249.5C 366.248,247.668 367.248,246.001 368.5,244.5C 368.5,244.167 368.5,243.833 368.5,243.5C 370.083,241.337 371.416,239.004 372.5,236.5C 379.15,232.862 385.816,229.195 392.5,225.5 Z"/></g>
<g><path style="opacity:0.345" fill="#f3bbba" d="M 412.5,223.5 C 412.667,247.169 412.5,270.836 412,294.5C 411.047,296.373 409.88,296.706 408.5,295.5C 410.474,272.063 411.141,248.396 410.5,224.5C 410.842,223.662 411.508,223.328 412.5,223.5 Z"/></g>
<g><path style="opacity:1" fill="#e4ecff" d="M 394.5,227.5 C 395.239,227.369 395.906,227.536 396.5,228C 395.154,229.669 393.487,230.836 391.5,231.5C 387.802,234.186 383.802,236.019 379.5,237C 384.564,233.809 389.564,230.642 394.5,227.5 Z"/></g>
<g><path style="opacity:1" fill="#2f7bfa" d="M 364.5,232.5 C 367.193,233.847 369.86,235.18 372.5,236.5C 371.416,239.004 370.083,241.337 368.5,243.5C 365.991,242.079 363.657,240.412 361.5,238.5C 361.461,235.911 362.461,233.911 364.5,232.5 Z"/></g>
<g><path style="opacity:0.788" fill="#8c98d9" d="M 353.5,241.5 C 352.833,241.5 352.5,241.833 352.5,242.5C 352.122,245.741 351.122,248.741 349.5,251.5C 348.016,250.533 347.016,249.2 346.5,247.5C 346.5,246.833 346.167,246.5 345.5,246.5C 345.167,246.5 344.833,246.5 344.5,246.5C 344.519,244.94 344.852,243.44 345.5,242C 343.909,239.587 343.076,237.087 343,234.5C 342.73,238.373 342.23,242.206 341.5,246C 341.743,246.902 342.077,247.735 342.5,248.5C 341.616,251.023 340.782,253.69 340,256.5C 338.989,257.337 337.822,257.67 336.5,257.5C 335.89,256.609 335.557,255.609 335.5,254.5C 336.458,254.953 337.292,255.619 338,256.5C 339.728,254.181 339.895,251.847 338.5,249.5C 338.606,243.319 338.606,237.319 338.5,231.5C 339.541,229.415 341.041,227.748 343,226.5C 344.758,227.469 345.258,228.636 344.5,230C 346.597,232.472 347.597,235.138 347.5,238C 349.473,238.495 351.473,238.662 353.5,238.5C 353.5,239.5 353.5,240.5 353.5,241.5 Z M 344.5,246.5 C 344.167,247.5 343.5,248.167 342.5,248.5C 342.077,247.735 341.743,246.902 341.5,246C 342.23,242.206 342.73,238.373 343,234.5C 343.076,237.087 343.909,239.587 345.5,242C 344.852,243.44 344.519,244.94 344.5,246.5 Z M 348.5,240.5 C 350.104,241.287 350.771,242.62 350.5,244.5C 349.833,244.5 349.167,244.5 348.5,244.5C 348.5,243.167 348.5,241.833 348.5,240.5 Z"/></g>
<g><path style="opacity:0.972" fill="#96adea" d="M 278.5,238.5 C 277.564,242.735 277.231,247.069 277.5,251.5C 277.623,258.529 277.29,265.529 276.5,272.5C 276.286,274.144 276.62,275.644 277.5,277C 276.497,278.546 275.497,278.713 274.5,277.5C 274.5,276.167 274.5,274.833 274.5,273.5C 275.165,270.016 275.499,266.349 275.5,262.5C 275.489,258.435 274.822,254.768 273.5,251.5C 272.883,251.611 272.383,251.944 272,252.5C 266.021,247.404 266.021,242.404 272,237.5C 272.333,237.833 272.667,238.167 273,238.5C 274.879,235.934 276.712,235.934 278.5,238.5 Z"/></g>
<g><path style="opacity:0.998" fill="#880cea" d="M 361.5,238.5 C 363.657,240.412 365.991,242.079 368.5,243.5C 368.5,243.833 368.5,244.167 368.5,244.5C 357.614,250.443 346.614,256.109 335.5,261.5C 335.232,259.901 335.566,258.568 336.5,257.5C 337.822,257.67 338.989,257.337 340,256.5C 340.782,253.69 341.616,251.023 342.5,248.5C 343.5,248.167 344.167,247.5 344.5,246.5C 344.833,246.5 345.167,246.5 345.5,246.5C 346.167,246.5 346.5,246.833 346.5,247.5C 347.016,249.2 348.016,250.533 349.5,251.5C 351.122,248.741 352.122,245.741 352.5,242.5C 353.167,242.5 353.5,242.167 353.5,241.5C 356.372,240.099 359.039,239.099 361.5,238.5 Z"/></g>
<g><path style="opacity:0.647" fill="#cdcfe9" d="M 278.5,238.5 C 280.09,238.628 281.423,239.295 282.5,240.5C 282.417,242.092 282.751,243.759 283.5,245.5C 283.471,247.029 282.804,248.196 281.5,249C 281.833,249.333 282.167,249.667 282.5,250C 280.939,250.318 279.772,251.151 279,252.5C 278.617,251.944 278.117,251.611 277.5,251.5C 277.231,247.069 277.564,242.735 278.5,238.5 Z"/></g>
<g><path style="opacity:0.537" fill="#a5a1cf" d="M 336.5,251.5 C 336.443,252.609 336.11,253.609 335.5,254.5C 334.5,253.833 333.5,253.167 332.5,252.5C 331.193,251.198 331.193,249.865 332.5,248.5C 330.665,247.572 330.332,246.406 331.5,245C 330.075,243.638 329.242,242.138 329,240.5C 328.5,241 328,241.5 327.5,242C 328.327,245.611 328.661,249.111 328.5,252.5C 326.692,253.918 326.025,255.918 326.5,258.5C 326.5,258.833 326.5,259.167 326.5,259.5C 326.167,259.5 325.833,259.5 325.5,259.5C 325.721,256.721 325.388,254.054 324.5,251.5C 324.389,250.883 324.056,250.383 323.5,250C 324.293,246.589 324.793,243.089 325,239.5C 327.667,234.167 330.333,234.167 333,239.5C 334.172,243.99 335.339,247.99 336.5,251.5 Z M 332.5,252.5 C 332.5,252.833 332.5,253.167 332.5,253.5C 331.292,252.766 329.959,252.433 328.5,252.5C 328.661,249.111 328.327,245.611 327.5,242C 328,241.5 328.5,241 329,240.5C 329.242,242.138 330.075,243.638 331.5,245C 330.332,246.406 330.665,247.572 332.5,248.5C 331.193,249.865 331.193,251.198 332.5,252.5 Z"/></g>
<g><path style="opacity:0.996" fill="#8823de" d="M 348.5,244.5 C 349.167,244.5 349.833,244.5 350.5,244.5C 350.769,246.429 350.269,248.095 349,249.5C 348.626,248.584 348.126,247.75 347.5,247C 348.252,246.329 348.586,245.496 348.5,244.5 Z"/></g>
<g><path style="opacity:1" fill="#e34bfc" d="M 380.5,259.5 C 380.5,259.833 380.5,260.167 380.5,260.5C 379.167,260.5 377.833,260.5 376.5,260.5C 376.5,271.5 376.5,282.5 376.5,293.5C 375.501,284.251 375.168,274.251 375.5,263.5C 375.173,258.456 375.506,253.456 376.5,248.5C 377.748,247.96 378.915,247.293 380,246.5C 380.499,250.821 380.666,255.154 380.5,259.5 Z"/></g>
<g><path style="opacity:0.406" fill="#e07671" d="M 328.5,252.5 C 329.959,252.433 331.292,252.766 332.5,253.5C 332.611,254.117 332.944,254.617 333.5,255C 331.114,256.193 328.78,257.36 326.5,258.5C 326.025,255.918 326.692,253.918 328.5,252.5 Z"/></g>
<g><path style="opacity:1" fill="#427fff" d="M 400.5,249.5 C 398.664,251.588 396.331,252.921 393.5,253.5C 395.336,251.412 397.669,250.079 400.5,249.5 Z"/></g>
<g><path style="opacity:0.999" fill="#9e1fe1" d="M 338.5,249.5 C 339.895,251.847 339.728,254.181 338,256.5C 337.292,255.619 336.458,254.953 335.5,254.5C 336.11,253.609 336.443,252.609 336.5,251.5C 337.833,251.5 338.5,250.833 338.5,249.5 Z"/></g>
<g><path style="opacity:1" fill="#508bff" d="M 393.5,253.5 C 391.664,255.588 389.331,256.921 386.5,257.5C 388.336,255.412 390.669,254.079 393.5,253.5 Z"/></g>
<g><path style="opacity:0.789" fill="#c5cdef" d="M 428.5,252.5 C 433.565,254.307 435.398,258.307 434,264.5C 433.184,265.823 432.017,266.489 430.5,266.5C 429.167,266.5 427.833,266.5 426.5,266.5C 426.034,261.57 426.701,256.903 428.5,252.5 Z"/></g>
<g><path style="opacity:0.953" fill="#94b1ed" d="M 428.5,252.5 C 426.701,256.903 426.034,261.57 426.5,266.5C 427.833,266.5 429.167,266.5 430.5,266.5C 428.543,272.332 427.543,278.332 427.5,284.5C 427.662,286.527 427.495,288.527 427,290.5C 426.667,282.833 426.333,275.167 426,267.5C 425.617,268.056 425.117,268.389 424.5,268.5C 419.863,266.537 417.863,263.204 418.5,258.5C 421.213,254.485 424.546,252.485 428.5,252.5 Z"/></g>
<g><path style="opacity:0.999" fill="#c622f6" d="M 368.5,244.5 C 367.248,246.001 366.248,247.668 365.5,249.5C 354.869,255.819 344.202,262.152 333.5,268.5C 333.762,267.022 333.429,265.689 332.5,264.5C 323.5,269.667 314.5,274.833 305.5,280C 303.331,280.429 301.331,279.929 299.5,278.5C 298.824,279.602 298.158,280.602 297.5,281.5C 297.167,281.5 296.833,281.5 296.5,281.5C 296.201,279.396 296.534,277.396 297.5,275.5C 304.887,271.475 312.221,267.475 319.5,263.5C 324.308,267.766 326.642,266.432 326.5,259.5C 326.5,259.167 326.5,258.833 326.5,258.5C 328.78,257.36 331.114,256.193 333.5,255C 332.944,254.617 332.611,254.117 332.5,253.5C 332.5,253.167 332.5,252.833 332.5,252.5C 333.5,253.167 334.5,253.833 335.5,254.5C 335.557,255.609 335.89,256.609 336.5,257.5C 335.566,258.568 335.232,259.901 335.5,261.5C 346.614,256.109 357.614,250.443 368.5,244.5 Z"/></g>
<g><path style="opacity:1" fill="#5e99ff" d="M 386.5,257.5 C 384.882,259.316 382.882,260.649 380.5,261.5C 380.5,261.167 380.5,260.833 380.5,260.5C 380.5,260.167 380.5,259.833 380.5,259.5C 382.5,258.833 384.5,258.167 386.5,257.5 Z"/></g>
<g><path style="opacity:0.268" fill="#bfb0d6" d="M 273.5,251.5 C 274.822,254.768 275.489,258.435 275.5,262.5C 275.499,266.349 275.165,270.016 274.5,273.5C 273.527,266 273.193,258.667 273.5,251.5 Z"/></g>
<g><path style="opacity:0.821" fill="#eef0fb" d="M 324.5,251.5 C 325.388,254.054 325.721,256.721 325.5,259.5C 323.205,260.475 321.205,261.808 319.5,263.5C 312.221,267.475 304.887,271.475 297.5,275.5C 296.534,277.396 296.201,279.396 296.5,281.5C 296.667,301.503 296.5,321.503 296,341.5C 295.617,342.056 295.117,342.389 294.5,342.5C 292.723,340.92 290.89,339.254 289,337.5C 288,337.5 287,337.5 286,337.5C 278.06,332.862 270.393,327.862 263,322.5C 262.667,322.833 262.333,323.167 262,323.5C 260.138,322.035 258.305,320.368 256.5,318.5C 251.395,315.108 246.062,311.941 240.5,309C 236.384,306.843 235.717,304.009 238.5,300.5C 242.829,297.329 247.496,294.829 252.5,293C 254.063,292.241 255.063,291.074 255.5,289.5C 261.303,284.759 267.637,280.759 274.5,277.5C 275.497,278.713 276.497,278.546 277.5,277C 276.62,275.644 276.286,274.144 276.5,272.5C 277.232,273.808 278.066,275.142 279,276.5C 280.003,273.844 281.67,272.844 284,273.5C 287.274,270.356 290.941,267.689 295,265.5C 295.333,265.833 295.667,266.167 296,266.5C 296.374,265.584 296.874,264.75 297.5,264C 302.365,262.055 306.865,259.555 311,256.5C 312.666,257.34 312.833,256.84 311.5,255C 313.301,254.683 313.634,254.016 312.5,253C 313,252.5 313.5,252 314,251.5C 317.175,252.776 320.675,252.776 324.5,251.5 Z"/></g>
<g><path style="opacity:1" fill="#c478fa" d="M 325.5,259.5 C 325.833,259.5 326.167,259.5 326.5,259.5C 326.642,266.432 324.308,267.766 319.5,263.5C 321.205,261.808 323.205,260.475 325.5,259.5 Z"/></g>
<g><path style="opacity:1" fill="#dee7fe" d="M 359.5,305.5 C 360.33,295.008 360.83,284.341 361,273.5C 362.488,271.84 364.321,270.84 366.5,270.5C 366.168,280.19 366.502,289.856 367.5,299.5C 368.107,299.376 368.44,299.043 368.5,298.5C 369.15,298.196 369.817,297.863 370.5,297.5C 371.495,292.208 371.828,286.875 371.5,281.5C 371.5,276.167 371.5,270.833 371.5,265.5C 372.833,264.833 374.167,264.167 375.5,263.5C 375.168,274.251 375.501,284.251 376.5,293.5C 378.017,293.489 379.184,292.823 380,291.5C 380.5,281.506 380.666,271.506 380.5,261.5C 382.882,260.649 384.882,259.316 386.5,257.5C 389.331,256.921 391.664,255.588 393.5,253.5C 396.331,252.921 398.664,251.588 400.5,249.5C 401.542,248.209 402.708,248.209 404,249.5C 404.667,260.5 404.667,271.5 404,282.5C 391.081,290.711 377.915,298.544 364.5,306C 362.613,306.78 360.946,306.613 359.5,305.5 Z"/></g>
<g><path style="opacity:1" fill="#65aafe" d="M 367.5,268.5 C 367.5,268.833 367.5,269.167 367.5,269.5C 366.833,269.5 366.5,269.833 366.5,270.5C 364.321,270.84 362.488,271.84 361,273.5C 360.83,284.341 360.33,295.008 359.5,305.5C 359.333,294.495 359.5,283.495 360,272.5C 362.157,270.505 364.657,269.172 367.5,268.5 Z"/></g>
<g><path style="opacity:1" fill="#bb17f5" d="M 396.5,269.5 C 397.811,273.683 397.811,278.016 396.5,282.5C 395.833,282.833 395.167,283.167 394.5,283.5C 393.34,279.541 393.173,275.541 394,271.5C 394.995,270.934 395.828,270.267 396.5,269.5 Z"/></g>
<g><path style="opacity:1" fill="#c91cf7" d="M 371.5,265.5 C 371.5,270.833 371.5,276.167 371.5,281.5C 370.167,281.5 368.833,281.5 367.5,281.5C 367.5,277.5 367.5,273.5 367.5,269.5C 367.5,269.167 367.5,268.833 367.5,268.5C 367.077,265.712 368.077,263.712 370.5,262.5C 371.386,263.325 371.719,264.325 371.5,265.5 Z"/></g>
<g><path style="opacity:0.998" fill="#8c14ee" d="M 333.5,268.5 C 323.633,273.929 313.967,279.596 304.5,285.5C 303.167,284.833 301.833,284.167 300.5,283.5C 299.833,283.167 299.167,282.833 298.5,282.5C 297.833,282.5 297.5,282.167 297.5,281.5C 298.158,280.602 298.824,279.602 299.5,278.5C 301.331,279.929 303.331,280.429 305.5,280C 314.5,274.833 323.5,269.667 332.5,264.5C 333.429,265.689 333.762,267.022 333.5,268.5 Z"/></g>
<g><path style="opacity:0.997" fill="#4789f5" d="M 491.5,280.5 C 492.719,282.636 493.552,284.969 494,287.5C 494.792,282.527 495.958,282.694 497.5,288C 497.257,288.902 496.923,289.735 496.5,290.5C 488.838,284.498 480.505,282.498 471.5,284.5C 474.815,281.575 478.315,279.575 482,278.5C 483.856,279.736 485.689,279.736 487.5,278.5C 488.86,279.18 490.193,279.847 491.5,280.5 Z"/></g>
<g><path style="opacity:1" fill="#5795f9" d="M 296.5,281.5 C 296.833,281.5 297.167,281.5 297.5,281.5C 297.5,282.167 297.833,282.5 298.5,282.5C 299.156,305.858 298.49,328.858 296.5,351.5C 294.612,349.012 293.945,346.012 294.5,342.5C 295.117,342.389 295.617,342.056 296,341.5C 296.5,321.503 296.667,301.503 296.5,281.5 Z"/></g>
<g><path style="opacity:1" fill="#3d8afd" d="M 298.5,282.5 C 299.167,282.833 299.833,283.167 300.5,283.5C 300.823,307.241 300.489,330.908 299.5,354.5C 298.778,354.082 298.278,353.416 298,352.5C 296.893,353.712 296.393,353.379 296.5,351.5C 298.49,328.858 299.156,305.858 298.5,282.5 Z"/></g>
<g><path style="opacity:1" fill="#ae1cf3" d="M 387.5,267.5 C 388.49,273.645 388.823,279.978 388.5,286.5C 387.312,287.364 386.145,288.364 385,289.5C 384.169,282.476 384.336,275.476 385.5,268.5C 386.183,268.137 386.85,267.804 387.5,267.5 Z"/></g>
<g><path style="opacity:1" fill="#c98efa" d="M 387.5,267.5 C 387.56,266.957 387.893,266.624 388.5,266.5C 389.818,273.322 389.818,279.989 388.5,286.5C 388.823,279.978 388.49,273.645 387.5,267.5 Z"/></g>
<g><path style="opacity:1" fill="#9a13f0" d="M 380.5,260.5 C 380.5,260.833 380.5,261.167 380.5,261.5C 380.666,271.506 380.5,281.506 380,291.5C 379.184,292.823 378.017,293.489 376.5,293.5C 376.5,282.5 376.5,271.5 376.5,260.5C 377.833,260.5 379.167,260.5 380.5,260.5 Z"/></g>
<g><path style="opacity:0.178" fill="#c5b2c6" d="M 427.5,284.5 C 428.468,286.607 428.802,288.941 428.5,291.5C 427.833,292.5 427.167,293.5 426.5,294.5C 425.833,294.5 425.167,294.5 424.5,294.5C 425.083,285.913 425.083,277.246 424.5,268.5C 425.117,268.389 425.617,268.056 426,267.5C 426.333,275.167 426.667,282.833 427,290.5C 427.495,288.527 427.662,286.527 427.5,284.5 Z"/></g>
<g><path style="opacity:0.99" fill="#eff2fd" d="M 496.5,290.5 C 502.313,295.642 506.98,301.642 510.5,308.5C 514.022,317.126 515.356,326.126 514.5,335.5C 513.957,335.56 513.624,335.893 513.5,336.5C 523.972,342.744 526.972,351.41 522.5,362.5C 519.592,363.569 516.592,363.736 513.5,363C 509.984,360.666 506.317,358.5 502.5,356.5C 501.893,356.624 501.56,356.957 501.5,357.5C 500.778,357.082 500.278,356.416 500,355.5C 498.893,356.712 498.393,356.379 498.5,354.5C 491.634,350.996 484.967,346.996 478.5,342.5C 478.875,340.302 479.542,338.302 480.5,336.5C 484.02,339.184 487.853,341.518 492,343.5C 492.818,340.773 492.652,338.106 491.5,335.5C 488.133,333.775 484.8,332.108 481.5,330.5C 478.067,327.941 474.401,325.608 470.5,323.5C 469.614,324.325 469.281,325.325 469.5,326.5C 468.325,326.281 467.325,326.614 466.5,327.5C 465.652,329.409 465.318,331.409 465.5,333.5C 457.733,330.741 450.399,327.074 443.5,322.5C 442.893,322.624 442.56,322.957 442.5,323.5C 440.748,323.248 439.081,324.081 437.5,326C 434.608,327.928 431.608,328.428 428.5,327.5C 427.778,326.449 426.778,325.782 425.5,325.5C 424.833,325.167 424.167,324.833 423.5,324.5C 425.157,314.679 426.157,304.679 426.5,294.5C 427.167,293.5 427.833,292.5 428.5,291.5C 430.621,291.325 432.621,291.659 434.5,292.5C 437.926,293.465 441.093,295.132 444,297.5C 450.758,292.005 457.091,292.672 463,299.5C 463.662,297.187 464.162,294.854 464.5,292.5C 466.364,289.45 468.697,286.783 471.5,284.5C 480.505,282.498 488.838,284.498 496.5,290.5 Z"/></g>
<g><path style="opacity:1" fill="#3a7bfd" d="M 300.5,283.5 C 301.833,284.167 303.167,284.833 304.5,285.5C 304.5,308.5 304.5,331.5 304.5,354.5C 304.5,355.167 304.5,355.833 304.5,356.5C 304.565,356.938 304.399,357.272 304,357.5C 303.683,355.699 303.016,355.366 302,356.5C 301.005,355.934 300.172,355.267 299.5,354.5C 300.489,330.908 300.823,307.241 300.5,283.5 Z"/></g>
<g><path style="opacity:1" fill="#d5c0fb" d="M 367.5,269.5 C 367.5,273.5 367.5,277.5 367.5,281.5C 367.178,287.358 367.511,293.025 368.5,298.5C 368.44,299.043 368.107,299.376 367.5,299.5C 366.502,289.856 366.168,280.19 366.5,270.5C 366.5,269.833 366.833,269.5 367.5,269.5 Z"/></g>
<g><path style="opacity:0.998" fill="#3375f6" d="M 464.5,292.5 C 464.162,294.854 463.662,297.187 463,299.5C 457.091,292.672 450.758,292.005 444,297.5C 441.093,295.132 437.926,293.465 434.5,292.5C 436.539,290.016 438.872,288.682 441.5,288.5C 442.672,288.919 443.672,289.585 444.5,290.5C 445.086,290.291 445.586,289.957 446,289.5C 448.406,292.809 450.406,292.809 452,289.5C 452.333,289.833 452.667,290.167 453,290.5C 455.333,287.833 457.667,287.833 460,290.5C 460.414,290.043 460.914,289.709 461.5,289.5C 462.735,290.34 463.735,291.34 464.5,292.5 Z"/></g>
<g><path style="opacity:1" fill="#7e0feb" d="M 367.5,281.5 C 368.833,281.5 370.167,281.5 371.5,281.5C 371.828,286.875 371.495,292.208 370.5,297.5C 369.817,297.863 369.15,298.196 368.5,298.5C 367.511,293.025 367.178,287.358 367.5,281.5 Z"/></g>
<g><path style="opacity:0.662" fill="#e4ebfd" d="M 233.5,316.5 C 233.5,317.833 233.5,319.167 233.5,320.5C 230.941,320.802 228.607,320.468 226.5,319.5C 226.334,312.492 226.5,305.492 227,298.5C 228.87,296.781 231.037,295.781 233.5,295.5C 233.5,302.5 233.5,309.5 233.5,316.5 Z"/></g>
<g><path style="opacity:0.998" fill="#2775fd" d="M 497.5,282.5 C 502.488,287.33 506.988,292.663 511,298.5C 511.808,302.027 511.641,305.36 510.5,308.5C 506.98,301.642 502.313,295.642 496.5,290.5C 496.923,289.735 497.257,288.902 497.5,288C 495.958,282.694 494.792,282.527 494,287.5C 493.552,284.969 492.719,282.636 491.5,280.5C 491.435,280.062 491.601,279.728 492,279.5C 493.78,280.639 495.614,281.639 497.5,282.5 Z"/></g>
<g><path style="opacity:0.544" fill="#f8f7fa" d="M 424.5,294.5 C 425.167,294.5 425.833,294.5 426.5,294.5C 426.157,304.679 425.157,314.679 423.5,324.5C 421.176,323.83 419.009,322.164 417,319.5C 415.984,320.634 415.317,320.301 415,318.5C 414.667,318.833 414.333,319.167 414,319.5C 410.82,317.041 407.32,315.041 403.5,313.5C 395.493,317.535 388.16,321.702 381.5,326C 391.411,326.818 401.244,326.651 411,325.5C 411.667,326.167 411.667,326.833 411,327.5C 408.138,328.796 405.638,330.629 403.5,333C 406.407,334.609 409.073,336.442 411.5,338.5C 411.5,339.167 411.167,339.5 410.5,339.5C 409.833,339.5 409.5,339.833 409.5,340.5C 406.368,342.046 403.702,344.046 401.5,346.5C 396.981,345.323 393.148,342.989 390,339.5C 386.89,341.636 383.723,343.636 380.5,345.5C 378.856,345.19 377.856,344.19 377.5,342.5C 377.5,342.167 377.5,341.833 377.5,341.5C 377.5,340.833 377.167,340.5 376.5,340.5C 376.366,338.708 376.699,337.042 377.5,335.5C 377.5,333.5 377.5,331.5 377.5,329.5C 375.067,329.273 373.401,330.273 372.5,332.5C 370.847,332.66 369.514,333.326 368.5,334.5C 366.179,334.658 364.346,335.658 363,337.5C 361.984,336.366 361.317,336.699 361,338.5C 360.667,338.167 360.333,337.833 360,337.5C 358.833,338.667 357.667,339.833 356.5,341C 346.027,346.971 336.527,352.138 328,356.5C 325.815,355.242 323.648,355.242 321.5,356.5C 318.997,356.188 316.831,354.855 315,352.5C 314.259,353.641 313.425,353.641 312.5,352.5C 309.78,353.86 307.114,355.193 304.5,356.5C 304.5,355.833 304.5,355.167 304.5,354.5C 339.434,335.365 374.1,315.698 408.5,295.5C 409.763,297.43 411.43,299.097 413.5,300.5C 417.713,299.238 421.38,297.238 424.5,294.5 Z M 377.5,335.5 C 375.999,334.248 374.332,333.248 372.5,332.5C 373.401,330.273 375.067,329.273 377.5,329.5C 377.5,331.5 377.5,333.5 377.5,335.5 Z"/></g>
<g><path style="opacity:0.2" fill="#e5bfd3" d="M 255.5,289.5 C 255.063,291.074 254.063,292.241 252.5,293C 247.496,294.829 242.829,297.329 238.5,300.5C 235.717,304.009 236.384,306.843 240.5,309C 246.062,311.941 251.395,315.108 256.5,318.5C 255.24,318.799 254.073,318.799 253,318.5C 247.813,315.302 242.646,312.135 237.5,309C 236.874,308.25 236.374,307.416 236,306.5C 235.501,310.486 235.334,314.486 235.5,318.5C 234.833,317.833 234.167,317.167 233.5,316.5C 233.5,309.5 233.5,302.5 233.5,295.5C 231.037,295.781 228.87,296.781 227,298.5C 226.5,305.492 226.334,312.492 226.5,319.5C 226.167,319.5 225.833,319.5 225.5,319.5C 225.5,311.833 225.5,304.167 225.5,296.5C 227.903,296.607 229.736,295.607 231,293.5C 232.016,294.634 232.683,294.301 233,292.5C 235.012,294.682 236.012,297.349 236,300.5C 242.597,295.326 249.097,291.659 255.5,289.5 Z"/></g>
<g><path style="opacity:1" fill="#d7e4ff" d="M 330.5,296.5 C 333.041,298.44 333.041,300.607 330.5,303C 332.937,302.797 335.271,301.963 337.5,300.5C 338.833,302.167 338.833,303.833 337.5,305.5C 330.566,310.134 323.233,313.8 315.5,316.5C 315.343,315.127 315.51,313.793 316,312.5C 323.37,309.01 323.203,308.01 315.5,309.5C 315.393,307.097 316.393,305.264 318.5,304C 322.939,302.032 326.939,299.532 330.5,296.5 Z"/></g>
<g><path style="opacity:1" fill="#d3e1ff" d="M 344.5,302.5 C 348.029,303.609 348.362,305.442 345.5,308C 337.5,312.667 329.5,317.333 321.5,322C 319.655,323.128 317.655,323.628 315.5,323.5C 315.286,321.856 315.62,320.356 316.5,319C 326.061,313.726 335.394,308.226 344.5,302.5 Z"/></g>
<g><path style="opacity:1" fill="#4289ff" d="M 479.5,302.5 C 480.848,303.601 482.348,304.601 484,305.5C 484.808,307.579 484.641,309.579 483.5,311.5C 482.482,310.807 481.482,310.141 480.5,309.5C 479.007,308.688 478.34,307.355 478.5,305.5C 478.52,304.274 478.853,303.274 479.5,302.5 Z"/></g>
<g><path style="opacity:1" fill="#b237f4" d="M 447.5,306.5 C 448.124,306.917 448.457,307.584 448.5,308.5C 448.253,309.713 447.586,310.38 446.5,310.5C 445.527,308.932 445.36,307.265 446,305.5C 446.383,306.056 446.883,306.389 447.5,306.5 Z"/></g>
<g><path style="opacity:1" fill="#a7c5ff" d="M 480.5,309.5 C 481.482,310.141 482.482,310.807 483.5,311.5C 484.641,309.579 484.808,307.579 484,305.5C 482.348,304.601 480.848,303.601 479.5,302.5C 480.473,301.016 481.807,300.516 483.5,301C 487.75,303.374 491.916,305.874 496,308.5C 496.831,315.856 496.665,323.189 495.5,330.5C 490.918,327.959 486.418,325.293 482,322.5C 482.054,319.809 480.887,317.976 478.5,317C 479.167,316.667 479.833,316.333 480.5,316C 479.484,315.481 478.818,314.647 478.5,313.5C 479.824,312.994 480.491,311.661 480.5,309.5 Z"/></g>
<g><path style="opacity:0.998" fill="#175ef8" d="M 497.5,282.5 C 507.881,289.762 514.214,297.929 516.5,307C 519.145,310.911 520.812,314.911 521.5,319C 521.573,323.947 521.24,328.78 520.5,333.5C 518.321,333.84 516.488,334.84 515,336.5C 514.601,336.272 514.435,335.938 514.5,335.5C 515.356,326.126 514.022,317.126 510.5,308.5C 511.641,305.36 511.808,302.027 511,298.5C 506.988,292.663 502.488,287.33 497.5,282.5 Z"/></g>
<g><path style="opacity:1" fill="#a5c4fe" d="M 446.5,310.5 C 447.586,310.38 448.253,309.713 448.5,308.5C 448.457,307.584 448.124,306.917 447.5,306.5C 447.369,305.624 447.702,304.957 448.5,304.5C 450.5,305.5 452.5,306.5 454.5,307.5C 455.662,312.467 455.829,317.467 455,322.5C 451.023,320.852 448.023,318.186 446,314.5C 445.235,312.934 445.402,311.601 446.5,310.5 Z"/></g>
<g><path style="opacity:0.977" fill="#e5ecfc" d="M 225.5,323.5 C 225.173,328.544 225.506,333.544 226.5,338.5C 228.67,336.914 231.004,335.58 233.5,334.5C 234.167,333.167 234.833,331.833 235.5,330.5C 236.522,330.855 237.189,331.522 237.5,332.5C 237.666,342.506 237.5,352.506 237,362.5C 236.25,363.126 235.416,363.626 234.5,364C 236.407,368.518 237.074,373.352 236.5,378.5C 234.632,379.263 232.965,380.263 231.5,381.5C 226.632,384.434 221.632,387.1 216.5,389.5C 216.334,383.824 216.501,378.157 217,372.5C 219.048,370.494 218.548,369.494 215.5,369.5C 215.821,367.952 216.821,367.285 218.5,367.5C 219.753,359.22 220.42,350.887 220.5,342.5C 221.403,339.609 221.736,336.609 221.5,333.5C 218.5,333.5 215.5,333.5 212.5,333.5C 212.5,329.5 212.5,325.5 212.5,321.5C 212.192,319.076 212.526,316.743 213.5,314.5C 216.094,312.76 218.594,311.093 221,309.5C 221.173,313.541 221.673,317.541 222.5,321.5C 223.518,322.193 224.518,322.859 225.5,323.5 Z"/></g>
<g><path style="opacity:1" fill="#f1f2fc" d="M 212.5,321.5 C 212.5,325.5 212.5,329.5 212.5,333.5C 212.334,337.846 212.501,342.179 213,346.5C 215.157,344.505 217.657,343.172 220.5,342.5C 220.42,350.887 219.753,359.22 218.5,367.5C 216.821,367.285 215.821,367.952 215.5,369.5C 215.657,370.873 215.49,372.207 215,373.5C 211.021,370.762 206.855,368.429 202.5,366.5C 193.004,360.53 183.338,354.697 173.5,349C 175.863,348.411 176.863,346.911 176.5,344.5C 173.646,345.026 170.979,346.026 168.5,347.5C 169.451,345.38 170.951,343.714 173,342.5C 173.333,342.833 173.667,343.167 174,343.5C 186.445,334.555 199.279,327.222 212.5,321.5 Z"/></g>
<g><path style="opacity:0.909" fill="#b5c3e8" d="M 233.5,316.5 C 234.167,317.167 234.833,317.833 235.5,318.5C 235.335,321.85 235.502,325.183 236,328.5C 242.5,332.333 249,336.167 255.5,340C 256.252,340.671 256.586,341.504 256.5,342.5C 250.298,338.899 243.964,335.566 237.5,332.5C 237.189,331.522 236.522,330.855 235.5,330.5C 234.833,331.833 234.167,333.167 233.5,334.5C 231.004,335.58 228.67,336.914 226.5,338.5C 225.506,333.544 225.173,328.544 225.5,323.5C 225.5,322.167 225.5,320.833 225.5,319.5C 225.833,319.5 226.167,319.5 226.5,319.5C 228.607,320.468 230.941,320.802 233.5,320.5C 233.5,319.167 233.5,317.833 233.5,316.5 Z"/></g>
<g><path style="opacity:0.612" fill="#edc0bf" d="M 442.5,323.5 C 442.56,322.957 442.893,322.624 443.5,322.5C 450.399,327.074 457.733,330.741 465.5,333.5C 465.027,334.906 464.027,335.573 462.5,335.5C 456.075,331.07 449.408,327.07 442.5,323.5 Z"/></g>
<g><path style="opacity:1" fill="#132a60" d="M 469.5,326.5 C 470.833,326.5 471.5,327.167 471.5,328.5C 471.002,331.993 471.002,335.326 471.5,338.5C 468.215,338.79 465.215,338.123 462.5,336.5C 462.5,336.167 462.5,335.833 462.5,335.5C 464.027,335.573 465.027,334.906 465.5,333.5C 465.318,331.409 465.652,329.409 466.5,327.5C 467.325,326.614 468.325,326.281 469.5,326.5 Z"/></g>
<g><path style="opacity:1" fill="#fd3637" d="M 481.5,330.5 C 480.094,330.973 479.427,331.973 479.5,333.5C 478.778,333.918 478.278,334.584 478,335.5C 476.581,334.54 475.081,333.707 473.5,333C 472.901,331.378 472.234,329.878 471.5,328.5C 471.5,327.167 470.833,326.5 469.5,326.5C 469.281,325.325 469.614,324.325 470.5,323.5C 474.401,325.608 478.067,327.941 481.5,330.5 Z"/></g>
<g><path style="opacity:0.141" fill="#a566ac" d="M 425.5,325.5 C 426.778,325.782 427.778,326.449 428.5,327.5C 428.608,331.247 428.108,334.914 427,338.5C 425.569,334.365 425.069,330.032 425.5,325.5 Z"/></g>
<g><path style="opacity:1" fill="#d8e6fd" d="M 237.5,332.5 C 243.964,335.566 250.298,338.899 256.5,342.5C 259.547,340.887 262.047,341.554 264,344.5C 264.499,348.486 264.666,352.486 264.5,356.5C 264.5,358.5 264.5,360.5 264.5,362.5C 258.5,365.833 252.5,369.167 246.5,372.5C 243.167,374.5 239.833,376.5 236.5,378.5C 237.074,373.352 236.407,368.518 234.5,364C 235.416,363.626 236.25,363.126 237,362.5C 237.5,352.506 237.666,342.506 237.5,332.5 Z"/></g>
<g><path style="opacity:0.849" fill="#12255f" d="M 372.5,332.5 C 374.332,333.248 375.999,334.248 377.5,335.5C 376.699,337.042 376.366,338.708 376.5,340.5C 376.5,340.833 376.5,341.167 376.5,341.5C 376.167,341.5 375.833,341.5 375.5,341.5C 373.005,340.801 370.672,339.801 368.5,338.5C 368.5,337.167 368.5,335.833 368.5,334.5C 369.514,333.326 370.847,332.66 372.5,332.5 Z"/></g>
<g><path style="opacity:1" fill="#ff888a" d="M 481.5,330.5 C 484.8,332.108 488.133,333.775 491.5,335.5C 492.652,338.106 492.818,340.773 492,343.5C 487.853,341.518 484.02,339.184 480.5,336.5C 480.539,335.417 480.873,334.417 481.5,333.5C 481.03,332.537 480.363,332.537 479.5,333.5C 479.427,331.973 480.094,330.973 481.5,330.5 Z"/></g>
<g><path style="opacity:0.999" fill="#d7def5" d="M 471.5,328.5 C 472.234,329.878 472.901,331.378 473.5,333C 475.081,333.707 476.581,334.54 478,335.5C 478.278,334.584 478.778,333.918 479.5,333.5C 480.363,332.537 481.03,332.537 481.5,333.5C 480.873,334.417 480.539,335.417 480.5,336.5C 479.542,338.302 478.875,340.302 478.5,342.5C 476.5,342.5 474.5,342.5 472.5,342.5C 473.326,346.136 473.992,349.803 474.5,353.5C 473.292,354.234 471.959,354.567 470.5,354.5C 468.738,354.643 467.071,354.309 465.5,353.5C 464.682,350.893 464.182,348.226 464,345.5C 463.617,346.056 463.117,346.389 462.5,346.5C 461.972,345.279 461.305,344.113 460.5,343C 461.038,341.101 461.705,338.934 462.5,336.5C 465.215,338.123 468.215,338.79 471.5,338.5C 471.002,335.326 471.002,331.993 471.5,328.5 Z"/></g>
<g><path style="opacity:0.998" fill="#367df9" d="M 520.5,333.5 C 522.404,333.738 523.738,334.738 524.5,336.5C 526.36,344.329 527.027,352.329 526.5,360.5C 525.564,361.974 524.23,362.974 522.5,363.5C 522.5,363.167 522.5,362.833 522.5,362.5C 526.972,351.41 523.972,342.744 513.5,336.5C 513.624,335.893 513.957,335.56 514.5,335.5C 514.435,335.938 514.601,336.272 515,336.5C 516.488,334.84 518.321,333.84 520.5,333.5 Z"/></g>
<g><path style="opacity:1" fill="#9ec4ff" d="M 212.5,333.5 C 215.5,333.5 218.5,333.5 221.5,333.5C 221.736,336.609 221.403,339.609 220.5,342.5C 217.657,343.172 215.157,344.505 213,346.5C 212.501,342.179 212.334,337.846 212.5,333.5 Z"/></g>
<g><path style="opacity:0.996" fill="#f99a98" d="M 368.5,338.5 C 370.672,339.801 373.005,340.801 375.5,341.5C 373.22,343.223 370.553,343.889 367.5,343.5C 367.721,342.265 368.388,341.265 369.5,340.5C 369.137,339.817 368.804,339.15 368.5,338.5 Z"/></g>
<g><path style="opacity:1" fill="#fc5e60" d="M 504.5,342.5 C 505.11,343.391 505.443,344.391 505.5,345.5C 502.924,345.278 502.09,343.945 503,341.5C 503.383,342.056 503.883,342.389 504.5,342.5 Z"/></g>
<g><path style="opacity:0.997" fill="#b211ef" d="M 411.5,338.5 C 414.439,339.456 416.772,341.123 418.5,343.5C 417.833,343.5 417.5,343.833 417.5,344.5C 416.29,344.932 415.29,345.599 414.5,346.5C 413.833,346.5 413.5,346.833 413.5,347.5C 411.716,347.893 410.05,348.559 408.5,349.5C 405.469,350.493 403.136,349.493 401.5,346.5C 403.702,344.046 406.368,342.046 409.5,340.5C 410.167,340.5 410.5,340.167 410.5,339.5C 411.167,339.5 411.5,339.167 411.5,338.5 Z"/></g>
<g><path style="opacity:1" fill="#a6c4fe" d="M 505.5,345.5 C 505.443,344.391 505.11,343.391 504.5,342.5C 504.369,341.761 504.536,341.094 505,340.5C 507.333,341.833 509.667,343.167 512,344.5C 512.827,348.541 512.66,352.541 511.5,356.5C 508.754,354.428 506.254,352.094 504,349.5C 503.516,347.807 504.016,346.473 505.5,345.5 Z"/></g>
<g><path style="opacity:0.996" fill="#4a8bfd" d="M 258.5,344.5 C 259.5,344.5 260.5,344.5 261.5,344.5C 261.5,345.5 261.5,346.5 261.5,347.5C 260.5,347.5 259.5,347.5 258.5,347.5C 258.5,346.5 258.5,345.5 258.5,344.5 Z"/></g>
<g><path style="opacity:0.73" fill="#498ff9" d="M 417.5,344.5 C 418.388,347.054 418.721,349.721 418.5,352.5C 417.5,352.833 416.833,353.5 416.5,354.5C 415.883,354.611 415.383,354.944 415,355.5C 413.417,353.945 411.584,352.778 409.5,352C 408.748,351.329 408.414,350.496 408.5,349.5C 410.05,348.559 411.716,347.893 413.5,347.5C 414.167,347.5 414.5,347.167 414.5,346.5C 415.29,345.599 416.29,344.932 417.5,344.5 Z"/></g>
<g><path style="opacity:1" fill="#9ec4ff" d="M 199.5,344.5 C 202.5,344.5 205.5,344.5 208.5,344.5C 208.785,346.288 208.452,347.955 207.5,349.5C 205.004,350.58 202.67,351.914 200.5,353.5C 199.516,350.572 199.183,347.572 199.5,344.5 Z"/></g>
<g><path style="opacity:1" fill="#4a8ffa" d="M 375.5,341.5 C 375.833,341.5 376.167,341.5 376.5,341.5C 376.833,341.5 377.167,341.5 377.5,341.5C 377.5,341.833 377.5,342.167 377.5,342.5C 376.167,349.167 376.167,355.833 377.5,362.5C 375.735,363.461 373.735,363.795 371.5,363.5C 370.662,363.158 370.328,362.492 370.5,361.5C 370.802,358.941 370.468,356.607 369.5,354.5C 369.082,353.778 368.416,353.278 367.5,353C 367.678,350.045 367.678,346.879 367.5,343.5C 370.553,343.889 373.22,343.223 375.5,341.5 Z"/></g>
<g><path style="opacity:0.494" fill="#2064f6" d="M 418.5,343.5 C 420.575,343.616 422.575,344.116 424.5,345C 425.337,346.011 425.67,347.178 425.5,348.5C 424.167,349.167 422.833,349.833 421.5,350.5C 420.833,350.5 420.5,350.833 420.5,351.5C 419.833,351.833 419.167,352.167 418.5,352.5C 418.721,349.721 418.388,347.054 417.5,344.5C 418.167,344.5 418.5,344.167 418.5,343.5 Z"/></g>
<g><path style="opacity:0.831" fill="#d8bcc9" d="M 478.5,342.5 C 484.967,346.996 491.634,350.996 498.5,354.5C 497.175,355.953 496.342,355.619 496,353.5C 495.667,353.833 495.333,354.167 495,354.5C 489.563,350.72 483.897,347.386 478,344.5C 477.228,344.645 476.561,344.978 476,345.5C 476.076,348.602 475.91,351.602 475.5,354.5C 474.833,354.5 474.5,354.167 474.5,353.5C 473.992,349.803 473.326,346.136 472.5,342.5C 474.5,342.5 476.5,342.5 478.5,342.5 Z"/></g>
<g><path style="opacity:1" fill="#326cf3" d="M 377.5,342.5 C 377.856,344.19 378.856,345.19 380.5,345.5C 380.888,348.307 380.888,350.974 380.5,353.5C 379.167,355.833 379.167,358.167 380.5,360.5C 380.027,361.906 379.027,362.573 377.5,362.5C 376.167,355.833 376.167,349.167 377.5,342.5 Z"/></g>
<g><path style="opacity:0.97" fill="#f3f1f9" d="M 425.5,348.5 C 425.833,348.5 426.167,348.5 426.5,348.5C 431.629,351.233 436.629,354.233 441.5,357.5C 433.436,362.525 425.436,367.525 417.5,372.5C 416.109,374.432 413.775,376.099 410.5,377.5C 408.466,376.441 406.466,375.441 404.5,374.5C 404.539,372.776 404.206,372.443 403.5,373.5C 403.167,373.5 402.833,373.5 402.5,373.5C 402.5,372.833 402.167,372.5 401.5,372.5C 401.167,372.5 400.833,372.5 400.5,372.5C 400.423,371.25 399.756,370.417 398.5,370C 404.644,365.188 411.144,361.688 418,359.5C 418.667,358.167 418.667,356.833 418,355.5C 416.893,356.712 416.393,356.379 416.5,354.5C 416.833,353.5 417.5,352.833 418.5,352.5C 419.167,352.167 419.833,351.833 420.5,351.5C 421.167,351.5 421.5,351.167 421.5,350.5C 422.833,349.833 424.167,349.167 425.5,348.5 Z"/></g>
<g><path style="opacity:0.996" fill="#1359f5" d="M 524.5,336.5 C 527.118,338.906 529.118,341.739 530.5,345C 530.432,349.062 530.432,353.062 530.5,357C 529.897,359.071 528.564,360.238 526.5,360.5C 527.027,352.329 526.36,344.329 524.5,336.5 Z"/></g>
<g><path style="opacity:0.769" fill="#1503b2" d="M 380.5,353.5 C 381.972,355.706 382.305,358.039 381.5,360.5C 381.167,360.5 380.833,360.5 380.5,360.5C 379.167,358.167 379.167,355.833 380.5,353.5 Z"/></g>
<g><path style="opacity:0.125" fill="#f3c4c3" d="M 417.5,372.5 C 425.436,367.525 433.436,362.525 441.5,357.5C 436.629,354.233 431.629,351.233 426.5,348.5C 426.369,347.761 426.536,347.094 427,346.5C 431.711,349.518 436.544,352.351 441.5,355C 442.574,355.739 443.241,356.739 443.5,358C 435.616,363.53 427.449,368.697 419,373.5C 418.617,372.944 418.117,372.611 417.5,372.5 Z"/></g>
<g><path style="opacity:0.999" fill="#5c90ee" d="M 470.5,354.5 C 470.194,357.385 470.527,360.052 471.5,362.5C 471.5,362.833 471.5,363.167 471.5,363.5C 469.379,363.675 467.379,363.341 465.5,362.5C 465.167,362.5 464.833,362.5 464.5,362.5C 464.768,360.901 464.434,359.568 463.5,358.5C 463.167,358.5 462.833,358.5 462.5,358.5C 461.876,354.543 461.876,350.543 462.5,346.5C 463.117,346.389 463.617,346.056 464,345.5C 464.182,348.226 464.682,350.893 465.5,353.5C 467.071,354.309 468.738,354.643 470.5,354.5 Z"/></g>
<g><path style="opacity:0.999" fill="#dee8fe" d="M 202.5,366.5 C 201.598,371.258 201.265,375.925 201.5,380.5C 200.833,380.5 200.167,380.5 199.5,380.5C 197.206,378.347 194.54,376.68 191.5,375.5C 186.498,371.997 181.165,368.997 175.5,366.5C 173.664,364.412 171.331,363.079 168.5,362.5C 168.5,357.5 168.5,352.5 168.5,347.5C 170.979,346.026 173.646,345.026 176.5,344.5C 176.863,346.911 175.863,348.411 173.5,349C 183.338,354.697 193.004,360.53 202.5,366.5 Z"/></g>
<g><path style="opacity:0.851" fill="#e32839" d="M 369.5,354.5 C 370.468,356.607 370.802,358.941 370.5,361.5C 369.833,360.833 369.167,360.167 368.5,359.5C 368.216,357.585 368.549,355.919 369.5,354.5 Z"/></g>
<g><path style="opacity:0.998" fill="#2163f6" d="M 474.5,353.5 C 474.5,354.167 474.833,354.5 475.5,354.5C 476.301,356.042 476.634,357.708 476.5,359.5C 475.71,360.609 475.21,361.942 475,363.5C 473.989,362.663 472.822,362.33 471.5,362.5C 470.527,360.052 470.194,357.385 470.5,354.5C 471.959,354.567 473.292,354.234 474.5,353.5 Z"/></g>
<g><path style="opacity:1" fill="#fe6867" d="M 176.5,358.5 C 179.372,358.635 180.872,359.969 181,362.5C 178.882,361.717 177.382,360.384 176.5,358.5 Z"/></g>
<g><path style="opacity:0.79" fill="#6fadff" d="M 168.5,362.5 C 171.331,363.079 173.664,364.412 175.5,366.5C 175.335,369.518 175.502,372.518 176,375.5C 176.333,374.833 176.667,374.167 177,373.5C 178.973,374.64 180.807,375.973 182.5,377.5C 180.939,378.347 179.439,378.014 178,376.5C 177.505,378.473 177.338,380.473 177.5,382.5C 174.622,380.895 171.622,379.561 168.5,378.5C 168.5,373.167 168.5,367.833 168.5,362.5 Z"/></g>
<g><path style="opacity:0.925" fill="#eceaf6" d="M 264.5,356.5 C 271.721,360.137 279.721,364.304 288.5,369C 291.492,370.315 293.825,372.315 295.5,375C 294.899,376.605 293.899,377.938 292.5,379C 284.336,383.804 276.503,388.304 269,392.5C 268.617,391.944 268.117,391.611 267.5,391.5C 266.5,391.5 265.5,391.5 264.5,391.5C 264.5,387.167 264.5,382.833 264.5,378.5C 264.5,373.167 264.5,367.833 264.5,362.5C 264.5,360.5 264.5,358.5 264.5,356.5 Z"/></g>
<g><path style="opacity:1" fill="#f2f3fc" d="M 368.5,359.5 C 369.167,360.167 369.833,360.833 370.5,361.5C 370.328,362.492 370.662,363.158 371.5,363.5C 371.661,371.925 372.327,380.258 373.5,388.5C 371.897,388.312 370.563,388.812 369.5,390C 371.218,390.346 372.885,390.846 374.5,391.5C 375.386,390.675 375.719,389.675 375.5,388.5C 376.5,388.5 377.5,388.5 378.5,388.5C 376.68,393.886 375.513,399.552 375,405.5C 373.898,406.949 372.731,408.282 371.5,409.5C 371.285,411.179 371.952,412.179 373.5,412.5C 373.5,413.167 373.5,413.833 373.5,414.5C 368.5,411.833 363.5,409.167 358.5,406.5C 347.833,400.167 337.167,393.833 326.5,387.5C 327.5,386.833 328.5,386.167 329.5,385.5C 329.5,386.5 329.5,387.5 329.5,388.5C 330.5,388.5 331.5,388.5 332.5,388.5C 332.715,386.821 332.048,385.821 330.5,385.5C 331.975,383.59 333.975,382.424 336.5,382C 338.141,380.871 339.141,379.371 339.5,377.5C 343.089,376.044 346.756,373.878 350.5,371C 357.148,367.863 363.148,364.029 368.5,359.5 Z"/></g>
<g><path style="opacity:0.873" fill="#f2c1c0" d="M 501.5,357.5 C 501.56,356.957 501.893,356.624 502.5,356.5C 506.317,358.5 509.984,360.666 513.5,363C 516.592,363.736 519.592,363.569 522.5,362.5C 522.5,362.833 522.5,363.167 522.5,363.5C 522.389,364.117 522.056,364.617 521.5,365C 518.805,365.254 516.305,365.421 514,365.5C 509.95,362.61 505.783,359.943 501.5,357.5 Z"/></g>
<g><path style="opacity:0.999" fill="#b6cdf9" d="M 462.5,358.5 C 462.833,359.833 463.167,359.833 463.5,358.5C 464.434,359.568 464.768,360.901 464.5,362.5C 463.805,370.401 463.138,378.401 462.5,386.5C 462.167,386.5 461.833,386.5 461.5,386.5C 453.899,382.228 446.566,377.561 439.5,372.5C 447.406,367.419 455.073,362.752 462.5,358.5 Z"/></g>
<g><path style="opacity:0.999" fill="#cadaff" d="M 202.5,366.5 C 206.855,368.429 211.021,370.762 215,373.5C 215.49,372.207 215.657,370.873 215.5,369.5C 218.548,369.494 219.048,370.494 217,372.5C 216.501,378.157 216.334,383.824 216.5,389.5C 211.299,386.737 206.299,383.737 201.5,380.5C 201.265,375.925 201.598,371.258 202.5,366.5 Z"/></g>
<g><path style="opacity:1" fill="#e2eafc" d="M 380.5,360.5 C 380.833,360.5 381.167,360.5 381.5,360.5C 381.771,361.552 381.938,362.885 382,364.5C 382.333,364.167 382.667,363.833 383,363.5C 388.496,366.487 393.663,369.821 398.5,373.5C 392.507,375.75 391.007,379.75 394,385.5C 395.584,386.861 397.418,387.528 399.5,387.5C 400.88,387.163 401.213,383.163 400.5,375.5C 401.959,375.433 403.292,375.766 404.5,376.5C 404.336,379.187 404.503,381.854 405,384.5C 406.01,381.552 407.843,380.886 410.5,382.5C 411.204,385.704 411.87,388.871 412.5,392C 409.705,393.3 407.039,394.8 404.5,396.5C 403.505,401.792 403.172,407.125 403.5,412.5C 402.739,413.391 401.739,414.058 400.5,414.5C 399.5,434.822 399.167,455.156 399.5,475.5C 399.167,475.5 398.833,475.5 398.5,475.5C 398.833,455.822 398.5,436.155 397.5,416.5C 389.765,421.367 381.765,425.7 373.5,429.5C 373.5,424.5 373.5,419.5 373.5,414.5C 373.5,413.833 373.5,413.167 373.5,412.5C 374.404,411.791 374.737,410.791 374.5,409.5C 373.5,409.5 372.5,409.5 371.5,409.5C 372.731,408.282 373.898,406.949 375,405.5C 375.513,399.552 376.68,393.886 378.5,388.5C 378.5,387.5 378.5,386.5 378.5,385.5C 377.5,385.5 376.5,385.5 375.5,385.5C 375.5,386.5 375.5,387.5 375.5,388.5C 374.833,388.5 374.167,388.5 373.5,388.5C 372.327,380.258 371.661,371.925 371.5,363.5C 373.735,363.795 375.735,363.461 377.5,362.5C 379.027,362.573 380.027,361.906 380.5,360.5 Z"/></g>
<g><path style="opacity:1" fill="#cfdffc" d="M 476.5,359.5 C 478.69,360.374 479.69,362.041 479.5,364.5C 476.894,365.85 476.894,367.35 479.5,369C 487.269,372.967 494.603,377.467 501.5,382.5C 497.034,384.566 492.701,386.9 488.5,389.5C 484.993,391.754 481.327,393.754 477.5,395.5C 472.299,392.737 467.299,389.737 462.5,386.5C 463.138,378.401 463.805,370.401 464.5,362.5C 464.833,362.5 465.167,362.5 465.5,362.5C 466.429,368.453 467.096,374.453 467.5,380.5C 468.211,382.842 469.544,383.175 471.5,381.5C 473.278,383.81 475.278,383.644 477.5,381C 476.207,380.51 474.873,380.343 473.5,380.5C 474.117,374.402 473.45,368.735 471.5,363.5C 471.5,363.167 471.5,362.833 471.5,362.5C 472.822,362.33 473.989,362.663 475,363.5C 475.21,361.942 475.71,360.609 476.5,359.5 Z"/></g>
<g><path style="opacity:1" fill="#f8b6bb" d="M 465.5,362.5 C 467.379,363.341 469.379,363.675 471.5,363.5C 473.45,368.735 474.117,374.402 473.5,380.5C 473.158,381.338 472.492,381.672 471.5,381.5C 471.5,380.833 471.5,380.167 471.5,379.5C 470.175,360.891 469.508,360.891 469.5,379.5C 469.158,380.338 468.492,380.672 467.5,380.5C 467.096,374.453 466.429,368.453 465.5,362.5 Z"/></g>
<g><path style="opacity:1" fill="#ccd9f8" d="M 471.5,379.5 C 470.833,379.5 470.167,379.5 469.5,379.5C 469.508,360.891 470.175,360.891 471.5,379.5 Z"/></g>
<g><path style="opacity:0.999" fill="#4a94ff" d="M 175.5,366.5 C 181.165,368.997 186.498,371.997 191.5,375.5C 190.555,380.405 190.221,385.405 190.5,390.5C 185.963,388.07 181.63,385.403 177.5,382.5C 177.338,380.473 177.505,378.473 178,376.5C 179.439,378.014 180.939,378.347 182.5,377.5C 180.807,375.973 178.973,374.64 177,373.5C 176.667,374.167 176.333,374.833 176,375.5C 175.502,372.518 175.335,369.518 175.5,366.5 Z"/></g>
<g><path style="opacity:1" fill="#aac3f9" d="M 400.5,372.5 C 400.833,372.5 401.167,372.5 401.5,372.5C 402.167,372.5 402.5,372.833 402.5,373.5C 402.833,373.5 403.167,373.5 403.5,373.5C 403.5,374.167 403.833,374.5 404.5,374.5C 404.5,375.167 404.5,375.833 404.5,376.5C 403.292,375.766 401.959,375.433 400.5,375.5C 401.213,383.163 400.88,387.163 399.5,387.5C 397.418,387.528 395.584,386.861 394,385.5C 391.007,379.75 392.507,375.75 398.5,373.5C 399.167,373.167 399.833,372.833 400.5,372.5 Z"/></g>
<g><path style="opacity:0.996" fill="#a219dd" d="M 479.5,364.5 C 488.829,369.587 497.163,374.587 504.5,379.5C 506.034,382.232 505.367,384.232 502.5,385.5C 501.89,384.609 501.557,383.609 501.5,382.5C 494.603,377.467 487.269,372.967 479.5,369C 476.894,367.35 476.894,365.85 479.5,364.5 Z"/></g>
<g><path style="opacity:0.999" fill="#3d85ff" d="M 191.5,375.5 C 194.54,376.68 197.206,378.347 199.5,380.5C 199.5,382.833 199.5,385.167 199.5,387.5C 200.833,387.5 202.167,387.5 203.5,387.5C 203.719,388.675 203.386,389.675 202.5,390.5C 201.575,389.359 200.741,389.359 200,390.5C 199.506,392.134 199.34,393.801 199.5,395.5C 196.661,393.58 193.661,391.913 190.5,390.5C 190.221,385.405 190.555,380.405 191.5,375.5 Z"/></g>
<g><path style="opacity:1" fill="#ff504b" d="M 228.5,373.5 C 229.776,374.386 229.776,375.386 228.5,376.5C 227.252,377.04 226.085,377.707 225,378.5C 224.333,377.833 224.333,377.167 225,376.5C 226.518,375.837 227.685,374.837 228.5,373.5 Z"/></g>
<g><path style="opacity:1" fill="#1d6ffe" d="M 264.5,362.5 C 264.5,367.833 264.5,373.167 264.5,378.5C 258.702,381.233 253.035,384.233 247.5,387.5C 246.883,387.389 246.383,387.056 246,386.5C 245.352,381.796 245.519,377.129 246.5,372.5C 252.5,369.167 258.5,365.833 264.5,362.5 Z"/></g>
<g><path style="opacity:1" fill="#d4e2ff" d="M 249.5,376.5 C 251.465,376.948 251.798,377.948 250.5,379.5C 249.614,378.675 249.281,377.675 249.5,376.5 Z"/></g>
<g><path style="opacity:1" fill="#dbe6ff" d="M 253.5,374.5 C 255.337,374.639 255.67,375.306 254.5,376.5C 253.702,376.043 253.369,375.376 253.5,374.5 Z"/></g>
<g><path style="opacity:1" fill="#d1deff" d="M 258.5,371.5 C 261.012,372.216 261.012,373.216 258.5,374.5C 257.438,373.575 257.438,372.575 258.5,371.5 Z"/></g>
<g><path style="opacity:0.999" fill="#3d8afe" d="M 246.5,372.5 C 245.519,377.129 245.352,381.796 246,386.5C 246.383,387.056 246.883,387.389 247.5,387.5C 243.535,389.818 239.535,392.152 235.5,394.5C 234.167,394.5 232.833,394.5 231.5,394.5C 230.305,390.213 230.305,385.88 231.5,381.5C 232.965,380.263 234.632,379.263 236.5,378.5C 239.833,376.5 243.167,374.5 246.5,372.5 Z"/></g>
<g><path style="opacity:1" fill="#1c3770" d="M 469.5,379.5 C 470.167,379.5 470.833,379.5 471.5,379.5C 471.5,380.167 471.5,380.833 471.5,381.5C 469.544,383.175 468.211,382.842 467.5,380.5C 468.492,380.672 469.158,380.338 469.5,379.5 Z"/></g>
<g><path style="opacity:0.992" fill="#4c8bf1" d="M 439.5,372.5 C 446.566,377.561 453.899,382.228 461.5,386.5C 458.574,385.539 455.574,384.873 452.5,384.5C 447.939,381.915 443.273,379.415 438.5,377C 437.084,375.085 437.418,373.585 439.5,372.5 Z"/></g>
<g><path style="opacity:1" fill="#244680" d="M 473.5,380.5 C 474.873,380.343 476.207,380.51 477.5,381C 475.278,383.644 473.278,383.81 471.5,381.5C 472.492,381.672 473.158,381.338 473.5,380.5 Z"/></g>
<g><path style="opacity:0.999" fill="#cbd4f1" d="M 404.5,376.5 C 408.716,379.582 413.383,381.915 418.5,383.5C 419.48,384.981 420.647,386.315 422,387.5C 422.829,392.864 422.663,398.198 421.5,403.5C 416.917,405.252 412.917,407.585 409.5,410.5C 407.5,411.167 405.5,411.833 403.5,412.5C 403.172,407.125 403.505,401.792 404.5,396.5C 407.039,394.8 409.705,393.3 412.5,392C 411.87,388.871 411.204,385.704 410.5,382.5C 407.843,380.886 406.01,381.552 405,384.5C 404.503,381.854 404.336,379.187 404.5,376.5 Z"/></g>
<g><path style="opacity:0.999" fill="#5ca2fe" d="M 231.5,381.5 C 230.305,385.88 230.305,390.213 231.5,394.5C 229.167,396.167 227.167,398.167 225.5,400.5C 222.661,402.42 219.661,404.087 216.5,405.5C 215.833,405.5 215.5,405.167 215.5,404.5C 216.487,399.695 216.821,394.695 216.5,389.5C 221.632,387.1 226.632,384.434 231.5,381.5 Z"/></g>
<g><path style="opacity:1" fill="#2d4275" d="M 378.5,388.5 C 377.5,388.5 376.5,388.5 375.5,388.5C 375.5,387.5 375.5,386.5 375.5,385.5C 376.5,385.5 377.5,385.5 378.5,385.5C 378.5,386.5 378.5,387.5 378.5,388.5 Z"/></g>
<g><path style="opacity:1" fill="#5091fe" d="M 329.5,385.5 C 329.833,385.5 330.167,385.5 330.5,385.5C 332.048,385.821 332.715,386.821 332.5,388.5C 331.5,388.5 330.5,388.5 329.5,388.5C 329.5,387.5 329.5,386.5 329.5,385.5 Z"/></g>
<g><path style="opacity:0.051" fill="#eab5b7" d="M 339.5,377.5 C 339.141,379.371 338.141,380.871 336.5,382C 333.975,382.424 331.975,383.59 330.5,385.5C 330.167,385.5 329.833,385.5 329.5,385.5C 328.5,386.167 327.5,386.833 326.5,387.5C 325.35,392.316 325.184,397.316 326,402.5C 327.667,403.733 329.167,405.067 330.5,406.5C 327.805,406.067 325.638,404.734 324,402.5C 323.333,397.5 323.333,392.5 324,387.5C 328.781,383.549 333.948,380.216 339.5,377.5 Z"/></g>
<g><path style="opacity:1" fill="#253e72" d="M 373.5,388.5 C 374.167,388.5 374.833,388.5 375.5,388.5C 375.719,389.675 375.386,390.675 374.5,391.5C 372.885,390.846 371.218,390.346 369.5,390C 370.563,388.812 371.897,388.312 373.5,388.5 Z"/></g>
<g><path style="opacity:1" fill="#dee3f7" d="M 168.5,378.5 C 171.622,379.561 174.622,380.895 177.5,382.5C 181.63,385.403 185.963,388.07 190.5,390.5C 193.661,391.913 196.661,393.58 199.5,395.5C 200.71,395.932 201.71,396.599 202.5,397.5C 202.489,399.547 202.156,401.547 201.5,403.5C 201.529,405.029 202.196,406.196 203.5,407C 202.74,408.441 202.074,409.941 201.5,411.5C 206.495,414.223 211.328,417.223 216,420.5C 216.499,415.511 216.666,410.511 216.5,405.5C 219.661,404.087 222.661,402.42 225.5,400.5C 226.201,402.588 227.201,404.588 228.5,406.5C 229.82,407.942 231.486,408.608 233.5,408.5C 233.5,409.833 233.5,411.167 233.5,412.5C 232.833,412.5 232.5,412.833 232.5,413.5C 226.958,416.695 221.792,419.695 217,422.5C 200.136,413.307 184.303,404.14 169.5,395C 168.527,389.593 168.193,384.093 168.5,378.5 Z"/></g>
<g><path style="opacity:1" fill="#fd5757" d="M 176.5,389.5 C 178.305,390.237 179.971,391.237 181.5,392.5C 178.904,393.361 177.237,392.361 176.5,389.5 Z"/></g>
<g><path style="opacity:1" fill="#ecf2ff" d="M 228.5,389.5 C 229.525,389.897 229.692,390.563 229,391.5C 227.488,392.257 226.154,393.257 225,394.5C 224.251,393.365 224.417,392.365 225.5,391.5C 226.739,391.058 227.739,390.391 228.5,389.5 Z"/></g>
<g><path style="opacity:1" fill="#d4e0fc" d="M 264.5,378.5 C 264.5,382.833 264.5,387.167 264.5,391.5C 263.71,392.794 262.71,393.961 261.5,395C 254.761,398.36 248.428,402.194 242.5,406.5C 242.607,408.379 242.107,408.712 241,407.5C 240.683,409.301 240.016,409.634 239,408.5C 237.845,409.338 236.678,410.338 235.5,411.5C 234.196,405.933 234.196,400.266 235.5,394.5C 239.535,392.152 243.535,389.818 247.5,387.5C 253.035,384.233 258.702,381.233 264.5,378.5 Z"/></g>
<g><path style="opacity:0.996" fill="#2062f1" d="M 452.5,384.5 C 455.574,384.873 458.574,385.539 461.5,386.5C 461.833,386.5 462.167,386.5 462.5,386.5C 467.299,389.737 472.299,392.737 477.5,395.5C 477.5,396.833 477.5,398.167 477.5,399.5C 469.242,394.795 460.908,389.795 452.5,384.5 Z"/></g>
<g><path style="opacity:0.984" fill="#4d8ff2" d="M 488.5,389.5 C 487.286,392.634 484.953,394.634 481.5,395.5C 480.614,396.325 480.281,397.325 480.5,398.5C 479.609,399.11 478.609,399.443 477.5,399.5C 477.5,398.167 477.5,396.833 477.5,395.5C 481.327,393.754 484.993,391.754 488.5,389.5 Z"/></g>
<g><path style="opacity:0.004" fill="#3367ea" d="M 501.5,382.5 C 501.557,383.609 501.89,384.609 502.5,385.5C 498.621,387.693 494.787,390.026 491,392.5C 490.667,392.167 490.333,391.833 490,391.5C 487.155,394.28 483.989,396.613 480.5,398.5C 480.281,397.325 480.614,396.325 481.5,395.5C 484.953,394.634 487.286,392.634 488.5,389.5C 492.701,386.9 497.034,384.566 501.5,382.5 Z"/></g>
<g><path style="opacity:0.999" fill="#1b6dfe" d="M 199.5,380.5 C 200.167,380.5 200.833,380.5 201.5,380.5C 206.299,383.737 211.299,386.737 216.5,389.5C 216.821,394.695 216.487,399.695 215.5,404.5C 211.326,401.912 206.993,399.579 202.5,397.5C 201.71,396.599 200.71,395.932 199.5,395.5C 199.34,393.801 199.506,392.134 200,390.5C 200.741,389.359 201.575,389.359 202.5,390.5C 203.386,389.675 203.719,388.675 203.5,387.5C 202.167,387.5 200.833,387.5 199.5,387.5C 199.5,385.167 199.5,382.833 199.5,380.5 Z"/></g>
<g><path style="opacity:1" fill="#dee7ff" d="M 205.5,390.5 C 207.225,390.843 207.725,391.843 207,393.5C 205.961,392.756 205.461,391.756 205.5,390.5 Z"/></g>
<g><path style="opacity:1" fill="#dfe9ff" d="M 209.5,392.5 C 211.225,392.843 211.725,393.843 211,395.5C 209.961,394.756 209.461,393.756 209.5,392.5 Z"/></g>
<g><path style="opacity:1" fill="#fe7578" d="M 287.5,395.5 C 290.167,397.167 292.833,398.833 295.5,400.5C 297.636,401.403 299.636,402.569 301.5,404C 297.139,406.512 292.806,409.012 288.5,411.5C 287.551,406.26 287.218,400.927 287.5,395.5 Z"/></g>
<g><path style="opacity:1" fill="#2f7cff" d="M 414.5,396.5 C 416.973,396.947 417.14,397.947 415,399.5C 414.517,398.552 414.351,397.552 414.5,396.5 Z"/></g>
<g><path style="opacity:0.999" fill="#cbdbfe" d="M 202.5,397.5 C 206.993,399.579 211.326,401.912 215.5,404.5C 215.5,405.167 215.833,405.5 216.5,405.5C 216.666,410.511 216.499,415.511 216,420.5C 211.328,417.223 206.495,414.223 201.5,411.5C 202.074,409.941 202.74,408.441 203.5,407C 202.196,406.196 201.529,405.029 201.5,403.5C 202.156,401.547 202.489,399.547 202.5,397.5 Z"/></g>
<g><path style="opacity:1" fill="#a1bdfc" d="M 231.5,394.5 C 232.833,394.5 234.167,394.5 235.5,394.5C 234.196,400.266 234.196,405.933 235.5,411.5C 234.249,417.828 234.249,424.161 235.5,430.5C 234.71,429.391 234.21,428.058 234,426.5C 233.501,421.845 233.334,417.179 233.5,412.5C 233.5,411.167 233.5,409.833 233.5,408.5C 231.486,408.608 229.82,407.942 228.5,406.5C 227.201,404.588 226.201,402.588 225.5,400.5C 227.167,398.167 229.167,396.167 231.5,394.5 Z"/></g>
<g><path style="opacity:1" fill="#fe4144" d="M 287.5,395.5 C 287.218,400.927 287.551,406.26 288.5,411.5C 286.932,412.473 285.265,412.64 283.5,412C 280.09,409.628 276.423,407.795 272.5,406.5C 271.942,405.21 270.942,404.377 269.5,404C 270.044,403.283 270.711,402.783 271.5,402.5C 276.139,399.845 280.806,397.179 285.5,394.5C 286.183,394.863 286.85,395.196 287.5,395.5 Z"/></g>
<g><path style="opacity:0.998" fill="#dfcdd6" d="M 320.5,411.5 C 313.554,407.691 306.554,403.858 299.5,400C 297.934,399.235 296.601,399.402 295.5,400.5C 292.833,398.833 290.167,397.167 287.5,395.5C 286.85,395.196 286.183,394.863 285.5,394.5C 280.806,397.179 276.139,399.845 271.5,402.5C 271.631,401.624 271.298,400.957 270.5,400.5C 264.351,404.214 258.017,407.547 251.5,410.5C 251.167,409.167 250.833,409.167 250.5,410.5C 250.167,410.5 249.833,410.5 249.5,410.5C 249.607,408.621 249.107,408.288 248,409.5C 246.494,407.826 244.661,406.826 242.5,406.5C 248.428,402.194 254.761,398.36 261.5,395C 262.71,393.961 263.71,392.794 264.5,391.5C 265.5,391.5 266.5,391.5 267.5,391.5C 267.063,393.074 266.063,394.241 264.5,395C 259.5,398.167 254.5,401.333 249.5,404.5C 251.678,407.615 254.345,408.115 257.5,406C 265.7,400.656 273.2,396.823 280,394.5C 283.045,388.598 286.378,388.265 290,393.5C 290.333,393.167 290.667,392.833 291,392.5C 291.442,394.679 292.442,395.345 294,394.5C 302.214,399.047 310.714,403.88 319.5,409C 320.252,409.671 320.586,410.504 320.5,411.5 Z"/></g>
<g><path style="opacity:1" fill="#dfe7fc" d="M 326.5,387.5 C 337.167,393.833 347.833,400.167 358.5,406.5C 358.261,408.467 358.594,410.301 359.5,412C 358.692,412.308 358.025,412.808 357.5,413.5C 358.822,415.865 358.822,418.198 357.5,420.5C 350.081,416.691 342.748,412.691 335.5,408.5C 333.452,409.326 331.785,408.659 330.5,406.5C 329.167,405.067 327.667,403.733 326,402.5C 325.184,397.316 325.35,392.316 326.5,387.5 Z"/></g>
<g><path style="opacity:1" fill="#fb6b6d" d="M 332.5,398.5 C 334.255,399.072 335.922,399.906 337.5,401C 338.451,401.718 338.617,402.551 338,403.5C 336.581,402.54 335.081,401.707 333.5,401C 332.748,400.329 332.414,399.496 332.5,398.5 Z"/></g>
<g><path style="opacity:1" fill="#c4d5f9" d="M 459.5,402.5 C 457.663,402.639 457.33,403.306 458.5,404.5C 463.065,406.941 467.398,409.608 471.5,412.5C 468.291,414.265 465.291,416.265 462.5,418.5C 460.716,418.893 459.05,419.559 457.5,420.5C 450.109,416.052 442.609,411.719 435,407.5C 434.601,407.728 434.435,408.062 434.5,408.5C 433.355,407.207 433.689,406.041 435.5,405C 440.509,402.163 445.509,399.329 450.5,396.5C 454.442,396.664 457.442,398.664 459.5,402.5 Z"/></g>
<g><path style="opacity:1" fill="#f0f3fe" d="M 271.5,402.5 C 270.711,402.783 270.044,403.283 269.5,404C 270.942,404.377 271.942,405.21 272.5,406.5C 272.218,407.778 271.551,408.778 270.5,409.5C 270.167,410.167 269.833,410.833 269.5,411.5C 269.833,413.5 270.167,415.5 270.5,417.5C 271.216,419.155 272.883,420.488 275.5,421.5C 275.261,423.467 275.594,425.301 276.5,427C 278.996,428.08 281.33,429.414 283.5,431C 285.112,431.72 286.612,431.554 288,430.5C 288.044,433.475 287.877,436.475 287.5,439.5C 284.341,439.57 282.674,441.237 282.5,444.5C 280.33,442.914 277.996,441.58 275.5,440.5C 271.113,437.469 266.446,434.803 261.5,432.5C 258.76,430.44 255.76,428.774 252.5,427.5C 247.701,424.263 242.701,421.263 237.5,418.5C 239.798,417.102 241.965,415.436 244,413.5C 245.15,412.576 246.15,412.576 247,413.5C 247.377,412.058 248.21,411.058 249.5,410.5C 249.833,410.5 250.167,410.5 250.5,410.5C 250.833,410.5 251.167,410.5 251.5,410.5C 258.017,407.547 264.351,404.214 270.5,400.5C 271.298,400.957 271.631,401.624 271.5,402.5 Z"/></g>
<g><path style="opacity:1" fill="#dee8fd" d="M 295.5,400.5 C 296.601,399.402 297.934,399.235 299.5,400C 306.554,403.858 313.554,407.691 320.5,411.5C 321.117,411.389 321.617,411.056 322,410.5C 323.741,411.758 325.574,412.758 327.5,413.5C 327.782,414.778 328.449,415.778 329.5,416.5C 327.952,416.821 327.285,417.821 327.5,419.5C 328.791,419.737 329.791,419.404 330.5,418.5C 331.167,418.5 331.833,418.5 332.5,418.5C 331.564,419.974 330.23,420.974 328.5,421.5C 325.661,423.42 322.661,425.087 319.5,426.5C 314.334,429.248 309.334,432.248 304.5,435.5C 300.833,437.5 297.167,439.5 293.5,441.5C 291.117,443.358 288.45,444.692 285.5,445.5C 284.391,445.443 283.391,445.11 282.5,444.5C 282.674,441.237 284.341,439.57 287.5,439.5C 287.877,436.475 288.044,433.475 288,430.5C 286.612,431.554 285.112,431.72 283.5,431C 281.33,429.414 278.996,428.08 276.5,427C 275.594,425.301 275.261,423.467 275.5,421.5C 278.533,423.683 281.866,425.35 285.5,426.5C 291.186,424.31 296.52,421.476 301.5,418C 300.167,417.333 298.833,417.333 297.5,418C 293.623,420.438 289.623,422.605 285.5,424.5C 280.593,421.879 275.593,419.545 270.5,417.5C 270.167,415.5 269.833,413.5 269.5,411.5C 275.103,413.969 280.436,416.969 285.5,420.5C 290.668,417.081 296.002,413.915 301.5,411C 301,410.5 300.5,410 300,409.5C 295.323,412.183 290.657,414.85 286,417.5C 280.702,415.023 275.536,412.356 270.5,409.5C 271.551,408.778 272.218,407.778 272.5,406.5C 276.423,407.795 280.09,409.628 283.5,412C 285.265,412.64 286.932,412.473 288.5,411.5C 292.806,409.012 297.139,406.512 301.5,404C 299.636,402.569 297.636,401.403 295.5,400.5 Z"/></g>
<g><path style="opacity:0.999" fill="#cddcfd" d="M 358.5,406.5 C 363.5,409.167 368.5,411.833 373.5,414.5C 373.5,419.5 373.5,424.5 373.5,429.5C 373.565,429.938 373.399,430.272 373,430.5C 371.22,429.361 369.386,428.361 367.5,427.5C 367.167,427.5 366.833,427.5 366.5,427.5C 366.167,426.167 365.833,426.167 365.5,427.5C 364.728,426.306 363.728,425.306 362.5,424.5C 360.858,423.197 359.191,421.864 357.5,420.5C 358.822,418.198 358.822,415.865 357.5,413.5C 358.025,412.808 358.692,412.308 359.5,412C 358.594,410.301 358.261,408.467 358.5,406.5 Z"/></g>
<g><path style="opacity:0.914" fill="#ea353a" d="M 459.5,402.5 C 462.609,403.773 465.609,405.273 468.5,407C 470,407.833 471.167,409 472,410.5C 472.333,410.167 472.667,409.833 473,409.5C 473.78,411.387 473.613,413.054 472.5,414.5C 472.672,413.508 472.338,412.842 471.5,412.5C 467.398,409.608 463.065,406.941 458.5,404.5C 457.33,403.306 457.663,402.639 459.5,402.5 Z"/></g>
<g><path style="opacity:1" fill="#fd5150" d="M 228.5,406.5 C 227.678,408.728 226.345,409.395 224.5,408.5C 225.32,406.889 226.654,406.222 228.5,406.5 Z"/></g>
<g><path style="opacity:1" fill="#5091ff" d="M 371.5,409.5 C 372.5,409.5 373.5,409.5 374.5,409.5C 374.737,410.791 374.404,411.791 373.5,412.5C 371.952,412.179 371.285,411.179 371.5,409.5 Z"/></g>
<g><path style="opacity:0.141" fill="#365ae6" d="M 471.5,412.5 C 472.338,412.842 472.672,413.508 472.5,414.5C 469.497,417.004 466.164,419.004 462.5,420.5C 462.5,419.833 462.5,419.167 462.5,418.5C 465.291,416.265 468.291,414.265 471.5,412.5 Z"/></g>
<g><path style="opacity:0.961" fill="#c5b5c7" d="M 335.5,408.5 C 342.748,412.691 350.081,416.691 357.5,420.5C 359.191,421.864 360.858,423.197 362.5,424.5C 362.565,424.938 362.399,425.272 362,425.5C 359.929,424.636 358.262,423.303 357,421.5C 353.058,420.685 349.391,418.685 346,415.5C 342.527,418.484 338.694,420.817 334.5,422.5C 333.833,421.167 333.167,419.833 332.5,418.5C 331.833,418.5 331.167,418.5 330.5,418.5C 330.672,417.508 330.338,416.842 329.5,416.5C 328.449,415.778 327.782,414.778 327.5,413.5C 328.552,413.351 329.552,413.517 330.5,414C 331.364,415.697 332.697,416.863 334.5,417.5C 336.833,416.333 339.167,415.167 341.5,414C 339.999,412.748 338.332,411.748 336.5,411C 335.748,410.329 335.414,409.496 335.5,408.5 Z"/></g>
<g><path style="opacity:1" fill="#fd5a59" d="M 384.5,414.5 C 385.525,414.897 385.692,415.563 385,416.5C 383.488,417.257 382.154,418.257 381,419.5C 380.251,418.365 380.417,417.365 381.5,416.5C 382.739,416.058 383.739,415.391 384.5,414.5 Z"/></g>
<g><path style="opacity:1" fill="#ad31f3" d="M 270.5,409.5 C 275.536,412.356 280.702,415.023 286,417.5C 290.657,414.85 295.323,412.183 300,409.5C 300.5,410 301,410.5 301.5,411C 296.002,413.915 290.668,417.081 285.5,420.5C 280.436,416.969 275.103,413.969 269.5,411.5C 269.833,410.833 270.167,410.167 270.5,409.5 Z"/></g>
<g><path style="opacity:0.902" fill="#3065ea" d="M 457.5,420.5 C 457.5,421.5 457.5,422.5 457.5,423.5C 450.397,419.779 443.397,415.779 436.5,411.5C 435.575,410.643 434.908,409.643 434.5,408.5C 434.435,408.062 434.601,407.728 435,407.5C 442.609,411.719 450.109,416.052 457.5,420.5 Z"/></g>
<g><path style="opacity:1" fill="#4b8afb" d="M 329.5,416.5 C 330.338,416.842 330.672,417.508 330.5,418.5C 329.791,419.404 328.791,419.737 327.5,419.5C 327.285,417.821 327.952,416.821 329.5,416.5 Z"/></g>
<g><path style="opacity:0.251" fill="#ecbfc2" d="M 411.5,414.5 C 421.263,418.294 430.263,423.294 438.5,429.5C 428.658,425.752 419.658,420.752 411.5,414.5 Z"/></g>
<g><path style="opacity:0.995" fill="#1158f6" d="M 332.5,418.5 C 333.167,419.833 333.833,421.167 334.5,422.5C 334.772,426.902 334.439,431.235 333.5,435.5C 329.806,437.522 326.139,439.522 322.5,441.5C 324.123,439.049 326.289,437.049 329,435.5C 329.495,433.527 329.662,431.527 329.5,429.5C 329.167,428.833 328.833,428.167 328.5,427.5C 327.359,425.549 327.359,423.549 328.5,421.5C 330.23,420.974 331.564,419.974 332.5,418.5 Z"/></g>
<g><path style="opacity:0.855" fill="#4b87e1" d="M 462.5,418.5 C 462.5,419.167 462.5,419.833 462.5,420.5C 460.696,421.716 459.029,422.716 457.5,423.5C 457.5,422.5 457.5,421.5 457.5,420.5C 459.05,419.559 460.716,418.893 462.5,418.5 Z"/></g>
<g><path style="opacity:0.716" fill="#f6f6fb" d="M 398.5,475.5 C 396.602,474.904 394.935,474.904 393.5,475.5C 378.805,466.789 364.139,458.122 349.5,449.5C 348.621,447.772 347.954,445.939 347.5,444C 348.033,441.774 348.7,439.607 349.5,437.5C 354.51,434.776 359.343,431.776 364,428.5C 365.107,429.712 365.607,429.379 365.5,427.5C 365.833,427.5 366.167,427.5 366.5,427.5C 366.833,428.833 367.167,428.833 367.5,427.5C 369.386,428.361 371.22,429.361 373,430.5C 373.399,430.272 373.565,429.938 373.5,429.5C 381.765,425.7 389.765,421.367 397.5,416.5C 398.5,436.155 398.833,455.822 398.5,475.5 Z"/></g>
<g><path style="opacity:1" fill="#488aff" d="M 270.5,417.5 C 275.593,419.545 280.593,421.879 285.5,424.5C 289.623,422.605 293.623,420.438 297.5,418C 298.833,417.333 300.167,417.333 301.5,418C 296.52,421.476 291.186,424.31 285.5,426.5C 281.866,425.35 278.533,423.683 275.5,421.5C 272.883,420.488 271.216,419.155 270.5,417.5 Z"/></g>
<g><path style="opacity:0.939" fill="#ecedf9" d="M 409.5,410.5 C 409.733,412.062 410.4,413.395 411.5,414.5C 419.658,420.752 428.658,425.752 438.5,429.5C 443.702,432.224 449.702,435.391 456.5,439C 459.887,440.936 460.387,443.436 458,446.5C 448.63,453.068 439.463,458.068 430.5,461.5C 422.393,465.723 414.393,470.223 406.5,475C 404.19,475.497 401.857,475.663 399.5,475.5C 399.167,455.156 399.5,434.822 400.5,414.5C 401.739,414.058 402.739,413.391 403.5,412.5C 405.5,411.833 407.5,411.167 409.5,410.5 Z"/></g>
<g><path style="opacity:1" fill="#e7edff" d="M 328.5,427.5 C 328.833,428.167 329.167,428.833 329.5,429.5C 328.425,430.562 327.425,430.562 326.5,429.5C 326.855,428.478 327.522,427.811 328.5,427.5 Z"/></g>
<g><path style="opacity:0.999" fill="#428cfb" d="M 252.5,427.5 C 255.76,428.774 258.76,430.44 261.5,432.5C 260.515,436.634 260.182,440.968 260.5,445.5C 258.323,445.414 256.323,444.747 254.5,443.5C 253.893,443.624 253.56,443.957 253.5,444.5C 249.342,442.704 244.675,440.037 239.5,436.5C 244.135,437.046 248.468,438.38 252.5,440.5C 251.167,436.167 251.167,431.833 252.5,427.5 Z"/></g>
<g><path style="opacity:0.998" fill="#5fa0fc" d="M 237.5,418.5 C 242.701,421.263 247.701,424.263 252.5,427.5C 251.167,431.833 251.167,436.167 252.5,440.5C 248.468,438.38 244.135,437.046 239.5,436.5C 238.828,435.733 237.995,435.066 237,434.5C 236.183,428.984 236.349,423.65 237.5,418.5 Z"/></g>
<g><path style="opacity:1" fill="#e7efff" d="M 245.5,430.5 C 248.372,430.635 249.872,431.969 250,434.5C 247.882,433.717 246.382,432.384 245.5,430.5 Z"/></g>
<g><path style="opacity:1" fill="#3480fb" d="M 319.5,426.5 C 318.427,428.653 318.427,430.653 319.5,432.5C 317.871,434.196 318.204,435.196 320.5,435.5C 319.859,436.482 319.193,437.482 318.5,438.5C 319.326,439.451 319.492,440.451 319,441.5C 316.012,443.399 313.179,445.399 310.5,447.5C 310.586,448.496 310.252,449.329 309.5,450C 306.644,451.259 303.977,452.759 301.5,454.5C 301.662,452.176 302.828,450.509 305,449.5C 305.773,444.748 305.607,440.081 304.5,435.5C 309.334,432.248 314.334,429.248 319.5,426.5 Z"/></g>
<g><path style="opacity:1" fill="#1c6bf9" d="M 328.5,421.5 C 327.359,423.549 327.359,425.549 328.5,427.5C 327.522,427.811 326.855,428.478 326.5,429.5C 327.425,430.562 328.425,430.562 329.5,429.5C 329.662,431.527 329.495,433.527 329,435.5C 326.289,437.049 324.123,439.049 322.5,441.5C 319.607,443.772 316.107,446.106 312,448.5C 311.617,447.944 311.117,447.611 310.5,447.5C 313.179,445.399 316.012,443.399 319,441.5C 319.492,440.451 319.326,439.451 318.5,438.5C 319.193,437.482 319.859,436.482 320.5,435.5C 320.737,434.209 320.404,433.209 319.5,432.5C 318.427,430.653 318.427,428.653 319.5,426.5C 322.661,425.087 325.661,423.42 328.5,421.5 Z"/></g>
<g><path style="opacity:1" fill="#dbe7ff" d="M 322.5,430.5 C 324.465,430.948 324.798,431.948 323.5,433.5C 322.614,432.675 322.281,431.675 322.5,430.5 Z"/></g>
<g><path style="opacity:1" fill="#edf2ff" d="M 319.5,432.5 C 320.404,433.209 320.737,434.209 320.5,435.5C 318.204,435.196 317.871,434.196 319.5,432.5 Z"/></g>
<g><path style="opacity:0.151" fill="#9e7dbb" d="M 233.5,412.5 C 233.334,417.179 233.501,421.845 234,426.5C 234.21,428.058 234.71,429.391 235.5,430.5C 235.91,437.952 235.243,445.285 233.5,452.5C 232.808,451.975 232.308,451.308 232,450.5C 232.492,438.127 232.659,425.794 232.5,413.5C 232.5,412.833 232.833,412.5 233.5,412.5 Z"/></g>
<g><path style="opacity:0.999" fill="#2c7cfd" d="M 261.5,432.5 C 266.446,434.803 271.113,437.469 275.5,440.5C 274.659,442.379 274.325,444.379 274.5,446.5C 274.5,447.5 274.5,448.5 274.5,449.5C 274.5,450.833 274.5,452.167 274.5,453.5C 270.557,451.963 266.557,450.63 262.5,449.5C 259.24,448.226 256.24,446.56 253.5,444.5C 253.56,443.957 253.893,443.624 254.5,443.5C 256.323,444.747 258.323,445.414 260.5,445.5C 260.182,440.968 260.515,436.634 261.5,432.5 Z"/></g>
<g><path style="opacity:1" fill="#4a92fa" d="M 304.5,435.5 C 305.607,440.081 305.773,444.748 305,449.5C 302.828,450.509 301.662,452.176 301.5,454.5C 297.735,456.033 294.235,458.033 291,460.5C 290.617,459.944 290.117,459.611 289.5,459.5C 291.568,456.799 292.901,453.799 293.5,450.5C 296.348,449.83 297.848,448.163 298,445.5C 296.887,446.305 295.721,446.972 294.5,447.5C 293.659,445.621 293.325,443.621 293.5,441.5C 297.167,439.5 300.833,437.5 304.5,435.5 Z"/></g>
<g><path style="opacity:0.506" fill="#f77866" d="M 349.5,437.5 C 348.7,439.607 348.033,441.774 347.5,444C 347.954,445.939 348.621,447.772 349.5,449.5C 340.24,445.615 340.24,441.615 349.5,437.5 Z"/></g>
<g><path style="opacity:1" fill="#60a4fc" d="M 293.5,441.5 C 293.325,443.621 293.659,445.621 294.5,447.5C 293.89,448.391 293.557,449.391 293.5,450.5C 292.901,453.799 291.568,456.799 289.5,459.5C 288.254,459.977 287.088,461.31 286,463.5C 285.536,462.906 285.369,462.239 285.5,461.5C 285.5,456.167 285.5,450.833 285.5,445.5C 288.45,444.692 291.117,443.358 293.5,441.5 Z"/></g>
<g><path style="opacity:1" fill="#eaf0ff" d="M 270.5,443.5 C 272.332,444.14 272.665,445.14 271.5,446.5C 270.614,445.675 270.281,444.675 270.5,443.5 Z"/></g>
<g><path style="opacity:1" fill="#e3ebff" d="M 274.5,446.5 C 277.167,447.5 277.167,448.5 274.5,449.5C 274.5,448.5 274.5,447.5 274.5,446.5 Z"/></g>
<g><path style="opacity:1" fill="#e9f0ff" d="M 293.5,450.5 C 293.557,449.391 293.89,448.391 294.5,447.5C 295.721,446.972 296.887,446.305 298,445.5C 297.848,448.163 296.348,449.83 293.5,450.5 Z"/></g>
<g><path style="opacity:1" fill="#1563fa" d="M 275.5,440.5 C 277.996,441.58 280.33,442.914 282.5,444.5C 283.391,445.11 284.391,445.443 285.5,445.5C 285.5,450.833 285.5,456.167 285.5,461.5C 284.24,461.799 283.073,461.799 282,461.5C 280.333,460.5 279,459.167 278,457.5C 277.667,457.833 277.333,458.167 277,458.5C 272.019,455.6 267.185,452.6 262.5,449.5C 266.557,450.63 270.557,451.963 274.5,453.5C 274.5,452.167 274.5,450.833 274.5,449.5C 277.167,448.5 277.167,447.5 274.5,446.5C 274.325,444.379 274.659,442.379 275.5,440.5 Z"/></g>
<g><path style="opacity:1" fill="#eff3ff" d="M 278.5,448.5 C 280.332,449.14 280.665,450.14 279.5,451.5C 278.614,450.675 278.281,449.675 278.5,448.5 Z"/></g>
<g><path style="opacity:0.806" fill="#eec5c5" d="M 430.5,461.5 C 430.631,462.376 430.298,463.043 429.5,463.5C 422.148,467.841 414.815,472.174 407.5,476.5C 404.964,475.95 402.631,476.617 400.5,478.5C 399.779,476.618 398.779,476.285 397.5,477.5C 396.167,476.833 394.833,476.167 393.5,475.5C 394.935,474.904 396.602,474.904 398.5,475.5C 398.833,475.5 399.167,475.5 399.5,475.5C 401.857,475.663 404.19,475.497 406.5,475C 414.393,470.223 422.393,465.723 430.5,461.5 Z"/></g>
<g><path style="opacity:0.088" fill="#a166a9" d="M 400.5,478.5 C 400.82,481.898 400.487,485.232 399.5,488.5C 397.906,485.015 397.24,481.348 397.5,477.5C 398.779,476.285 399.779,476.618 400.5,478.5 Z"/></g>
</svg>
