<?xml version="1.0" encoding="UTF-8"?>
<!DOCTYPE svg PUBLIC "-//W3C//DTD SVG 1.1//EN" "http://www.w3.org/Graphics/SVG/1.1/DTD/svg11.dtd">
<svg xmlns="http://www.w3.org/2000/svg" version="1.1" width="1080px" height="1080px" style="shape-rendering:geometricPrecision; text-rendering:geometricPrecision; image-rendering:optimizeQuality; fill-rule:evenodd; clip-rule:evenodd" xmlns:xlink="http://www.w3.org/1999/xlink">
<g><path style="opacity:0.93" fill="#599ffe" d="M 674.5,351.5 C 674.676,355.711 674.676,359.711 674.5,363.5C 662.742,360.274 651.242,360.94 640,365.5C 639.235,365.43 638.735,365.097 638.5,364.5C 643.936,360.393 650.102,356.393 657,352.5C 657.333,352.833 657.667,353.167 658,353.5C 658.689,352.643 659.522,351.977 660.5,351.5C 665.088,351.888 669.754,351.888 674.5,351.5 Z"/></g>
<g><path style="opacity:0.963" fill="#3d8bfe" d="M 674.5,351.5 C 684.84,351.107 694.507,354.107 703.5,360.5C 702.795,366.399 702.128,372.399 701.5,378.5C 693.565,371.696 684.565,366.696 674.5,363.5C 674.676,359.711 674.676,355.711 674.5,351.5 Z"/></g>
<g><path style="opacity:0.992" fill="#f1f4fe" d="M 674.5,363.5 C 684.565,366.696 693.565,371.696 701.5,378.5C 706.5,383.167 711.5,387.833 716.5,392.5C 724.53,403.232 731.53,414.566 737.5,426.5C 745.457,444.333 748.623,463 747,482.5C 746.58,486.955 745.747,491.288 744.5,495.5C 750.51,498.515 755.844,502.515 760.5,507.5C 763.445,511.735 766.111,516.068 768.5,520.5C 772.242,529.803 773.409,539.469 772,549.5C 770.93,553.311 769.097,556.644 766.5,559.5C 766.5,560.167 766.833,560.5 767.5,560.5C 765.813,562.166 763.813,563.5 761.5,564.5C 760.197,563.282 759.197,563.615 758.5,565.5C 754.444,565.357 750.444,564.857 746.5,564C 738.872,559.837 730.872,555.504 722.5,551C 698.494,536.403 673.161,521.57 646.5,506.5C 645.833,511.985 645.167,517.319 644.5,522.5C 644.192,516.575 644.525,510.741 645.5,505C 644.347,503.117 642.681,502.284 640.5,502.5C 640.827,512.015 640.494,521.348 639.5,530.5C 639.666,521.161 639.5,511.827 639,502.5C 636.213,500.953 633.88,498.953 632,496.5C 631.586,496.957 631.086,497.291 630.5,497.5C 629.833,508.659 629.167,519.659 628.5,530.5C 628.179,518.586 628.512,506.753 629.5,495C 628.034,494.365 626.7,493.531 625.5,492.5C 624.833,504.66 624.167,516.66 623.5,528.5C 623.667,516.162 623.5,503.829 623,491.5C 622.667,491.833 622.333,492.167 622,492.5C 619.386,490.444 616.553,488.777 613.5,487.5C 612.903,487.265 612.57,486.765 612.5,486C 613.894,482.255 614.894,478.422 615.5,474.5C 616.812,473.855 617.812,472.855 618.5,471.5C 616.276,464.984 614.61,465.317 613.5,472.5C 611.141,475.91 608.808,479.243 606.5,482.5C 606.5,481.833 606.167,481.5 605.5,481.5C 603.668,480.752 602.001,479.752 600.5,478.5C 599.5,476.833 598.167,475.5 596.5,474.5C 596.942,469.498 597.275,464.498 597.5,459.5C 597.81,458.262 598.31,458.262 599,459.5C 599.667,447.5 599.667,435.5 599,423.5C 593.946,420.273 588.779,417.273 583.5,414.5C 579.61,411.387 575.276,409.054 570.5,407.5C 570.168,419.518 570.501,431.518 571.5,443.5C 573.534,444.559 575.534,445.559 577.5,446.5C 582.833,449.833 588.167,453.167 593.5,456.5C 590.675,456.081 588.509,457.081 587,459.5C 585.243,463.102 584.076,466.768 583.5,470.5C 573.29,464.256 563.29,458.423 553.5,453C 535.86,438.824 528.527,421.158 531.5,400C 532.205,396.902 533.872,394.569 536.5,393C 536.167,392.667 535.833,392.333 535.5,392C 537.422,389.57 539.755,387.737 542.5,386.5C 542.5,387.167 542.833,387.5 543.5,387.5C 548.953,386.069 554.286,386.403 559.5,388.5C 563.078,390.075 566.411,392.075 569.5,394.5C 570.855,393.812 571.855,392.812 572.5,391.5C 575.554,389.306 578.888,387.639 582.5,386.5C 587.23,386.283 591.897,386.617 596.5,387.5C 600.979,389.24 605.313,391.24 609.5,393.5C 612.021,395.701 614.521,398.034 617,400.5C 618.618,394.489 620.118,388.489 621.5,382.5C 625.815,375.186 631.482,369.186 638.5,364.5C 638.735,365.097 639.235,365.43 640,365.5C 651.242,360.94 662.742,360.274 674.5,363.5 Z"/></g>
<g><path style="opacity:0.758" fill="#c7dbfe" d="M 515.5,364.5 C 517.708,364.041 519.874,364.041 522,364.5C 523.833,366.333 525.667,368.167 527.5,370C 528.644,373.052 528.644,376.052 527.5,379C 525.324,381.754 522.991,383.587 520.5,384.5C 519.85,384.196 519.183,383.863 518.5,383.5C 517.766,408.84 517.099,434.174 516.5,459.5C 515.58,445.999 515.58,432.332 516.5,418.5C 516.828,406.988 516.495,395.654 515.5,384.5C 517.044,380.891 517.71,377.057 517.5,373C 517.481,369.748 516.814,366.915 515.5,364.5 Z"/></g>
<g><path style="opacity:0.71" fill="#9ebcfe" d="M 515.5,364.5 C 516.814,366.915 517.481,369.748 517.5,373C 517.71,377.057 517.044,380.891 515.5,384.5C 515.167,384.5 514.833,384.5 514.5,384.5C 512.811,383.696 511.145,382.696 509.5,381.5C 508.871,379.215 507.871,376.881 506.5,374.5C 508.441,372.684 509.108,370.684 508.5,368.5C 510.429,365.716 512.762,364.383 515.5,364.5 Z"/></g>
<g><path style="opacity:0.958" fill="#2c7efe" d="M 703.5,360.5 C 707.71,362.036 710.543,364.37 712,367.5C 712.333,367.167 712.667,366.833 713,366.5C 715.191,367.833 717.024,369.5 718.5,371.5C 717.18,374.428 716.514,377.761 716.5,381.5C 716.898,385.472 716.898,389.138 716.5,392.5C 711.5,387.833 706.5,383.167 701.5,378.5C 702.128,372.399 702.795,366.399 703.5,360.5 Z"/></g>
<g><path style="opacity:0.004" fill="#0963ff" d="M 565.5,376.5 C 565.897,375.475 566.563,375.308 567.5,376C 566.906,376.464 566.239,376.631 565.5,376.5 Z"/></g>
<g><path style="opacity:0.004" fill="#0a72ff" d="M 608.5,376.5 C 607.761,376.631 607.094,376.464 606.5,376C 607.437,375.308 608.103,375.475 608.5,376.5 Z"/></g>
<g><path style="opacity:0.978" fill="#2d80ff" d="M 565.5,376.5 C 567.19,377.017 568.857,377.35 570.5,377.5C 569.897,382.619 570.564,387.285 572.5,391.5C 571.855,392.812 570.855,393.812 569.5,394.5C 566.411,392.075 563.078,390.075 559.5,388.5C 560.423,384.936 560.756,381.269 560.5,377.5C 560.082,376.778 559.416,376.278 558.5,376C 560.929,375.297 563.262,375.463 565.5,376.5 Z"/></g>
<g><path style="opacity:0.906" fill="#569dff" d="M 599.5,375.5 C 598.828,376.267 597.995,376.934 597,377.5C 596.727,381.031 596.56,384.365 596.5,387.5C 591.897,386.617 587.23,386.283 582.5,386.5C 582.5,385.5 582.5,384.5 582.5,383.5C 587.016,378.409 592.683,375.742 599.5,375.5 Z"/></g>
<g><path style="opacity:0.966" fill="#3180ff" d="M 599.5,375.5 C 602.664,375.558 605.664,376.224 608.5,377.5C 609.488,382.64 609.821,387.974 609.5,393.5C 605.313,391.24 600.979,389.24 596.5,387.5C 596.56,384.365 596.727,381.031 597,377.5C 597.995,376.934 598.828,376.267 599.5,375.5 Z"/></g>
<g><path style="opacity:0.969" fill="#1f73fe" d="M 718.5,371.5 C 722.138,375.97 726.305,379.97 731,383.5C 733.539,388.198 736.706,392.864 740.5,397.5C 738.805,406.856 737.805,416.523 737.5,426.5C 731.53,414.566 724.53,403.232 716.5,392.5C 716.898,389.138 716.898,385.472 716.5,381.5C 716.514,377.761 717.18,374.428 718.5,371.5 Z"/></g>
<g><path style="opacity:0.925" fill="#186dfe" d="M 608.5,377.5 C 608.5,377.167 608.5,376.833 608.5,376.5C 612.908,377.524 617.241,379.524 621.5,382.5C 620.118,388.489 618.618,394.489 617,400.5C 614.521,398.034 612.021,395.701 609.5,393.5C 609.821,387.974 609.488,382.64 608.5,377.5 Z"/></g>
<g><path style="opacity:0.884" fill="#4f99fe" d="M 560.5,377.5 C 560.756,381.269 560.423,384.936 559.5,388.5C 554.286,386.403 548.953,386.069 543.5,387.5C 542.833,387.5 542.5,387.167 542.5,386.5C 546.558,383.232 551.224,379.899 556.5,376.5C 557.736,377.246 559.07,377.579 560.5,377.5 Z"/></g>
<g><path style="opacity:0.958" fill="#186cfe" d="M 570.5,377.5 C 574.432,378.549 578.432,380.549 582.5,383.5C 582.5,384.5 582.5,385.5 582.5,386.5C 578.888,387.639 575.554,389.306 572.5,391.5C 570.564,387.285 569.897,382.619 570.5,377.5 Z"/></g>
<g><path style="opacity:0.991" fill="#f2f5fe" d="M 407.5,395.5 C 407.198,398.059 407.532,400.393 408.5,402.5C 409.635,404.213 411.302,404.88 413.5,404.5C 419.968,434.422 420.135,464.422 414,494.5C 407.975,493.366 406.142,495.699 408.5,501.5C 408.842,502.338 409.508,502.672 410.5,502.5C 411.278,503.156 411.944,503.989 412.5,505C 412.164,506.03 411.497,506.53 410.5,506.5C 398.5,499.833 386.5,493.167 374.5,486.5C 354.429,474.442 334.096,462.775 313.5,451.5C 317.098,448.687 320.765,445.853 324.5,443C 338.42,436.236 351.42,428.903 363.5,421C 372.536,416.52 381.203,411.52 389.5,406C 395.374,403.11 401.374,399.61 407.5,395.5 Z"/></g>
<g><path style="opacity:1" fill="#d6e4ff" d="M 670.5,406.5 C 669.922,409.28 669.255,411.947 668.5,414.5C 666.313,413.242 663.98,412.242 661.5,411.5C 660.594,410.035 659.261,409.035 657.5,408.5C 656.338,413.467 656.171,418.467 657,423.5C 658.615,424.386 660.115,425.386 661.5,426.5C 663.833,427.833 666.167,429.167 668.5,430.5C 668.918,431.222 669.584,431.722 670.5,432C 669.883,434.277 669.216,436.444 668.5,438.5C 664.85,436.528 661.184,434.528 657.5,432.5C 657.167,432.667 656.833,432.833 656.5,433C 657.846,434.669 659.513,435.836 661.5,436.5C 660.167,437.5 660.167,438.5 661.5,439.5C 659.83,439.249 658.33,438.582 657,437.5C 656.383,438.449 656.549,439.282 657.5,440C 663.194,443.179 668.861,446.345 674.5,449.5C 674.511,451.017 675.177,452.184 676.5,453C 676.272,453.399 675.938,453.565 675.5,453.5C 669.326,449.746 662.993,446.58 656.5,444C 661.19,447.677 666.19,450.844 671.5,453.5C 672.747,456.867 672.747,460.201 671.5,463.5C 665.886,460.392 660.386,457.059 655,453.5C 654.167,434.824 654.334,416.158 655.5,397.5C 660.729,400.274 665.729,403.274 670.5,406.5 Z"/></g>
<g><path style="opacity:0.991" fill="#e3ecfe" d="M 437.5,408.5 C 436.969,412.291 435.969,415.957 434.5,419.5C 434.676,422.225 436.01,423.892 438.5,424.5C 438.5,425.833 438.5,427.167 438.5,428.5C 436.326,428.75 434.659,429.75 433.5,431.5C 432.4,432.605 431.733,433.938 431.5,435.5C 429.71,439.277 428.21,443.277 427,447.5C 425.762,455.787 425.262,464.12 425.5,472.5C 420.043,475.654 420.21,478.32 426,480.5C 427.502,478.325 429.335,476.492 431.5,475C 430.748,474.329 430.414,473.496 430.5,472.5C 431.056,469.882 431.723,467.882 432.5,466.5C 432.178,470.747 433.011,474.747 435,478.5C 439.946,482.956 444.613,487.623 449,492.5C 450.568,500.172 452.068,507.838 453.5,515.5C 451.632,516.263 449.965,517.263 448.5,518.5C 443.184,521.472 437.85,524.472 432.5,527.5C 425.816,531.195 419.15,534.862 412.5,538.5C 411.812,527.932 411.145,517.265 410.5,506.5C 411.497,506.53 412.164,506.03 412.5,505C 411.944,503.989 411.278,503.156 410.5,502.5C 411.833,502.5 413.167,502.5 414.5,502.5C 414.662,500.473 414.495,498.473 414,496.5C 412.333,497.833 410.667,497.833 409,496.5C 408.506,498.134 408.34,499.801 408.5,501.5C 406.142,495.699 407.975,493.366 414,494.5C 420.135,464.422 419.968,434.422 413.5,404.5C 414.537,402.262 414.703,399.929 414,397.5C 412.333,398.833 410.667,398.833 409,397.5C 408.506,399.134 408.34,400.801 408.5,402.5C 407.532,400.393 407.198,398.059 407.5,395.5C 408.594,394.418 409.927,393.752 411.5,393.5C 420.45,398.958 429.117,403.958 437.5,408.5 Z"/></g>
<g><path style="opacity:1" fill="#68a2ff" d="M 413.5,404.5 C 411.302,404.88 409.635,404.213 408.5,402.5C 408.34,400.801 408.506,399.134 409,397.5C 410.667,398.833 412.333,398.833 414,397.5C 414.703,399.929 414.537,402.262 413.5,404.5 Z"/></g>
<g><path style="opacity:0.062" fill="#eff5ff" d="M 514.5,384.5 C 514.833,384.5 515.167,384.5 515.5,384.5C 516.495,395.654 516.828,406.988 516.5,418.5C 515.698,417.048 515.198,415.382 515,413.5C 514.5,403.839 514.334,394.172 514.5,384.5 Z"/></g>
<g><path style="opacity:0.969" fill="#1167fe" d="M 740.5,397.5 C 744.798,403.258 748.465,409.425 751.5,416C 752.166,417.66 752.166,419.494 751.5,421.5C 750.21,444.526 750.21,467.526 751.5,490.5C 749.45,492.547 747.117,494.214 744.5,495.5C 745.747,491.288 746.58,486.955 747,482.5C 748.623,463 745.457,444.333 737.5,426.5C 737.805,416.523 738.805,406.856 740.5,397.5 Z"/></g>
<g><path style="opacity:0.9" fill="#0d2861" d="M 451.5,416.5 C 448.821,417.226 446.154,418.059 443.5,419C 442.809,420.067 442.309,421.234 442,422.5C 441.692,421.692 441.192,421.025 440.5,420.5C 439.828,421.949 439.161,423.282 438.5,424.5C 436.01,423.892 434.676,422.225 434.5,419.5C 435.969,415.957 436.969,412.291 437.5,408.5C 441.608,406.937 445.941,407.437 450.5,410C 452.608,412.016 452.942,414.183 451.5,416.5 Z"/></g>
<g><path style="opacity:1" fill="#589eff" d="M 661.5,411.5 C 661.5,416.5 661.5,421.5 661.5,426.5C 660.115,425.386 658.615,424.386 657,423.5C 656.171,418.467 656.338,413.467 657.5,408.5C 659.261,409.035 660.594,410.035 661.5,411.5 Z"/></g>
<g><path style="opacity:1" fill="#b7d0ff" d="M 670.5,406.5 C 674.864,408.344 678.864,410.677 682.5,413.5C 681.815,425.735 681.148,438.068 680.5,450.5C 673.668,447.588 667.334,443.921 661.5,439.5C 660.167,438.5 660.167,437.5 661.5,436.5C 666.34,439.587 671.34,442.087 676.5,444C 673.941,441.897 671.274,440.064 668.5,438.5C 669.216,436.444 669.883,434.277 670.5,432C 669.584,431.722 668.918,431.222 668.5,430.5C 669.802,425.266 669.802,419.933 668.5,414.5C 669.255,411.947 669.922,409.28 670.5,406.5 Z"/></g>
<g><path style="opacity:1" fill="#2979ff" d="M 661.5,411.5 C 663.98,412.242 666.313,413.242 668.5,414.5C 669.802,419.933 669.802,425.266 668.5,430.5C 666.167,429.167 663.833,427.833 661.5,426.5C 661.5,421.5 661.5,416.5 661.5,411.5 Z"/></g>
<g><path style="opacity:1" fill="#a8c6ff" d="M 682.5,413.5 C 685.032,414.596 687.365,415.929 689.5,417.5C 688.821,435.735 688.154,454.069 687.5,472.5C 682.167,469.5 676.833,466.5 671.5,463.5C 672.747,460.201 672.747,456.867 671.5,453.5C 676.139,456.155 680.806,458.821 685.5,461.5C 686.833,460.833 686.833,460.167 685.5,459.5C 681.865,457.835 678.531,455.835 675.5,453.5C 675.938,453.565 676.272,453.399 676.5,453C 675.177,452.184 674.511,451.017 674.5,449.5C 676.46,451.484 678.793,452.317 681.5,452C 680.944,451.617 680.611,451.117 680.5,450.5C 681.148,438.068 681.815,425.735 682.5,413.5 Z"/></g>
<g><path style="opacity:1" fill="#a6c4fe" d="M 583.5,414.5 C 588.779,417.273 593.946,420.273 599,423.5C 599.667,435.5 599.667,447.5 599,459.5C 598.31,458.262 597.81,458.262 597.5,459.5C 596.128,458.488 594.795,457.488 593.5,456.5C 588.167,453.167 582.833,449.833 577.5,446.5C 577.5,444.167 577.5,441.833 577.5,439.5C 580.312,441.408 583.312,443.075 586.5,444.5C 587.696,444.154 587.696,443.654 586.5,443C 584.668,442.252 583.001,441.252 581.5,440C 583.163,439.735 584.663,440.235 586,441.5C 586.167,441.167 586.333,440.833 586.5,440.5C 583.167,438.5 579.833,436.5 576.5,434.5C 576.167,434.667 575.833,434.833 575.5,435C 580.513,437.749 580.513,438.582 575.5,437.5C 574.244,437.539 573.244,437.039 572.5,436C 572.952,434.388 574.285,433.388 576.5,433C 571.063,429.479 571.229,428.979 577,431.5C 577.49,430.207 577.657,428.873 577.5,427.5C 578.391,428.11 579.391,428.443 580.5,428.5C 580.919,424.168 581.919,419.501 583.5,414.5 Z"/></g>
<g><path style="opacity:1" fill="#97bbff" d="M 689.5,417.5 C 692.634,418.901 695.634,420.568 698.5,422.5C 699.666,441.491 699.833,460.491 699,479.5C 695.222,477.03 691.389,474.697 687.5,472.5C 688.154,454.069 688.821,435.735 689.5,417.5 Z"/></g>
<g><path style="opacity:0.932" fill="#055ffe" d="M 751.5,421.5 C 752.75,421.577 753.583,422.244 754,423.5C 755.452,426.737 756.619,430.07 757.5,433.5C 756.098,434.842 756.431,435.676 758.5,436C 758.167,436.333 757.833,436.667 757.5,437C 759.392,439.673 759.725,442.34 758.5,445C 759.428,445.388 760.095,446.055 760.5,447C 760.745,451.789 760.745,456.623 760.5,461.5C 763.167,463.833 763.167,466.167 760.5,468.5C 761.824,471.198 761.824,473.864 760.5,476.5C 759.265,478.017 759.265,479.684 760.5,481.5C 759.82,482.86 759.153,484.193 758.5,485.5C 756.469,487.522 754.135,489.189 751.5,490.5C 750.21,467.526 750.21,444.526 751.5,421.5 Z"/></g>
<g><path style="opacity:1" fill="#fba6a9" d="M 451.5,416.5 C 451.5,416.833 451.5,417.167 451.5,417.5C 450.462,420.429 449.296,423.429 448,426.5C 446.89,428.037 445.39,428.703 443.5,428.5C 443.263,429.791 443.596,430.791 444.5,431.5C 444.5,432.833 444.5,434.167 444.5,435.5C 443.833,435.5 443.167,435.5 442.5,435.5C 440.929,433.365 439.596,431.032 438.5,428.5C 438.5,427.167 438.5,425.833 438.5,424.5C 439.161,423.282 439.828,421.949 440.5,420.5C 441.192,421.025 441.692,421.692 442,422.5C 442.309,421.234 442.809,420.067 443.5,419C 446.154,418.059 448.821,417.226 451.5,416.5 Z"/></g>
<g><path style="opacity:0.982" fill="#c5d9fe" d="M 451.5,417.5 C 466.188,425.796 481.355,434.462 497,443.5C 498.667,443.167 500.333,442.833 502,442.5C 504.012,443.566 504.512,444.9 503.5,446.5C 501.621,447.341 499.621,447.675 497.5,447.5C 497.34,449.199 497.506,450.866 498,452.5C 499.333,453.833 500.667,453.833 502,452.5C 502.352,450.753 502.852,449.086 503.5,447.5C 505.674,447.75 507.341,448.75 508.5,450.5C 495.028,459.622 481.028,467.955 466.5,475.5C 464.5,474.167 462.833,472.5 461.5,470.5C 465.833,470.833 467.833,468.833 467.5,464.5C 465.708,464.634 464.042,464.301 462.5,463.5C 459.98,450.423 454.146,439.09 445,429.5C 444.536,430.094 444.369,430.761 444.5,431.5C 443.596,430.791 443.263,429.791 443.5,428.5C 445.39,428.703 446.89,428.037 448,426.5C 449.296,423.429 450.462,420.429 451.5,417.5 Z"/></g>
<g><path style="opacity:1" fill="#2879ff" d="M 433.5,431.5 C 434.822,431.33 435.989,431.663 437,432.5C 437.498,435.817 437.665,439.15 437.5,442.5C 436.167,445.768 434.334,448.768 432,451.5C 431.501,446.177 431.334,440.844 431.5,435.5C 431.733,433.938 432.4,432.605 433.5,431.5 Z"/></g>
<g><path style="opacity:1" fill="#dae6fe" d="M 583.5,414.5 C 581.919,419.501 580.919,424.168 580.5,428.5C 581.899,422.151 579.566,418.151 573.5,416.5C 571.242,421.67 572.576,425.337 577.5,427.5C 577.657,428.873 577.49,430.207 577,431.5C 571.229,428.979 571.063,429.479 576.5,433C 574.285,433.388 572.952,434.388 572.5,436C 573.244,437.039 574.244,437.539 575.5,437.5C 575.833,438.5 576.5,439.167 577.5,439.5C 577.5,441.833 577.5,444.167 577.5,446.5C 575.534,445.559 573.534,444.559 571.5,443.5C 570.501,431.518 570.168,419.518 570.5,407.5C 575.276,409.054 579.61,411.387 583.5,414.5 Z"/></g>
<g><path style="opacity:1" fill="#af27f3" d="M 580.5,428.5 C 579.391,428.443 578.391,428.11 577.5,427.5C 572.576,425.337 571.242,421.67 573.5,416.5C 579.566,418.151 581.899,422.151 580.5,428.5 Z"/></g>
<g><path style="opacity:1" fill="#4890fc" d="M 438.5,428.5 C 439.596,431.032 440.929,433.365 442.5,435.5C 441.167,443.183 441.334,450.849 443,458.5C 444,459.833 445,461.167 446,462.5C 446.232,461.263 446.732,460.263 447.5,459.5C 447.5,460.833 447.5,462.167 447.5,463.5C 444.782,464.043 442.115,464.709 439.5,465.5C 439.666,457.493 439.5,449.493 439,441.5C 438.617,442.056 438.117,442.389 437.5,442.5C 437.665,439.15 437.498,435.817 437,432.5C 435.989,431.663 434.822,431.33 433.5,431.5C 434.659,429.75 436.326,428.75 438.5,428.5 Z"/></g>
<g><path style="opacity:1" fill="#7ba9ff" d="M 577.5,439.5 C 576.5,439.167 575.833,438.5 575.5,437.5C 580.513,438.582 580.513,437.749 575.5,435C 575.833,434.833 576.167,434.667 576.5,434.5C 579.833,436.5 583.167,438.5 586.5,440.5C 586.333,440.833 586.167,441.167 586,441.5C 584.663,440.235 583.163,439.735 581.5,440C 583.001,441.252 584.668,442.252 586.5,443C 587.696,443.654 587.696,444.154 586.5,444.5C 583.312,443.075 580.312,441.408 577.5,439.5 Z"/></g>
<g><path style="opacity:1" fill="#4a8bff" d="M 668.5,438.5 C 671.274,440.064 673.941,441.897 676.5,444C 671.34,442.087 666.34,439.587 661.5,436.5C 659.513,435.836 657.846,434.669 656.5,433C 656.833,432.833 657.167,432.667 657.5,432.5C 661.184,434.528 664.85,436.528 668.5,438.5 Z"/></g>
<g><path style="opacity:1" fill="#4b8bff" d="M 661.5,439.5 C 667.334,443.921 673.668,447.588 680.5,450.5C 680.611,451.117 680.944,451.617 681.5,452C 678.793,452.317 676.46,451.484 674.5,449.5C 668.861,446.345 663.194,443.179 657.5,440C 656.549,439.282 656.383,438.449 657,437.5C 658.33,438.582 659.83,439.249 661.5,439.5 Z"/></g>
<g><path style="opacity:0.997" fill="#3f83ff" d="M 503.5,446.5 C 503.5,446.833 503.5,447.167 503.5,447.5C 502.852,449.086 502.352,450.753 502,452.5C 500.667,453.833 499.333,453.833 498,452.5C 497.506,450.866 497.34,449.199 497.5,447.5C 499.621,447.675 501.621,447.341 503.5,446.5 Z"/></g>
<g><path style="opacity:1" fill="#4486ff" d="M 322.5,447.5 C 324.339,448.752 326.172,448.752 328,447.5C 328.758,449.769 328.591,451.936 327.5,454C 326.101,454.595 324.768,454.428 323.5,453.5C 322.534,451.604 322.201,449.604 322.5,447.5 Z"/></g>
<g><path style="opacity:1" fill="#2474fe" d="M 462.5,463.5 C 460.451,464.641 458.451,464.641 456.5,463.5C 453.5,463.5 450.5,463.5 447.5,463.5C 447.5,462.167 447.5,460.833 447.5,459.5C 445.229,451.676 444.229,443.676 444.5,435.5C 444.5,434.167 444.5,432.833 444.5,431.5C 444.369,430.761 444.536,430.094 445,429.5C 454.146,439.09 459.98,450.423 462.5,463.5 Z"/></g>
<g><path style="opacity:0.004" fill="#0957ff" d="M 760.5,449.5 C 761.573,450.251 761.74,451.251 761,452.5C 760.517,451.552 760.351,450.552 760.5,449.5 Z"/></g>
<g><path style="opacity:1" fill="#559cfe" d="M 431.5,435.5 C 431.334,440.844 431.501,446.177 432,451.5C 434.334,448.768 436.167,445.768 437.5,442.5C 438.117,442.389 438.617,442.056 439,441.5C 439.5,449.493 439.666,457.493 439.5,465.5C 437.194,465.993 434.861,466.326 432.5,466.5C 431.723,467.882 431.056,469.882 430.5,472.5C 428.833,472.5 427.167,472.5 425.5,472.5C 425.262,464.12 425.762,455.787 427,447.5C 428.21,443.277 429.71,439.277 431.5,435.5 Z"/></g>
<g><path style="opacity:1" fill="#92bbfe" d="M 442.5,435.5 C 443.167,435.5 443.833,435.5 444.5,435.5C 444.229,443.676 445.229,451.676 447.5,459.5C 446.732,460.263 446.232,461.263 446,462.5C 445,461.167 444,459.833 443,458.5C 441.334,450.849 441.167,443.183 442.5,435.5 Z"/></g>
<g><path style="opacity:1" fill="#4d8dff" d="M 675.5,453.5 C 678.531,455.835 681.865,457.835 685.5,459.5C 686.833,460.167 686.833,460.833 685.5,461.5C 680.806,458.821 676.139,456.155 671.5,453.5C 666.19,450.844 661.19,447.677 656.5,444C 662.993,446.58 669.326,449.746 675.5,453.5 Z"/></g>
<g><path style="opacity:1" fill="#d7e3fd" d="M 508.5,450.5 C 509.117,450.611 509.617,450.944 510,451.5C 510.5,462.161 510.667,472.828 510.5,483.5C 505.592,485.287 500.925,487.621 496.5,490.5C 492.882,492.137 489.549,494.137 486.5,496.5C 482.007,498.579 477.674,500.912 473.5,503.5C 472.82,493.703 470.486,484.37 466.5,475.5C 481.028,467.955 495.028,459.622 508.5,450.5 Z"/></g>
<g><path style="opacity:0.985" fill="#082a63" d="M 593.5,456.5 C 594.795,457.488 596.128,458.488 597.5,459.5C 597.275,464.498 596.942,469.498 596.5,474.5C 599.226,481.445 596.892,484.112 589.5,482.5C 586.474,481.118 583.474,479.785 580.5,478.5C 580.394,475.385 581.394,472.719 583.5,470.5C 584.076,466.768 585.243,463.102 587,459.5C 588.509,457.081 590.675,456.081 593.5,456.5 Z"/></g>
<g><path style="opacity:0.254" fill="#b1ceff" d="M 520.5,384.5 C 520.908,396.175 520.242,407.675 518.5,419C 519.111,441.024 519.444,463.024 519.5,485C 519.022,490.308 518.188,495.474 517,500.5C 516.5,486.837 516.333,473.171 516.5,459.5C 517.099,434.174 517.766,408.84 518.5,383.5C 519.183,383.863 519.85,384.196 520.5,384.5 Z"/></g>
<g><path style="opacity:1" fill="#e2ebfe" d="M 313.5,451.5 C 334.096,462.775 354.429,474.442 374.5,486.5C 373.67,495.658 373.17,504.991 373,514.5C 371.16,512.51 369.993,512.51 369.5,514.5C 366.352,513.424 363.352,512.091 360.5,510.5C 355.498,506.997 350.165,503.997 344.5,501.5C 339.335,497.414 333.668,494.08 327.5,491.5C 323.167,488.331 318.5,485.664 313.5,483.5C 313.167,483.5 312.833,483.5 312.5,483.5C 312.172,472.654 312.506,461.987 313.5,451.5 Z"/></g>
<g><path style="opacity:1" fill="#f7adb3" d="M 456.5,463.5 C 458.451,464.641 460.451,464.641 462.5,463.5C 464.042,464.301 465.708,464.634 467.5,464.5C 467.833,468.833 465.833,470.833 461.5,470.5C 459.42,468.427 457.754,466.093 456.5,463.5 Z"/></g>
<g><path style="opacity:1" fill="#faafb3" d="M 615.5,474.5 C 615.5,473.167 614.833,472.5 613.5,472.5C 614.61,465.317 616.276,464.984 618.5,471.5C 617.812,472.855 616.812,473.855 615.5,474.5 Z"/></g>
<g><path style="opacity:1" fill="#de28fb" d="M 649.5,469.5 C 647.621,474.87 646.955,480.537 647.5,486.5C 643.145,484.571 638.979,482.238 635,479.5C 634.333,473.167 634.333,466.833 635,460.5C 639.981,463.4 644.815,466.4 649.5,469.5 Z"/></g>
<g><path style="opacity:1" fill="#fd5556" d="M 496.5,470.5 C 497.5,470.5 498.5,470.5 499.5,470.5C 500.113,474.512 498.446,476.512 494.5,476.5C 494.253,474.142 494.919,472.142 496.5,470.5 Z"/></g>
<g><path style="opacity:1" fill="#fdadb0" d="M 425.5,472.5 C 427.167,472.5 428.833,472.5 430.5,472.5C 430.414,473.496 430.748,474.329 431.5,475C 429.335,476.492 427.502,478.325 426,480.5C 420.21,478.32 420.043,475.654 425.5,472.5 Z"/></g>
<g><path style="opacity:1" fill="#fd6969" d="M 487.5,475.5 C 491.82,475.959 492.487,477.792 489.5,481C 488.552,481.483 487.552,481.649 486.5,481.5C 486.517,479.435 486.85,477.435 487.5,475.5 Z"/></g>
<g><path style="opacity:1" fill="#bd21f6" d="M 649.5,469.5 C 654.841,472.503 660.175,475.503 665.5,478.5C 664.5,478.5 663.5,478.5 662.5,478.5C 662.617,484.377 662.617,490.044 662.5,495.5C 657.299,492.737 652.299,489.737 647.5,486.5C 646.955,480.537 647.621,474.87 649.5,469.5 Z"/></g>
<g><path style="opacity:0.004" fill="#0154ff" d="M 760.5,476.5 C 761.573,477.251 761.74,478.251 761,479.5C 760.517,478.552 760.351,477.552 760.5,476.5 Z"/></g>
<g><path style="opacity:1" fill="#5c9dff" d="M 336.5,478.5 C 335.596,479.209 335.263,480.209 335.5,481.5C 332.659,480.759 330.659,479.092 329.5,476.5C 329.833,475.833 330.167,475.167 330.5,474.5C 332.565,475.857 334.565,477.19 336.5,478.5 Z"/></g>
<g><path style="opacity:1" fill="#06306c" d="M 447.5,463.5 C 450.5,463.5 453.5,463.5 456.5,463.5C 457.754,466.093 459.42,468.427 461.5,470.5C 462.833,472.5 464.5,474.167 466.5,475.5C 470.486,484.37 472.82,493.703 473.5,503.5C 472.925,508.238 474.592,511.905 478.5,514.5C 478.5,515.833 478.5,517.167 478.5,518.5C 472.253,517.072 467.587,513.739 464.5,508.5C 464.563,500.65 463.397,492.983 461,485.5C 458,481.167 454.333,477.5 450,474.5C 452.864,479.902 455.53,485.569 458,491.5C 459.215,497.845 460.382,504.178 461.5,510.5C 461.181,517.173 463.347,522.84 468,527.5C 468.483,528.448 468.649,529.448 468.5,530.5C 467.167,530.5 465.833,530.5 464.5,530.5C 461.393,528.772 458.393,526.772 455.5,524.5C 454.511,521.562 453.844,518.562 453.5,515.5C 452.068,507.838 450.568,500.172 449,492.5C 444.613,487.623 439.946,482.956 435,478.5C 433.011,474.747 432.178,470.747 432.5,466.5C 434.861,466.326 437.194,465.993 439.5,465.5C 442.115,464.709 444.782,464.043 447.5,463.5 Z"/></g>
<g><path style="opacity:1" fill="#2672ff" d="M 336.5,478.5 C 340.176,479.232 341.176,481.232 339.5,484.5C 338.099,483.479 336.765,482.479 335.5,481.5C 335.263,480.209 335.596,479.209 336.5,478.5 Z"/></g>
<g><path style="opacity:1" fill="#cedbf4" d="M 464.5,508.5 C 463.71,509.401 462.71,510.068 461.5,510.5C 460.382,504.178 459.215,497.845 458,491.5C 455.53,485.569 452.864,479.902 450,474.5C 454.333,477.5 458,481.167 461,485.5C 463.397,492.983 464.563,500.65 464.5,508.5 Z"/></g>
<g><path style="opacity:0.967" fill="#4d7bf9" d="M 580.5,479.5 C 580.833,480.833 581.167,480.833 581.5,479.5C 582.255,482.053 582.922,484.72 583.5,487.5C 582.833,490.167 582.167,492.833 581.5,495.5C 580.887,491.063 580.22,486.73 579.5,482.5C 579.263,481.209 579.596,480.209 580.5,479.5 Z"/></g>
<g><path style="opacity:1" fill="#5299fc" d="M 580.5,479.5 C 580.5,479.167 580.5,478.833 580.5,478.5C 583.474,479.785 586.474,481.118 589.5,482.5C 590.263,483.268 591.263,483.768 592.5,484C 591.514,494.084 591.181,504.251 591.5,514.5C 589.708,514.634 588.042,514.301 586.5,513.5C 585.315,512.143 584.315,510.643 583.5,509C 586.953,504.512 587.287,499.845 584.5,495C 587.369,491.89 587.035,489.39 583.5,487.5C 582.922,484.72 582.255,482.053 581.5,479.5C 581.167,479.5 580.833,479.5 580.5,479.5 Z"/></g>
<g><path style="opacity:1" fill="#fd5554" d="M 479.5,480.5 C 480.5,480.5 481.5,480.5 482.5,480.5C 482.66,482.199 482.494,483.866 482,485.5C 479.833,487 478.333,486.5 477.5,484C 477.978,482.697 478.645,481.531 479.5,480.5 Z"/></g>
<g><path style="opacity:0.877" fill="#0964ff" d="M 510.5,483.5 C 510.5,494.167 510.5,504.833 510.5,515.5C 505.783,516.692 501.45,518.692 497.5,521.5C 496.264,517.299 496.264,512.965 497.5,508.5C 499.28,507.01 499.946,505.01 499.5,502.5C 499.189,501.522 498.522,500.855 497.5,500.5C 496.728,497.017 496.394,493.684 496.5,490.5C 500.925,487.621 505.592,485.287 510.5,483.5 Z"/></g>
<g><path style="opacity:0.784" fill="#61a2fd" d="M 579.5,482.5 C 580.22,486.73 580.887,491.063 581.5,495.5C 578.459,495.621 576.792,494.121 576.5,491C 576.675,488.092 577.675,485.259 579.5,482.5 Z"/></g>
<g><path style="opacity:1" fill="#9d16f0" d="M 665.5,478.5 C 669.535,480.848 673.535,483.182 677.5,485.5C 676.51,491.31 676.177,497.31 676.5,503.5C 671.576,501.233 666.909,498.567 662.5,495.5C 662.617,490.044 662.617,484.377 662.5,478.5C 663.5,478.5 664.5,478.5 665.5,478.5 Z"/></g>
<g><path style="opacity:0.98" fill="#4e98fe" d="M 758.5,485.5 C 759.167,485.5 759.5,485.833 759.5,486.5C 760.462,493.412 760.795,500.412 760.5,507.5C 755.844,502.515 750.51,498.515 744.5,495.5C 747.117,494.214 749.45,492.547 751.5,490.5C 754.135,489.189 756.469,487.522 758.5,485.5 Z"/></g>
<g><path style="opacity:1" fill="#62a7fe" d="M 313.5,483.5 C 318.5,485.664 323.167,488.331 327.5,491.5C 327.5,501.833 327.5,512.167 327.5,522.5C 323.061,520.446 318.728,518.113 314.5,515.5C 313.501,504.854 313.168,494.187 313.5,483.5 Z"/></g>
<g><path style="opacity:0.999" fill="#d7e3fd" d="M 374.5,486.5 C 386.5,493.167 398.5,499.833 410.5,506.5C 411.145,517.265 411.812,527.932 412.5,538.5C 412.5,539.167 412.167,539.5 411.5,539.5C 407.833,537.5 404.167,535.5 400.5,533.5C 391.5,527.664 382.167,522.331 372.5,517.5C 371.306,516.728 370.306,515.728 369.5,514.5C 369.993,512.51 371.16,512.51 373,514.5C 373.17,504.991 373.67,495.658 374.5,486.5 Z"/></g>
<g><path style="opacity:0.956" fill="#3786fe" d="M 759.5,486.5 C 762.148,486.738 763.982,488.072 765,490.5C 766.958,490.209 768.458,491.209 769.5,493.5C 769.804,502.584 769.471,511.584 768.5,520.5C 766.111,516.068 763.445,511.735 760.5,507.5C 760.795,500.412 760.462,493.412 759.5,486.5 Z"/></g>
<g><path style="opacity:1" fill="#7c0ceb" d="M 677.5,485.5 C 682.055,488.029 686.555,490.696 691,493.5C 691.667,499.833 691.667,506.167 691,512.5C 686.019,509.6 681.185,506.6 676.5,503.5C 676.177,497.31 676.51,491.31 677.5,485.5 Z"/></g>
<g><path style="opacity:1" fill="#196dfe" d="M 496.5,490.5 C 496.394,493.684 496.728,497.017 497.5,500.5C 498.522,500.855 499.189,501.522 499.5,502.5C 495.686,502.651 494.019,504.651 494.5,508.5C 495.5,508.5 496.5,508.5 497.5,508.5C 496.264,512.965 496.264,517.299 497.5,521.5C 494.001,523.75 490.335,525.75 486.5,527.5C 485.322,523.111 485.322,518.444 486.5,513.5C 491.346,513.047 492.346,511.047 489.5,507.5C 488.817,507.863 488.15,508.196 487.5,508.5C 486.883,508.389 486.383,508.056 486,507.5C 485.322,503.779 485.489,500.112 486.5,496.5C 489.549,494.137 492.882,492.137 496.5,490.5 Z"/></g>
<g><path style="opacity:0.668" fill="#d5e6fe" d="M 628.5,530.5 C 627.044,533.535 624.877,534.869 622,534.5C 617.536,538.167 612.703,541.5 607.5,544.5C 606.914,544.291 606.414,543.957 606,543.5C 605.578,545.426 604.411,546.426 602.5,546.5C 601.258,544.611 601.258,542.611 602.5,540.5C 603.847,539.829 605.014,539.829 606,540.5C 609.274,537.356 612.941,534.689 617,532.5C 617.333,532.833 617.667,533.167 618,533.5C 619.491,531.406 621.324,529.739 623.5,528.5C 624.167,516.66 624.833,504.66 625.5,492.5C 626.7,493.531 628.034,494.365 629.5,495C 628.512,506.753 628.179,518.586 628.5,530.5 Z"/></g>
<g><path style="opacity:1" fill="#3e8afd" d="M 596.5,474.5 C 598.167,475.5 599.5,476.833 600.5,478.5C 599.674,482.982 599.174,487.649 599,492.5C 598.308,493.025 597.808,493.692 597.5,494.5C 598.57,497.867 599.903,501.034 601.5,504C 599.52,507.047 599.186,510.213 600.5,513.5C 597.609,514.403 594.609,514.736 591.5,514.5C 591.181,504.251 591.514,494.084 592.5,484C 591.263,483.768 590.263,483.268 589.5,482.5C 596.892,484.112 599.226,481.445 596.5,474.5 Z"/></g>
<g><path style="opacity:1" fill="#549cff" d="M 327.5,491.5 C 333.668,494.08 339.335,497.414 344.5,501.5C 343.833,511.5 343.167,521.5 342.5,531.5C 337.299,528.737 332.299,525.737 327.5,522.5C 327.5,512.167 327.5,501.833 327.5,491.5 Z"/></g>
<g><path style="opacity:1" fill="#2778fd" d="M 486.5,496.5 C 485.489,500.112 485.322,503.779 486,507.5C 486.383,508.056 486.883,508.389 487.5,508.5C 486.699,510.042 486.366,511.708 486.5,513.5C 485.322,518.444 485.322,523.111 486.5,527.5C 479.167,532.167 471.833,536.833 464.5,541.5C 463.833,541.5 463.167,541.5 462.5,541.5C 461.92,537.351 462.586,533.684 464.5,530.5C 465.833,530.5 467.167,530.5 468.5,530.5C 468.649,529.448 468.483,528.448 468,527.5C 463.347,522.84 461.181,517.173 461.5,510.5C 462.71,510.068 463.71,509.401 464.5,508.5C 467.587,513.739 472.253,517.072 478.5,518.5C 482.068,518.241 483.401,516.241 482.5,512.5C 480.62,512.229 479.287,512.896 478.5,514.5C 474.592,511.905 472.925,508.238 473.5,503.5C 477.674,500.912 482.007,498.579 486.5,496.5 Z"/></g>
<g><path style="opacity:1" fill="#3f86ff" d="M 410.5,502.5 C 409.508,502.672 408.842,502.338 408.5,501.5C 408.34,499.801 408.506,498.134 409,496.5C 410.667,497.833 412.333,497.833 414,496.5C 414.495,498.473 414.662,500.473 414.5,502.5C 413.167,502.5 411.833,502.5 410.5,502.5 Z"/></g>
<g><path style="opacity:0.819" fill="#2776fe" d="M 613.5,472.5 C 614.833,472.5 615.5,473.167 615.5,474.5C 614.894,478.422 613.894,482.255 612.5,486C 612.57,486.765 612.903,487.265 613.5,487.5C 612.371,490.069 610.704,492.235 608.5,494C 607.256,494.456 606.423,493.956 606,492.5C 605.667,492.833 605.333,493.167 605,493.5C 604.002,490.972 603.169,490.972 602.5,493.5C 603.552,495.223 603.552,496.89 602.5,498.5C 602.846,499.696 603.346,499.696 604,498.5C 604.436,500.847 604.936,503.181 605.5,505.5C 604.382,508.155 604.382,510.822 605.5,513.5C 603.766,512.438 602.099,512.438 600.5,513.5C 599.186,510.213 599.52,507.047 601.5,504C 599.903,501.034 598.57,497.867 597.5,494.5C 597.808,493.692 598.308,493.025 599,492.5C 599.174,487.649 599.674,482.982 600.5,478.5C 602.001,479.752 603.668,480.752 605.5,481.5C 606.167,481.5 606.5,481.833 606.5,482.5C 608.808,479.243 611.141,475.91 613.5,472.5 Z"/></g>
<g><path style="opacity:0.99" fill="#2c4ad6" d="M 583.5,487.5 C 587.035,489.39 587.369,491.89 584.5,495C 587.287,499.845 586.953,504.512 583.5,509C 584.315,510.643 585.315,512.143 586.5,513.5C 584.565,512.85 582.565,512.517 580.5,512.5C 580.018,511.584 579.685,510.584 579.5,509.5C 580.4,507.761 581.067,505.928 581.5,504C 580.358,500.79 580.358,497.956 581.5,495.5C 582.167,492.833 582.833,490.167 583.5,487.5 Z"/></g>
<g><path style="opacity:1" fill="#d3e0ff" d="M 499.5,502.5 C 499.946,505.01 499.28,507.01 497.5,508.5C 496.5,508.5 495.5,508.5 494.5,508.5C 494.019,504.651 495.686,502.651 499.5,502.5 Z"/></g>
<g><path style="opacity:0.004" fill="#0f32c9" d="M 579.5,502.5 C 580.573,503.251 580.74,504.251 580,505.5C 579.517,504.552 579.351,503.552 579.5,502.5 Z"/></g>
<g><path style="opacity:0.962" fill="#1b71fe" d="M 769.5,493.5 C 774.603,497.039 778.269,501.705 780.5,507.5C 779.833,507.5 779.5,507.833 779.5,508.5C 779.796,521.87 779.463,535.37 778.5,549C 779.044,549.717 779.711,550.217 780.5,550.5C 775.839,552.792 771.506,556.126 767.5,560.5C 766.833,560.5 766.5,560.167 766.5,559.5C 769.097,556.644 770.93,553.311 772,549.5C 773.409,539.469 772.242,529.803 768.5,520.5C 769.471,511.584 769.804,502.584 769.5,493.5 Z"/></g>
<g><path style="opacity:1" fill="#fd6162" d="M 380.5,502.5 C 383.987,503.445 385.32,505.778 384.5,509.5C 380.322,508.812 378.989,506.478 380.5,502.5 Z"/></g>
<g><path style="opacity:0.557" fill="#d5e4fe" d="M 291.5,504.5 C 295.68,505.187 298.347,508.021 299.5,513C 300.076,518.943 297.409,523.11 291.5,525.5C 291.5,518.5 291.5,511.5 291.5,504.5 Z"/></g>
<g><path style="opacity:1" fill="#d4e3ff" d="M 329.5,506.5 C 332.94,508.055 336.273,509.888 339.5,512C 340.554,513.388 340.72,514.888 340,516.5C 336.752,514.793 333.585,512.96 330.5,511C 329.62,509.644 329.286,508.144 329.5,506.5 Z"/></g>
<g><path style="opacity:1" fill="#408dfe" d="M 344.5,501.5 C 350.165,503.997 355.498,506.997 360.5,510.5C 359.55,520.863 359.217,531.197 359.5,541.5C 353.811,538.131 348.144,534.798 342.5,531.5C 343.167,521.5 343.833,511.5 344.5,501.5 Z"/></g>
<g><path style="opacity:1" fill="#4888ff" d="M 436.5,506.5 C 437.788,508.035 437.788,509.701 436.5,511.5C 433.339,512.913 430.339,514.58 427.5,516.5C 426.386,515.277 426.219,513.944 427,512.5C 430.485,510.85 433.651,508.85 436.5,506.5 Z"/></g>
<g><path style="opacity:1" fill="#dbe7ff" d="M 486.5,513.5 C 486.366,511.708 486.699,510.042 487.5,508.5C 488.15,508.196 488.817,507.863 489.5,507.5C 492.346,511.047 491.346,513.047 486.5,513.5 Z"/></g>
<g><path style="opacity:1" fill="#fc3033" d="M 719.5,508.5 C 719.5,509.167 719.833,509.5 720.5,509.5C 720.795,511.735 720.461,513.735 719.5,515.5C 718.252,514.666 717.585,513.333 717.5,511.5C 717.667,510.167 717.833,508.833 718,507.5C 718.383,508.056 718.883,508.389 719.5,508.5 Z"/></g>
<g><path style="opacity:1" fill="#b8d0fe" d="M 732.5,510.5 C 732.5,517.167 732.5,523.833 732.5,530.5C 730.571,530.769 728.905,530.269 727.5,529C 728.167,528.667 728.833,528.333 729.5,528C 727.833,527 726.167,526 724.5,525C 725.167,524.667 725.833,524.333 726.5,524C 724.804,522.824 723.138,521.657 721.5,520.5C 721.5,519.5 721.5,518.5 721.5,517.5C 722.725,516.848 723.392,515.681 723.5,514C 723.453,511.744 722.453,510.244 720.5,509.5C 719.833,509.5 719.5,509.167 719.5,508.5C 721.176,507.817 721.843,506.483 721.5,504.5C 723.308,504.491 724.975,504.991 726.5,506C 728.747,507.277 730.747,508.777 732.5,510.5 Z"/></g>
<g><path style="opacity:1" fill="#ff5856" d="M 388.5,508.5 C 392.485,508.629 393.818,510.463 392.5,514C 389.223,513.862 387.889,512.029 388.5,508.5 Z"/></g>
<g><path style="opacity:1" fill="#fe7073" d="M 720.5,509.5 C 722.453,510.244 723.453,511.744 723.5,514C 723.392,515.681 722.725,516.848 721.5,517.5C 720.833,516.833 720.167,516.167 719.5,515.5C 720.461,513.735 720.795,511.735 720.5,509.5 Z"/></g>
<g><path style="opacity:0.922" fill="#0a63fe" d="M 780.5,507.5 C 783.426,511.959 785.093,516.625 785.5,521.5C 787.987,528.394 788.154,535.394 786,542.5C 784.694,545.621 782.86,548.287 780.5,550.5C 779.711,550.217 779.044,549.717 778.5,549C 779.463,535.37 779.796,521.87 779.5,508.5C 780.167,508.5 780.5,508.167 780.5,507.5 Z"/></g>
<g><path style="opacity:1" fill="#9ebfff" d="M 732.5,510.5 C 735.343,511.172 737.843,512.505 740,514.5C 740.832,524.517 740.666,534.517 739.5,544.5C 735.535,542.365 731.702,540.032 728,537.5C 728.734,532.676 726.901,529.51 722.5,528C 721.366,526.984 721.699,526.317 723.5,526C 721.5,524.667 719.5,523.333 717.5,522C 718.167,521.667 718.833,521.333 719.5,521C 718.044,520.577 717.544,519.744 718,518.5C 719.113,519.305 720.279,519.972 721.5,520.5C 723.138,521.657 724.804,522.824 726.5,524C 725.833,524.333 725.167,524.667 724.5,525C 726.167,526 727.833,527 729.5,528C 728.833,528.333 728.167,528.667 727.5,529C 728.905,530.269 730.571,530.769 732.5,530.5C 732.5,523.833 732.5,517.167 732.5,510.5 Z"/></g>
<g><path style="opacity:1" fill="#3383fe" d="M 360.5,510.5 C 363.352,512.091 366.352,513.424 369.5,514.5C 370.306,515.728 371.306,516.728 372.5,517.5C 371.833,527.5 371.167,537.5 370.5,547.5C 366.7,545.766 363.034,543.766 359.5,541.5C 359.217,531.197 359.55,520.863 360.5,510.5 Z"/></g>
<g><path style="opacity:1" fill="#d0ddf8" d="M 478.5,518.5 C 478.5,517.167 478.5,515.833 478.5,514.5C 479.287,512.896 480.62,512.229 482.5,512.5C 483.401,516.241 482.068,518.241 478.5,518.5 Z"/></g>
<g><path style="opacity:1" fill="#fc6a6c" d="M 397.5,512.5 C 401.765,513.899 402.432,516.232 399.5,519.5C 396.497,517.822 395.831,515.489 397.5,512.5 Z"/></g>
<g><path style="opacity:0.999" fill="#042b65" d="M 580.5,512.5 C 582.565,512.517 584.565,512.85 586.5,513.5C 588.042,514.301 589.708,514.634 591.5,514.5C 594.609,514.736 597.609,514.403 600.5,513.5C 602.099,512.438 603.766,512.438 605.5,513.5C 604.867,517.135 604.534,520.635 604.5,524C 606.869,526.938 607.036,530.104 605,533.5C 604.23,534.598 603.397,534.598 602.5,533.5C 599.538,531.255 596.538,531.255 593.5,533.5C 592.833,533.5 592.167,533.5 591.5,533.5C 589.194,533.007 586.861,532.674 584.5,532.5C 582.255,532.459 581.588,531.625 582.5,530C 581.422,529.326 580.755,528.326 580.5,527C 580.963,524.611 581.63,522.277 582.5,520C 581.129,517.681 580.462,515.181 580.5,512.5 Z"/></g>
<g><path style="opacity:1" fill="#3b8afd" d="M 453.5,515.5 C 453.844,518.562 454.511,521.562 455.5,524.5C 458.393,526.772 461.393,528.772 464.5,530.5C 462.586,533.684 461.92,537.351 462.5,541.5C 458.167,544.669 453.5,547.336 448.5,549.5C 447.204,539.295 447.204,528.961 448.5,518.5C 449.965,517.263 451.632,516.263 453.5,515.5 Z"/></g>
<g><path style="opacity:0.974" fill="#d8e4fd" d="M 510.5,515.5 C 510.667,526.172 510.5,536.839 510,547.5C 501.559,553.653 491.893,559.653 481,565.5C 480.667,565.167 480.333,564.833 480,564.5C 479.558,566.679 478.558,567.345 477,566.5C 475.493,568.008 473.827,569.341 472,570.5C 471.601,570.272 471.435,569.938 471.5,569.5C 470.692,559.91 470.192,550.244 470,540.5C 468.915,541.293 467.748,541.96 466.5,542.5C 465.668,552.483 465.168,562.483 465,572.5C 464.5,562.172 464.334,551.839 464.5,541.5C 471.833,536.833 479.167,532.167 486.5,527.5C 490.335,525.75 494.001,523.75 497.5,521.5C 501.45,518.692 505.783,516.692 510.5,515.5 Z"/></g>
<g><path style="opacity:0.004" fill="#007fff" d="M 785.5,520.5 C 786.833,521.167 786.833,521.167 785.5,520.5 Z"/></g>
<g><path style="opacity:0.004" fill="#fefffe" d="M 281.5,521.5 C 280.833,522.167 280.833,522.167 281.5,521.5 Z"/></g>
<g><path style="opacity:1" fill="#2475ff" d="M 372.5,517.5 C 382.167,522.331 391.5,527.664 400.5,533.5C 400.07,537.14 399.07,540.64 397.5,544C 398.416,544.278 399.082,544.778 399.5,545.5C 397.821,545.285 396.821,545.952 396.5,547.5C 395.883,547.611 395.383,547.944 395,548.5C 394.501,552.821 394.334,557.154 394.5,561.5C 386.218,557.197 378.218,552.53 370.5,547.5C 371.167,537.5 371.833,527.5 372.5,517.5 Z"/></g>
<g><path style="opacity:1" fill="#4e98fe" d="M 448.5,518.5 C 447.204,528.961 447.204,539.295 448.5,549.5C 443.784,552.863 438.784,555.863 433.5,558.5C 432.706,554.642 432.04,550.642 431.5,546.5C 432.937,545.275 434.604,544.275 436.5,543.5C 437.631,541.926 437.798,540.259 437,538.5C 435.67,539.582 434.17,540.249 432.5,540.5C 432.5,536.167 432.5,531.833 432.5,527.5C 437.85,524.472 443.184,521.472 448.5,518.5 Z"/></g>
<g><path style="opacity:0.715" fill="#aac4fe" d="M 291.5,504.5 C 291.5,511.5 291.5,518.5 291.5,525.5C 290.22,563.554 289.386,601.887 289,640.5C 288.804,624.475 288.304,608.475 287.5,592.5C 287.685,591.416 288.018,590.416 288.5,589.5C 288.667,567.497 288.5,545.497 288,523.5C 287.329,524.252 286.496,524.586 285.5,524.5C 283.859,523.853 282.526,522.853 281.5,521.5C 280.571,520.685 279.571,519.852 278.5,519C 279.214,517.657 278.88,516.324 277.5,515C 278.735,509.916 281.735,506.082 286.5,503.5C 288.384,504.278 290.05,504.611 291.5,504.5 Z"/></g>
<g><path style="opacity:0.523" fill="#fbfcfe" d="M 644.5,531.5 C 646.28,532.755 648.113,532.755 650,531.5C 651.654,533.263 653.487,533.596 655.5,532.5C 669.302,540.63 682.302,548.296 694.5,555.5C 692.677,573.473 691.844,591.806 692,610.5C 691.987,592.017 691.32,573.683 690,555.5C 689.667,573.5 689.333,591.5 689,609.5C 661.593,625.09 634.093,640.423 606.5,655.5C 606.611,654.883 606.944,654.383 607.5,654C 606.016,652.426 604.349,651.093 602.5,650C 591.778,642.527 581.111,636.36 570.5,631.5C 570.937,629.926 571.937,628.759 573.5,628C 589.261,619.232 604.761,610.065 620,600.5C 625.017,589.136 630.017,577.803 635,566.5C 640.691,565.229 641.525,562.729 637.5,559C 634.743,558.218 632.243,558.718 630,560.5C 629.023,563.259 629.856,565.259 632.5,566.5C 627.353,577.953 622.019,589.287 616.5,600.5C 600.059,610.383 583.392,619.717 566.5,628.5C 566.167,628.5 565.833,628.5 565.5,628.5C 565.167,627.167 564.833,627.167 564.5,628.5C 557.15,624.394 550.817,620.394 545.5,616.5C 550.605,613.108 555.938,609.941 561.5,607C 567.126,597.582 572.626,588.082 578,578.5C 581.494,575.837 585.327,573.837 589.5,572.5C 592.327,572.416 594.994,571.75 597.5,570.5C 597.5,571.833 597.5,573.167 597.5,574.5C 602.163,574.391 606.163,572.724 609.5,569.5C 606.572,568.516 603.572,568.183 600.5,568.5C 600.334,564.154 600.501,559.821 601,555.5C 601.717,554.956 602.217,554.289 602.5,553.5C 604.371,553.141 605.871,552.141 607,550.5C 607.333,550.833 607.667,551.167 608,551.5C 610.34,548.477 613.007,546.477 616,545.5C 616.333,545.833 616.667,546.167 617,546.5C 617.419,545.328 618.085,544.328 619,543.5C 620,543.5 621,543.5 622,543.5C 622.915,542.672 623.581,541.672 624,540.5C 625.566,541.061 626.899,540.394 628,538.5C 628.333,538.833 628.667,539.167 629,539.5C 629.374,538.584 629.874,537.75 630.5,537C 633.599,534.91 636.599,533.41 639.5,532.5C 639.5,533.167 639.833,533.5 640.5,533.5C 641.811,535.56 641.811,537.726 640.5,540C 627.671,546.914 615.004,554.08 602.5,561.5C 601.167,562.5 601.167,563.5 602.5,564.5C 615.918,556.374 629.418,548.374 643,540.5C 643.259,537.413 643.759,534.413 644.5,531.5 Z"/></g>
<g><path style="opacity:0.995" fill="#fcb1b3" d="M 602.5,533.5 C 602.5,535.833 602.5,538.167 602.5,540.5C 601.258,542.611 601.258,544.611 602.5,546.5C 602.5,548.833 602.5,551.167 602.5,553.5C 602.217,554.289 601.717,554.956 601,555.5C 600.501,559.821 600.334,564.154 600.5,568.5C 600.179,570.048 599.179,570.715 597.5,570.5C 597.5,569.167 597.5,567.833 597.5,566.5C 596.99,561.584 595.657,556.917 593.5,552.5C 596.128,548.965 596.128,545.465 593.5,542C 594.056,541.617 594.389,541.117 594.5,540.5C 594.737,539.209 594.404,538.209 593.5,537.5C 593.5,536.167 593.5,534.833 593.5,533.5C 596.538,531.255 599.538,531.255 602.5,533.5 Z"/></g>
<g><path style="opacity:0.988" fill="#f9d8dc" d="M 591.5,533.5 C 592.167,533.5 592.833,533.5 593.5,533.5C 593.5,534.833 593.5,536.167 593.5,537.5C 593.263,538.791 593.596,539.791 594.5,540.5C 594.389,541.117 594.056,541.617 593.5,542C 596.128,545.465 596.128,548.965 593.5,552.5C 595.657,556.917 596.99,561.584 597.5,566.5C 595.114,566.259 593.114,566.925 591.5,568.5C 591.5,556.833 591.5,545.167 591.5,533.5 Z"/></g>
<g><path style="opacity:0.999" fill="#60a5fe" d="M 432.5,527.5 C 432.5,531.833 432.5,536.167 432.5,540.5C 431.251,542.136 429.584,543.303 427.5,544C 426.253,545.494 426.253,546.994 427.5,548.5C 428.86,547.82 430.193,547.153 431.5,546.5C 432.04,550.642 432.706,554.642 433.5,558.5C 426.202,562.819 418.869,567.152 411.5,571.5C 411.5,560.833 411.5,550.167 411.5,539.5C 412.167,539.5 412.5,539.167 412.5,538.5C 419.15,534.862 425.816,531.195 432.5,527.5 Z"/></g>
<g><path style="opacity:0.991" fill="#feacae" d="M 584.5,532.5 C 586.861,532.674 589.194,533.007 591.5,533.5C 591.5,545.167 591.5,556.833 591.5,568.5C 590.391,568.443 589.391,568.11 588.5,567.5C 588.923,565.219 588.256,563.552 586.5,562.5C 586.954,560.259 586.954,558.259 586.5,556.5C 586.5,556.167 586.5,555.833 586.5,555.5C 587.167,555.5 587.5,555.167 587.5,554.5C 587.771,552.62 587.104,551.287 585.5,550.5C 585.5,550.167 585.5,549.833 585.5,549.5C 587.401,548.065 587.734,546.398 586.5,544.5C 586.806,541.615 586.473,538.948 585.5,536.5C 584.766,535.292 584.433,533.959 584.5,532.5 Z"/></g>
<g><path style="opacity:1" fill="#d4e1ff" d="M 379.5,535.5 C 383.908,535.062 385.575,537.062 384.5,541.5C 380.991,541.192 379.324,539.192 379.5,535.5 Z"/></g>
<g><path style="opacity:1" fill="#fd5d5c" d="M 496.5,534.5 C 497.5,534.5 498.5,534.5 499.5,534.5C 500.575,538.938 498.908,540.938 494.5,540.5C 494.253,538.142 494.919,536.142 496.5,534.5 Z"/></g>
<g><path style="opacity:1" fill="#0b63fe" d="M 400.5,533.5 C 404.167,535.5 407.833,537.5 411.5,539.5C 411.5,550.167 411.5,560.833 411.5,571.5C 405.811,568.131 400.144,564.798 394.5,561.5C 394.334,557.154 394.501,552.821 395,548.5C 395.383,547.944 395.883,547.611 396.5,547.5C 396.967,550.297 398.633,551.631 401.5,551.5C 401.946,548.99 401.28,546.99 399.5,545.5C 399.082,544.778 398.416,544.278 397.5,544C 399.07,540.64 400.07,537.14 400.5,533.5 Z"/></g>
<g><path style="opacity:0.004" fill="#ff8584" d="M 585.5,536.5 C 585.649,537.552 585.483,538.552 585,539.5C 584.26,538.251 584.427,537.251 585.5,536.5 Z"/></g>
<g><path style="opacity:0.992" fill="#dee9fe" d="M 312.5,483.5 C 312.833,483.5 313.167,483.5 313.5,483.5C 313.168,494.187 313.501,504.854 314.5,515.5C 318.728,518.113 323.061,520.446 327.5,522.5C 332.299,525.737 337.299,528.737 342.5,531.5C 348.144,534.798 353.811,538.131 359.5,541.5C 363.034,543.766 366.7,545.766 370.5,547.5C 378.218,552.53 386.218,557.197 394.5,561.5C 400.144,564.798 405.811,568.131 411.5,571.5C 418.869,567.152 426.202,562.819 433.5,558.5C 438.784,555.863 443.784,552.863 448.5,549.5C 453.5,547.336 458.167,544.669 462.5,541.5C 463.167,541.5 463.833,541.5 464.5,541.5C 464.334,551.839 464.5,562.172 465,572.5C 465.168,562.483 465.668,552.483 466.5,542.5C 467.748,541.96 468.915,541.293 470,540.5C 470.192,550.244 470.692,559.91 471.5,569.5C 470.066,571.49 468.232,573.157 466,574.5C 464.836,574.835 463.503,574.835 462,574.5C 461.07,576.552 459.57,578.052 457.5,579C 451.112,582.524 444.779,586.024 438.5,589.5C 438.167,589.5 437.833,589.5 437.5,589.5C 436.833,589.5 436.5,589.833 436.5,590.5C 433.984,590.755 431.65,591.589 429.5,593C 423.664,596.752 417.664,600.252 411.5,603.5C 398.311,596.408 385.311,589.075 372.5,581.5C 367.273,577.719 361.607,574.719 355.5,572.5C 355.167,571.167 354.833,571.167 354.5,572.5C 354.167,572.5 353.833,572.5 353.5,572.5C 353.141,570.515 352.308,569.849 351,570.5C 349.173,569.341 347.507,568.008 346,566.5C 344.442,567.345 343.442,566.679 343,564.5C 342.667,564.833 342.333,565.167 342,565.5C 331.553,559.827 321.886,553.827 313,547.5C 312.5,526.169 312.333,504.836 312.5,483.5 Z"/></g>
<g><path style="opacity:1" fill="#5b9dff" d="M 336.5,542.5 C 336.5,543.833 336.5,545.167 336.5,546.5C 333.474,545.176 331.141,543.176 329.5,540.5C 329.833,539.833 330.167,539.167 330.5,538.5C 332.565,539.857 334.565,541.19 336.5,542.5 Z"/></g>
<g><path style="opacity:1" fill="#ff6764" d="M 488.5,539.5 C 492.029,540.609 492.362,542.442 489.5,545C 488.552,545.483 487.552,545.649 486.5,545.5C 486.253,543.142 486.919,541.142 488.5,539.5 Z"/></g>
<g><path style="opacity:1" fill="#2173ff" d="M 336.5,542.5 C 339.986,543.152 341.153,545.152 340,548.5C 338.887,547.695 337.721,547.028 336.5,546.5C 336.5,545.167 336.5,543.833 336.5,542.5 Z"/></g>
<g><path style="opacity:1" fill="#d8e4ff" d="M 388.5,540.5 C 392.692,540.403 394.025,542.236 392.5,546C 389.223,545.862 387.889,544.029 388.5,540.5 Z"/></g>
<g><path style="opacity:1" fill="#d5e3ff" d="M 431.5,546.5 C 430.193,547.153 428.86,547.82 427.5,548.5C 426.253,546.994 426.253,545.494 427.5,544C 429.584,543.303 431.251,542.136 432.5,540.5C 434.17,540.249 435.67,539.582 437,538.5C 437.798,540.259 437.631,541.926 436.5,543.5C 434.604,544.275 432.937,545.275 431.5,546.5 Z"/></g>
<g><path style="opacity:1" fill="#ccdcff" d="M 399.5,545.5 C 401.28,546.99 401.946,548.99 401.5,551.5C 398.633,551.631 396.967,550.297 396.5,547.5C 396.821,545.952 397.821,545.285 399.5,545.5 Z"/></g>
<g><path style="opacity:0.654" fill="#e7effe" d="M 586.5,544.5 C 587.734,546.398 587.401,548.065 585.5,549.5C 580.306,549.898 574.973,549.898 569.5,549.5C 560.029,552.815 551.529,557.148 544,562.5C 543.667,562.167 543.333,561.833 543,561.5C 541.71,569.338 537.543,571.672 530.5,568.5C 528.004,565.767 528.17,563.1 531,560.5C 531.333,560.833 531.667,561.167 532,561.5C 534.038,559.928 536.371,558.928 539,558.5C 539.333,558.833 539.667,559.167 540,559.5C 540.605,557.519 541.605,557.185 543,558.5C 549.234,552.028 557.234,547.695 567,545.5C 569.372,547.046 571.372,546.712 573,544.5C 573.333,545.167 573.667,545.833 574,546.5C 577.885,543.956 582.052,543.289 586.5,544.5 Z"/></g>
<g><path style="opacity:0.976" fill="#d7e5fe" d="M 644.5,522.5 C 644.5,525.5 644.5,528.5 644.5,531.5C 643.759,534.413 643.259,537.413 643,540.5C 629.418,548.374 615.918,556.374 602.5,564.5C 601.167,563.5 601.167,562.5 602.5,561.5C 615.004,554.08 627.671,546.914 640.5,540C 641.811,537.726 641.811,535.56 640.5,533.5C 639.833,533.5 639.5,533.167 639.5,532.5C 639.5,531.833 639.5,531.167 639.5,530.5C 640.494,521.348 640.827,512.015 640.5,502.5C 642.681,502.284 644.347,503.117 645.5,505C 644.525,510.741 644.192,516.575 644.5,522.5 Z"/></g>
<g><path style="opacity:1" fill="#fd5352" d="M 479.5,544.5 C 480.5,544.5 481.5,544.5 482.5,544.5C 482.66,546.199 482.494,547.866 482,549.5C 479.833,551 478.333,550.5 477.5,548C 477.978,546.697 478.645,545.531 479.5,544.5 Z"/></g>
<g><path style="opacity:0.004" fill="#ecfffe" d="M 567.5,551.5 C 567.897,550.475 568.563,550.308 569.5,551C 568.906,551.464 568.239,551.631 567.5,551.5 Z"/></g>
<g><path style="opacity:0.782" fill="#adc9ff" d="M 803.5,551.5 C 804.488,556.64 804.821,561.974 804.5,567.5C 804.166,588.482 803.999,609.482 804,630.5C 802.871,640.463 802.204,650.463 802,660.5C 801.5,649.172 801.333,637.838 801.5,626.5C 801.5,606.833 801.5,587.167 801.5,567.5C 800.5,567.5 799.5,567.5 798.5,567.5C 790.278,561.452 790.611,555.785 799.5,550.5C 800.736,551.246 802.07,551.579 803.5,551.5 Z"/></g>
<g><path style="opacity:0.589" fill="#d7e6fe" d="M 803.5,551.5 C 803.897,550.475 804.563,550.308 805.5,551C 807.167,552.667 808.833,554.333 810.5,556C 809.535,558.474 809.368,560.974 810,563.5C 807.966,564.721 806.133,566.055 804.5,567.5C 804.821,561.974 804.488,556.64 803.5,551.5 Z"/></g>
<g><path style="opacity:0.965" fill="#f1f4fe" d="M 694.5,555.5 C 697.019,556.395 699.519,558.062 702,560.5C 702.333,560.167 702.667,559.833 703,559.5C 704.098,560.967 705.598,561.801 707.5,562C 709.57,562.948 711.07,564.448 712,566.5C 712.333,566.167 712.667,565.833 713,565.5C 715.071,566.364 716.738,567.697 718,569.5C 719.558,568.655 720.558,569.321 721,571.5C 721.333,571.167 721.667,570.833 722,570.5C 724.914,572.178 727.414,574.178 729.5,576.5C 728.179,593.53 728.179,610.53 729.5,627.5C 728.609,628.261 727.942,629.261 727.5,630.5C 738.921,637.749 750.921,644.915 763.5,652C 764.035,654.109 765.035,654.609 766.5,653.5C 769.535,654.921 772.035,656.921 774,659.5C 774.333,659.167 774.667,658.833 775,658.5C 783.136,663.327 791.636,668.327 800.5,673.5C 800.586,674.496 800.252,675.329 799.5,676C 792.945,680.061 786.279,683.894 779.5,687.5C 770.965,692.263 762.632,697.263 754.5,702.5C 743.364,708.569 732.364,714.902 721.5,721.5C 706.337,729.914 691.337,738.581 676.5,747.5C 665.467,753.344 654.801,759.678 644.5,766.5C 634.332,771.413 624.666,777.08 615.5,783.5C 608.781,779.772 602.447,776.272 596.5,773C 595.874,772.25 595.374,771.416 595,770.5C 594.667,770.833 594.333,771.167 594,771.5C 588.176,768.014 582.343,764.347 576.5,760.5C 552.39,745.27 527.723,730.77 502.5,717C 513.397,710.726 524.064,704.226 534.5,697.5C 534.953,696.542 535.619,695.708 536.5,695C 548.436,688.747 560.936,681.581 574,673.5C 574.333,673.833 574.667,674.167 575,674.5C 575.442,672.321 576.442,671.655 578,672.5C 579.507,670.992 581.173,669.659 583,668.5C 583.333,668.833 583.667,669.167 584,669.5C 584.93,667.448 586.43,665.948 588.5,665C 594.729,661.395 600.729,658.228 606.5,655.5C 634.093,640.423 661.593,625.09 689,609.5C 689.333,591.5 689.667,573.5 690,555.5C 691.32,573.683 691.987,592.017 692,610.5C 691.844,591.806 692.677,573.473 694.5,555.5 Z"/></g>
<g><path style="opacity:0.184" fill="#e4edff" d="M 288.5,589.5 C 287.883,589.389 287.383,589.056 287,588.5C 286.214,573.148 286.38,557.815 287.5,542.5C 286.613,536.518 285.946,530.518 285.5,524.5C 286.496,524.586 287.329,524.252 288,523.5C 288.5,545.497 288.667,567.497 288.5,589.5 Z"/></g>
<g><path style="opacity:0.418" fill="#fefefe" d="M 586.5,562.5 C 588.256,563.552 588.923,565.219 588.5,567.5C 588.5,568.5 588.5,569.5 588.5,570.5C 568.563,581.137 548.896,592.303 529.5,604C 528.552,604.483 527.552,604.649 526.5,604.5C 525.972,603.153 525.805,601.819 526,600.5C 528.672,597.807 531.339,595.141 534,592.5C 535.566,593.061 536.899,592.394 538,590.5C 538.333,590.833 538.667,591.167 539,591.5C 539.442,589.321 540.442,588.655 542,589.5C 544.34,586.477 547.007,584.477 550,583.5C 550.333,583.833 550.667,584.167 551,584.5C 552.003,581.844 553.67,580.844 556,581.5C 556.442,579.321 557.442,578.655 559,579.5C 562.514,577.343 565.848,575.009 569,572.5C 569.333,572.833 569.667,573.167 570,573.5C 570.442,571.321 571.442,570.655 573,571.5C 574.507,569.992 576.173,568.659 578,567.5C 579.558,568.345 580.558,567.679 581,565.5C 581.333,565.833 581.667,566.167 582,566.5C 583.492,565.08 584.992,563.746 586.5,562.5 Z"/></g>
<g><path style="opacity:1" fill="#fe6d6e" d="M 379.5,567.5 C 384.159,567.015 385.492,568.848 383.5,573C 382.551,573.617 381.718,573.451 381,572.5C 379.991,570.975 379.491,569.308 379.5,567.5 Z"/></g>
<g><path style="opacity:0.996" fill="#18356a" d="M 597.5,566.5 C 597.5,567.833 597.5,569.167 597.5,570.5C 594.994,571.75 592.327,572.416 589.5,572.5C 589.167,571.833 588.833,571.167 588.5,570.5C 588.5,569.5 588.5,568.5 588.5,567.5C 589.391,568.11 590.391,568.443 591.5,568.5C 593.114,566.925 595.114,566.259 597.5,566.5 Z"/></g>
<g><path style="opacity:1" fill="#4888ff" d="M 436.5,570.5 C 437.788,572.035 437.788,573.701 436.5,575.5C 433.339,576.913 430.339,578.58 427.5,580.5C 426.386,579.277 426.219,577.944 427,576.5C 430.34,574.637 433.507,572.637 436.5,570.5 Z"/></g>
<g><path style="opacity:0.998" fill="#0e3068" d="M 600.5,568.5 C 603.572,568.183 606.572,568.516 609.5,569.5C 606.163,572.724 602.163,574.391 597.5,574.5C 597.5,573.167 597.5,571.833 597.5,570.5C 599.179,570.715 600.179,570.048 600.5,568.5 Z"/></g>
<g><path style="opacity:1" fill="#ff5c5b" d="M 388.5,572.5 C 392.485,572.629 393.818,574.463 392.5,578C 389.223,577.862 387.889,576.029 388.5,572.5 Z"/></g>
<g><path style="opacity:0.584" fill="#f5f9fe" d="M 353.5,572.5 C 353.833,573.833 354.167,573.833 354.5,572.5C 354.833,572.5 355.167,572.5 355.5,572.5C 361.607,574.719 367.273,577.719 372.5,581.5C 371.833,598.833 371.167,616.167 370.5,633.5C 360.921,628.567 351.921,623.567 343.5,618.5C 344.167,618.5 344.5,618.167 344.5,617.5C 345.495,605.011 345.829,592.344 345.5,579.5C 344.167,579.5 342.833,579.5 341.5,579.5C 345.454,577.108 349.454,574.774 353.5,572.5 Z"/></g>
<g><path style="opacity:0.784" fill="#e2effe" d="M 729.5,627.5 C 728.179,610.53 728.179,593.53 729.5,576.5C 730.117,576.389 730.617,576.056 731,575.5C 742.856,582.641 754.356,589.474 765.5,596C 765.167,596.333 764.833,596.667 764.5,597C 769.424,599.973 769.758,603.473 765.5,607.5C 753.502,615.049 741.668,622.049 730,628.5C 729.601,628.272 729.435,627.938 729.5,627.5 Z"/></g>
<g><path style="opacity:1" fill="#fd5b5b" d="M 396.5,577.5 C 401.159,577.015 402.492,578.848 400.5,583C 397.223,582.862 395.889,581.029 396.5,577.5 Z"/></g>
<g><path style="opacity:0.502" fill="#fcfdfe" d="M 372.5,581.5 C 385.311,589.075 398.311,596.408 411.5,603.5C 417.664,600.252 423.664,596.752 429.5,593C 431.65,591.589 433.984,590.755 436.5,590.5C 437.206,591.557 437.539,591.224 437.5,589.5C 437.833,589.5 438.167,589.5 438.5,589.5C 441.093,592.435 443.76,595.435 446.5,598.5C 442.482,601.027 438.982,604.027 436,607.5C 435.667,607.167 435.333,606.833 435,606.5C 433.333,607.833 431.667,609.167 430,610.5C 428.442,609.655 427.442,610.321 427,612.5C 426,612.5 425,612.5 424,612.5C 420.676,615.66 417.01,618.326 413,620.5C 412.667,620.167 412.333,619.833 412,619.5C 410.903,621.053 409.57,622.386 408,623.5C 407.667,623.167 407.333,622.833 407,622.5C 404.333,624.5 401.667,626.5 399,628.5C 398.667,628.167 398.333,627.833 398,627.5C 397.558,629.679 396.558,630.345 395,629.5C 391.027,632.164 387.027,634.831 383,637.5C 380.593,637.327 378.26,637.327 376,637.5C 374.272,635.266 372.438,633.933 370.5,633.5C 371.167,616.167 371.833,598.833 372.5,581.5 Z"/></g>
<g><path style="opacity:0.772" fill="#e5f1fe" d="M 341.5,579.5 C 342.833,579.5 344.167,579.5 345.5,579.5C 345.829,592.344 345.495,605.011 344.5,617.5C 343.833,617.5 343.5,617.833 343.5,618.5C 341.564,618.184 339.731,616.85 338,614.5C 336.442,615.345 335.442,614.679 335,612.5C 334.667,612.833 334.333,613.167 334,613.5C 330.924,611.146 327.924,609.479 325,608.5C 322.749,606.623 320.249,605.123 317.5,604C 311.869,599.145 312.369,594.978 319,591.5C 319.333,591.833 319.667,592.167 320,592.5C 327.546,588.658 334.713,584.324 341.5,579.5 Z"/></g>
<g><path style="opacity:0.263" fill="#e9f1ff" d="M 798.5,567.5 C 799.5,567.5 800.5,567.5 801.5,567.5C 801.5,587.167 801.5,606.833 801.5,626.5C 799.954,618.058 799.287,609.391 799.5,600.5C 799.588,592.487 799.921,584.487 800.5,576.5C 800.551,573.303 799.885,570.303 798.5,567.5 Z"/></g>
<g><path style="opacity:0.004" fill="#80fffe" d="M 286.5,595.5 C 287.66,607.993 287.827,620.66 287,633.5C 286.5,620.838 286.333,608.171 286.5,595.5 Z"/></g>
<g><path style="opacity:0.004" fill="#92e5ff" d="M 290.5,589.5 C 291.659,599.658 291.825,609.992 291,620.5C 290.5,610.172 290.334,599.839 290.5,589.5 Z"/></g>
<g><path style="opacity:0.637" fill="#e5eefe" d="M 588.5,570.5 C 588.833,571.167 589.167,571.833 589.5,572.5C 585.327,573.837 581.494,575.837 578,578.5C 572.626,588.082 567.126,597.582 561.5,607C 555.938,609.941 550.605,613.108 545.5,616.5C 542.621,619.291 539.288,621.624 535.5,623.5C 534.543,625.918 533.209,628.084 531.5,630C 529.491,629.406 527.491,629.573 525.5,630.5C 521.222,627.995 520.722,624.995 524,621.5C 526.369,621.273 528.869,621.107 531.5,621C 531.167,620.667 530.833,620.333 530.5,620C 533.527,618.487 536.527,616.987 539.5,615.5C 539.833,616.833 540.167,616.833 540.5,615.5C 547.429,612.368 554.096,608.701 560.5,604.5C 564.667,597.5 568.833,590.5 573,583.5C 573.688,582.668 573.521,582.002 572.5,581.5C 557.806,590.178 543.139,598.845 528.5,607.5C 527.167,607.833 527.167,608.167 528.5,608.5C 514.729,616.359 500.563,624.692 486,633.5C 485.667,633.167 485.333,632.833 485,632.5C 484.558,634.679 483.558,635.345 482,634.5C 478.637,637.522 474.97,640.188 471,642.5C 469.836,642.835 468.503,642.835 467,642.5C 465.833,644.333 464.667,646.167 463.5,648C 463.833,648.333 464.167,648.667 464.5,649C 463.809,650.067 463.309,651.234 463,652.5C 462.346,651.304 461.846,651.304 461.5,652.5C 461.833,653.167 462.167,653.833 462.5,654.5C 460.873,659.179 458.873,663.179 456.5,666.5C 457.859,668.306 457.525,669.806 455.5,671C 455.833,671.333 456.167,671.667 456.5,672C 453.844,677.822 451.844,683.488 450.5,689C 449.327,690.505 448.161,692.005 447,693.5C 446.667,693.167 446.333,692.833 446,692.5C 445.626,693.416 445.126,694.25 444.5,695C 439.428,697.188 434.761,700.021 430.5,703.5C 430.709,704.086 431.043,704.586 431.5,705C 429.729,708.174 428.063,711.34 426.5,714.5C 418.405,727.011 414.072,740.677 413.5,755.5C 412.883,755.611 412.383,755.944 412,756.5C 408.076,753.787 403.909,751.453 399.5,749.5C 391.417,753.754 383.084,758.421 374.5,763.5C 370.955,771.162 366.121,772.495 360,767.5C 359.393,763.08 361.393,760.413 366,759.5C 367.465,760.33 368.965,760.496 370.5,760C 378.937,755.149 386.937,750.482 394.5,746C 394.472,744.423 393.805,742.756 392.5,741C 392.755,739.674 393.422,738.674 394.5,738C 394.167,737.667 393.833,737.333 393.5,737C 399.158,732.969 404.658,729.469 410,726.5C 410.333,726.833 410.667,727.167 411,727.5C 414.018,725.239 417.185,722.406 420.5,719C 419.701,717.251 420.368,715.918 422.5,715C 422.167,714.667 421.833,714.333 421.5,714C 423.103,711.32 423.937,708.487 424,705.5C 420.726,708.644 417.059,711.311 413,713.5C 412.667,713.167 412.333,712.833 412,712.5C 411.558,714.679 410.558,715.345 409,714.5C 406.022,716.878 403.522,719.712 401.5,723C 398.805,723.254 396.305,723.421 394,723.5C 389.165,720.022 389.332,716.855 394.5,714C 398.614,714.844 402.114,714.01 405,711.5C 405.333,711.833 405.667,712.167 406,712.5C 406.419,711.328 407.085,710.328 408,709.5C 409.164,709.165 410.497,709.165 412,709.5C 414.139,706.999 416.639,704.832 419.5,703C 428.487,698.193 436.987,693.36 445,688.5C 445.229,685.542 446.396,683.042 448.5,681C 448.167,680.667 447.833,680.333 447.5,680C 448.438,678.937 449.438,677.77 450.5,676.5C 450.167,675.833 449.833,675.167 449.5,674.5C 451.902,669.111 453.569,664.278 454.5,660C 455.061,658.324 456.061,656.991 457.5,656C 457.043,655.586 456.709,655.086 456.5,654.5C 457.184,651.581 458.518,649.081 460.5,647C 460.063,643.034 461.897,640.201 466,638.5C 466.333,638.833 466.667,639.167 467,639.5C 468.507,637.992 470.173,636.659 472,635.5C 490.358,624.598 508.525,614.264 526.5,604.5C 527.552,604.649 528.552,604.483 529.5,604C 548.896,592.303 568.563,581.137 588.5,570.5 Z"/></g>
<g><path style="opacity:0.49" fill="#fdfefe" d="M 540.5,615.5 C 540.167,615.5 539.833,615.5 539.5,615.5C 539.649,614.448 539.483,613.448 539,612.5C 538.667,612.833 538.333,613.167 538,613.5C 535.425,610.77 532.259,609.103 528.5,608.5C 528.5,608.167 528.5,607.833 528.5,607.5C 543.139,598.845 557.806,590.178 572.5,581.5C 573.521,582.002 573.688,582.668 573,583.5C 568.833,590.5 564.667,597.5 560.5,604.5C 554.096,608.701 547.429,612.368 540.5,615.5 Z"/></g>
<g><path style="opacity:1" fill="#c3d7ff" d="M 712.5,632.5 C 712.82,651.576 712.487,670.576 711.5,689.5C 703.631,685.07 695.964,680.403 688.5,675.5C 688.5,659.167 688.5,642.833 688.5,626.5C 690.59,624.61 692.923,622.943 695.5,621.5C 701.402,624.942 707.068,628.608 712.5,632.5 Z"/></g>
<g><path style="opacity:1" fill="#d5e4ff" d="M 688.5,626.5 C 688.5,642.833 688.5,659.167 688.5,675.5C 682.702,672.767 677.035,669.767 671.5,666.5C 671.56,655.957 671.56,645.624 671.5,635.5C 677.035,632.233 682.702,629.233 688.5,626.5 Z"/></g>
<g><path style="opacity:1" fill="#b2ccff" d="M 712.5,632.5 C 720.36,636.044 727.693,640.378 734.5,645.5C 734.475,663.14 734.475,680.473 734.5,697.5C 733.235,698.479 731.901,699.479 730.5,700.5C 723.976,697.074 717.642,693.408 711.5,689.5C 712.487,670.576 712.82,651.576 712.5,632.5 Z"/></g>
<g><path style="opacity:0.666" fill="#e6eefe" d="M 570.5,631.5 C 554.876,640.781 539.543,649.614 524.5,658C 521.66,660.928 518.994,663.928 516.5,667C 517.345,668.558 516.679,669.558 514.5,670C 514.957,670.414 515.291,670.914 515.5,671.5C 512.41,674.235 510.41,677.235 509.5,680.5C 508.609,681.261 507.942,682.261 507.5,683.5C 510.08,685.713 510.08,687.88 507.5,690C 505.167,690.667 502.833,690.667 500.5,690C 498.789,688.867 498.289,687.367 499,685.5C 500.6,684.134 502.433,683.134 504.5,682.5C 505.127,681.583 505.461,680.583 505.5,679.5C 508.86,671.193 513.194,664.027 518.5,658C 518.167,657.667 517.833,657.333 517.5,657C 524.874,653.491 532.041,648.991 539,643.5C 539.333,643.833 539.667,644.167 540,644.5C 540.419,643.328 541.085,642.328 542,641.5C 543.164,641.165 544.497,641.165 546,641.5C 546.374,640.584 546.874,639.75 547.5,639C 553.324,635.581 558.991,632.081 564.5,628.5C 564.833,628.5 565.167,628.5 565.5,628.5C 565.833,629.833 566.167,629.833 566.5,628.5C 583.392,619.717 600.059,610.383 616.5,600.5C 622.019,589.287 627.353,577.953 632.5,566.5C 629.856,565.259 629.023,563.259 630,560.5C 632.243,558.718 634.743,558.218 637.5,559C 641.525,562.729 640.691,565.229 635,566.5C 630.017,577.803 625.017,589.136 620,600.5C 604.761,610.065 589.261,619.232 573.5,628C 571.937,628.759 570.937,629.926 570.5,631.5 Z"/></g>
<g><path style="opacity:1" fill="#e3ecff" d="M 671.5,635.5 C 671.56,645.624 671.56,655.957 671.5,666.5C 662.696,661.596 654.029,656.43 645.5,651C 654.029,645.57 662.696,640.404 671.5,635.5 Z"/></g>
<g><path style="opacity:1" fill="#9fc0ff" d="M 734.5,645.5 C 749.936,653.385 764.936,662.052 779.5,671.5C 764.636,680.431 749.636,689.098 734.5,697.5C 734.475,680.473 734.475,663.14 734.5,645.5 Z"/></g>
<g><path style="opacity:0.73" fill="#e7effe" d="M 585.5,550.5 C 587.104,551.287 587.771,552.62 587.5,554.5C 586.833,554.5 586.5,554.833 586.5,555.5C 586.5,555.833 586.5,556.167 586.5,556.5C 518.167,595.618 450.667,634.618 384,673.5C 383.667,673.167 383.333,672.833 383,672.5C 360.728,674.318 338.228,675.151 315.5,675C 304.414,681.26 292.247,688.426 279,696.5C 278.667,696.167 278.333,695.833 278,695.5C 276.539,699.26 274.039,702.093 270.5,704C 263.327,704.494 261.161,701.327 264,694.5C 264.333,694.833 264.667,695.167 265,695.5C 266.943,693.285 268.609,693.285 270,695.5C 285.853,686.352 301.353,677.518 316.5,669C 338.739,668.173 360.906,668.34 383,669.5C 383.93,667.448 385.43,665.948 387.5,665C 429.486,641.234 470.486,617.568 510.5,594C 502.833,593.333 495.167,593.333 487.5,594C 476.108,600.569 464.441,607.569 452.5,615C 452.957,615.414 453.291,615.914 453.5,616.5C 451.484,619.102 449.317,620.769 447,621.5C 444.39,621.347 442.057,620.014 440,617.5C 439.333,616.5 439.333,615.5 440,614.5C 441.314,613.687 442.481,612.687 443.5,611.5C 446.564,610.879 449.564,610.045 452.5,609C 464.001,601.748 475.668,594.748 487.5,588C 500.236,587.942 512.903,587.275 525.5,586C 528.418,584.291 531.252,582.458 534,580.5C 534.333,580.833 534.667,581.167 535,581.5C 535.374,580.584 535.874,579.75 536.5,579C 540.266,577.722 543.266,576.056 545.5,574C 546.76,572.887 547.927,572.72 549,573.5C 553.663,569.756 558.996,566.089 565,562.5C 568.763,560.589 572.763,558.256 577,555.5C 579.903,554.609 582.736,552.942 585.5,550.5 Z"/></g>
<g><path style="opacity:0.999" fill="#1969ff" d="M 800.5,673.5 C 805.828,676.794 811.162,680.127 816.5,683.5C 813.233,686.806 809.567,689.639 805.5,692C 804.551,692.617 803.718,692.451 803,691.5C 802.626,692.416 802.126,693.25 801.5,694C 795.978,696.407 790.978,698.907 786.5,701.5C 784.236,702.219 781.903,702.552 779.5,702.5C 779.5,697.5 779.5,692.5 779.5,687.5C 786.279,683.894 792.945,680.061 799.5,676C 800.252,675.329 800.586,674.496 800.5,673.5 Z"/></g>
<g><path style="opacity:0.522" fill="#fbfdfe" d="M 505.5,679.5 C 505.461,680.583 505.127,681.583 504.5,682.5C 502.433,683.134 500.6,684.134 499,685.5C 498.289,687.367 498.789,688.867 500.5,690C 502.833,690.667 505.167,690.667 507.5,690C 510.08,687.88 510.08,685.713 507.5,683.5C 507.942,682.261 508.609,681.261 509.5,680.5C 512.834,683.6 516.334,686.6 520,689.5C 521,689.5 522,689.5 523,689.5C 526.725,693.183 530.559,695.849 534.5,697.5C 524.064,704.226 513.397,710.726 502.5,717C 527.723,730.77 552.39,745.27 576.5,760.5C 574.785,761.919 572.952,763.253 571,764.5C 570.667,764.167 570.333,763.833 570,763.5C 569.558,765.679 568.558,766.345 567,765.5C 566.558,767.679 565.558,768.345 564,767.5C 563.683,769.301 563.016,769.634 562,768.5C 560.899,770.394 559.566,771.061 558,770.5C 557,772.167 555.667,773.5 554,774.5C 553.667,774.167 553.333,773.833 553,773.5C 549.676,776.66 546.01,779.326 542,781.5C 541.667,781.167 541.333,780.833 541,780.5C 540.558,782.679 539.558,783.345 538,782.5C 535.753,784.253 533.086,786.253 530,788.5C 529,788.5 528,788.5 527,788.5C 519.945,794.192 512.112,798.692 503.5,802C 495.14,802.578 487.806,800.745 481.5,796.5C 481.5,773.167 481.5,749.833 481.5,726.5C 481.5,719.833 481.5,713.167 481.5,706.5C 486.987,704.862 488.82,701.195 487,695.5C 484.488,692.107 483.988,688.441 485.5,684.5C 487.579,682.913 489.745,681.246 492,679.5C 496.766,678.596 501.266,678.596 505.5,679.5 Z"/></g>
<g><path style="opacity:1" fill="#bed4ff" d="M 665.5,678.5 C 667.549,678.706 667.883,679.539 666.5,681C 661.5,683.833 656.5,686.667 651.5,689.5C 651.167,689.167 650.833,688.833 650.5,688.5C 655.357,684.908 660.357,681.575 665.5,678.5 Z"/></g>
<g><path style="opacity:1" fill="#bad1ff" d="M 658.5,674.5 C 659.645,675.793 659.311,676.959 657.5,678C 648.995,683.087 640.328,687.92 631.5,692.5C 631.167,692.167 630.833,691.833 630.5,691.5C 639.897,685.808 649.23,680.141 658.5,674.5 Z"/></g>
<g><path style="opacity:0.999" fill="#2374ff" d="M 779.5,687.5 C 779.5,692.5 779.5,697.5 779.5,702.5C 781.903,702.552 784.236,702.219 786.5,701.5C 778.307,707.179 769.307,712.513 759.5,717.5C 757.833,717.5 756.167,717.5 754.5,717.5C 754.5,712.5 754.5,707.5 754.5,702.5C 762.632,697.263 770.965,692.263 779.5,687.5 Z"/></g>
<g><path style="opacity:0.985" fill="#a8c5fe" d="M 481.5,706.5 C 481.5,713.167 481.5,719.833 481.5,726.5C 480.833,719.833 480.167,713.167 479.5,706.5C 472.066,703.834 470.732,699.334 475.5,693C 477.345,691.872 479.345,691.372 481.5,691.5C 481.5,696.5 481.5,701.5 481.5,706.5 Z"/></g>
<g><path style="opacity:0.651" fill="#f0f7fe" d="M 485.5,684.5 C 483.988,688.441 484.488,692.107 487,695.5C 488.82,701.195 486.987,704.862 481.5,706.5C 481.5,701.5 481.5,696.5 481.5,691.5C 479.345,691.372 477.345,691.872 475.5,693C 470.732,699.334 472.066,703.834 479.5,706.5C 479.5,736.833 479.5,767.167 479.5,797.5C 478.078,794.655 475.911,792.322 473,790.5C 472.667,790.833 472.333,791.167 472,791.5C 469.575,788.937 467.242,786.937 465,785.5C 463.434,786.061 462.101,785.394 461,783.5C 458.67,784.156 457.003,783.156 456,780.5C 454.442,781.345 453.442,780.679 453,778.5C 452.667,778.833 452.333,779.167 452,779.5C 450.173,778.341 448.507,777.008 447,775.5C 446.667,775.833 446.333,776.167 446,776.5C 441.244,773.357 436.911,770.357 433,767.5C 432.667,767.833 432.333,768.167 432,768.5C 429.633,767.181 427.299,765.181 425,762.5C 423.434,763.061 422.101,762.394 421,760.5C 420.667,760.833 420.333,761.167 420,761.5C 417.168,760.038 415.001,758.038 413.5,755.5C 414.072,740.677 418.405,727.011 426.5,714.5C 427.696,716.981 429.196,716.981 431,714.5C 431.333,714.833 431.667,715.167 432,715.5C 432.374,714.584 432.874,713.75 433.5,713C 447.683,705.631 461.849,697.464 476,688.5C 476.333,688.833 476.667,689.167 477,689.5C 478.333,688.167 479.667,686.833 481,685.5C 481.333,685.833 481.667,686.167 482,686.5C 482.71,685.027 483.876,684.36 485.5,684.5 Z"/></g>
<g><path style="opacity:1" fill="#9414ef" d="M 578.5,738.5 C 577.229,724.655 577.229,710.988 578.5,697.5C 581.337,696.384 584.004,696.884 586.5,699C 596.5,705 606.5,711 616.5,717C 603.944,724.395 591.278,731.561 578.5,738.5 Z"/></g>
<g><path style="opacity:0.833" fill="#d5e4fe" d="M 479.5,706.5 C 480.167,713.167 480.833,719.833 481.5,726.5C 481.5,749.833 481.5,773.167 481.5,796.5C 481.719,797.675 481.386,798.675 480.5,799.5C 479.702,799.043 479.369,798.376 479.5,797.5C 479.5,767.167 479.5,736.833 479.5,706.5 Z"/></g>
<g><path style="opacity:1" fill="#b81af4" d="M 578.5,697.5 C 577.229,710.988 577.229,724.655 578.5,738.5C 574.563,740.807 570.563,743.14 566.5,745.5C 564.971,744.237 563.305,743.237 561.5,742.5C 562.833,730.833 562.833,719.167 561.5,707.5C 566.967,703.929 572.633,700.596 578.5,697.5 Z"/></g>
<g><path style="opacity:0.004" fill="#fefffe" d="M 334.5,708.5 C 333.833,707.167 333.833,707.167 334.5,708.5 Z"/></g>
<g><path style="opacity:0.641" fill="#e6effe" d="M 339.5,711.5 C 325.776,716.28 312.609,722.947 300,731.5C 299.667,731.167 299.333,730.833 299,730.5C 297.488,732.686 295.488,734.353 293,735.5C 292.887,737.974 291.887,739.974 290,741.5C 287,742.833 284,742.833 281,741.5C 277.634,738.462 277.801,735.629 281.5,733C 284.095,732.774 286.595,732.274 289,731.5C 289.333,731.833 289.667,732.167 290,732.5C 291.003,729.844 292.67,728.844 295,729.5C 295.576,726.876 296.91,726.209 299,727.5C 302.165,723.265 306.165,720.932 311,720.5C 317.93,714.12 325.764,710.12 334.5,708.5C 340.106,705.336 345.606,703.669 351,703.5C 363.468,698.083 375.802,691.416 388,683.5C 388.333,683.833 388.667,684.167 389,684.5C 395.401,680.23 401.901,676.063 408.5,672C 407.959,669.135 409.293,667.135 412.5,666C 418.688,664.889 421.688,667.223 421.5,673C 419.115,675.687 416.282,676.52 413,675.5C 402.051,681.63 390.051,688.63 377,696.5C 376.667,696.167 376.333,695.833 376,695.5C 373.628,698.844 370.628,700.51 367,700.5C 364.497,702.904 361.497,704.571 358,705.5C 356.354,703.859 355.354,704.193 355,706.5C 353.16,705.167 352.66,705.334 353.5,707C 348.846,708.607 344.18,710.107 339.5,711.5 Z"/></g>
<g><path style="opacity:1" fill="#d023f9" d="M 561.5,707.5 C 562.833,719.167 562.833,730.833 561.5,742.5C 551.363,736.931 541.363,731.097 531.5,725C 541.363,718.903 551.363,713.069 561.5,707.5 Z"/></g>
<g><path style="opacity:0.004" fill="#fefffe" d="M 339.5,711.5 C 338.833,712.167 338.833,712.167 339.5,711.5 Z"/></g>
<g><path style="opacity:1" fill="#cbdcff" d="M 685.5,691.5 C 686.675,691.281 687.675,691.614 688.5,692.5C 675.668,699.748 663.002,707.248 650.5,715C 649.365,715.749 648.365,715.583 647.5,714.5C 660.23,706.808 672.897,699.141 685.5,691.5 Z"/></g>
<g><path style="opacity:0.999" fill="#3180ff" d="M 754.5,702.5 C 754.5,707.5 754.5,712.5 754.5,717.5C 756.167,717.5 757.833,717.5 759.5,717.5C 748.675,724.648 736.675,731.648 723.5,738.5C 722.791,737.596 721.791,737.263 720.5,737.5C 720.267,732.105 720.6,726.772 721.5,721.5C 732.364,714.902 743.364,708.569 754.5,702.5 Z"/></g>
<g><path style="opacity:1" fill="#e0e9ff" d="M 707.5,704.5 C 710.381,705.274 713.048,706.607 715.5,708.5C 702.331,716.585 688.998,724.419 675.5,732C 672.07,732.459 669.07,731.459 666.5,729C 680.23,720.807 693.897,712.641 707.5,704.5 Z"/></g>
<g><path style="opacity:1" fill="#fe7174" d="M 624.5,721.5 C 629.167,724.167 633.833,726.833 638.5,729.5C 638.201,737.253 638.534,744.92 639.5,752.5C 634.15,755.528 628.816,758.528 623.5,761.5C 624.464,748.216 624.797,734.883 624.5,721.5 Z"/></g>
<g><path style="opacity:1" fill="#fe5256" d="M 624.5,721.5 C 624.797,734.883 624.464,748.216 623.5,761.5C 619.732,764.225 615.732,766.725 611.5,769C 609.119,769.738 607.119,769.238 605.5,767.5C 606.82,755.402 606.82,743.402 605.5,731.5C 611.394,727.386 617.728,724.052 624.5,721.5 Z"/></g>
<g><path style="opacity:1" fill="#fe8d90" d="M 638.5,729.5 C 645.279,733.106 651.945,736.939 658.5,741C 652.471,745.347 646.138,749.18 639.5,752.5C 638.534,744.92 638.201,737.253 638.5,729.5 Z"/></g>
<g><path style="opacity:1" fill="#fe373b" d="M 605.5,731.5 C 606.82,743.402 606.82,755.402 605.5,767.5C 600.5,765.336 595.833,762.669 591.5,759.5C 592.117,759.389 592.617,759.056 593,758.5C 593.79,752.085 593.624,745.752 592.5,739.5C 596.295,736.095 600.628,733.429 605.5,731.5 Z"/></g>
<g><path style="opacity:0.999" fill="#448fff" d="M 721.5,721.5 C 720.6,726.772 720.267,732.105 720.5,737.5C 721.791,737.263 722.791,737.596 723.5,738.5C 711.012,746.166 698.012,753.832 684.5,761.5C 684.44,760.957 684.107,760.624 683.5,760.5C 681.677,761.747 679.677,762.414 677.5,762.5C 677.726,757.438 677.392,752.438 676.5,747.5C 691.337,738.581 706.337,729.914 721.5,721.5 Z"/></g>
<g><path style="opacity:1" fill="#fe2124" d="M 592.5,739.5 C 593.624,745.752 593.79,752.085 593,758.5C 592.617,759.056 592.117,759.389 591.5,759.5C 585.696,756.43 580.03,753.097 574.5,749.5C 580.232,745.635 586.232,742.302 592.5,739.5 Z"/></g>
<g><path style="opacity:0.998" fill="#589efe" d="M 676.5,747.5 C 677.392,752.438 677.726,757.438 677.5,762.5C 679.677,762.414 681.677,761.747 683.5,760.5C 684.107,760.624 684.44,760.957 684.5,761.5C 679.008,764.303 674.175,767.303 670,770.5C 668.836,770.835 667.503,770.835 666,770.5C 662.784,774.532 658.617,777.199 653.5,778.5C 650.263,779.546 647.096,780.879 644,782.5C 643.5,782.167 643,781.833 642.5,781.5C 644.37,776.739 645.037,771.739 644.5,766.5C 654.801,759.678 665.467,753.344 676.5,747.5 Z"/></g>
<g><path style="opacity:1" fill="#f5575c" d="M 663.5,759.5 C 665.199,759.34 666.866,759.506 668.5,760C 669.623,764.36 667.956,765.527 663.5,763.5C 662.374,762.192 662.374,760.858 663.5,759.5 Z"/></g>
<g><path style="opacity:1" fill="#e5edff" d="M 649.5,767.5 C 651.199,767.34 652.866,767.506 654.5,768C 655.517,769.049 655.684,770.216 655,771.5C 650.085,773.679 648.251,772.346 649.5,767.5 Z"/></g>
<g><path style="opacity:0.998" fill="#66a8fe" d="M 644.5,766.5 C 645.037,771.739 644.37,776.739 642.5,781.5C 643,781.833 643.5,782.167 644,782.5C 647.096,780.879 650.263,779.546 653.5,778.5C 646.168,784.259 638.502,788.925 630.5,792.5C 625.307,789.74 620.307,786.74 615.5,783.5C 624.666,777.08 634.332,771.413 644.5,766.5 Z"/></g>
<g><path style="opacity:1" fill="#a62af4" d="M 635.5,775.5 C 639.126,774.861 640.959,776.194 641,779.5C 636.085,781.679 634.251,780.346 635.5,775.5 Z"/></g>
</svg>
