<?xml version="1.0" encoding="UTF-8"?>
<!DOCTYPE svg PUBLIC "-//W3C//DTD SVG 1.1//EN" "http://www.w3.org/Graphics/SVG/1.1/DTD/svg11.dtd">
<svg xmlns="http://www.w3.org/2000/svg" version="1.1" width="500px" height="500px" style="shape-rendering:geometricPrecision; text-rendering:geometricPrecision; image-rendering:optimizeQuality; fill-rule:evenodd; clip-rule:evenodd" xmlns:xlink="http://www.w3.org/1999/xlink">
<g><path style="opacity:0.481" fill="#fdd8c3" d="M 280.5,85.5 C 281.117,85.6107 281.617,85.944 282,86.5C 282.5,95.8274 282.666,105.161 282.5,114.5C 281.833,115.833 281.167,117.167 280.5,118.5C 280.5,116.833 280.5,115.167 280.5,113.5C 278.876,113.64 277.71,112.973 277,111.5C 276.667,111.833 276.333,112.167 276,112.5C 272.227,110.307 268.394,107.641 264.5,104.5C 264.167,103.167 263.833,103.167 263.5,104.5C 261.038,102.598 258.538,100.931 256,99.5C 255.667,99.8333 255.333,100.167 255,100.5C 253.667,99.1667 252.333,97.8333 251,96.5C 250.667,96.8333 250.333,97.1667 250,97.5C 249.5,96.5 249,95.5 248.5,94.5C 248.463,92.6778 248.796,90.6778 249.5,88.5C 250.801,87.1155 250.801,85.6155 249.5,84C 250.179,82.0707 251.179,80.0707 252.5,78C 252.355,77.228 252.022,76.5613 251.5,76C 252.438,74.9367 253.438,73.7701 254.5,72.5C 254.291,71.914 253.957,71.414 253.5,71C 257.132,65.2591 261.798,64.2591 267.5,68C 266.655,69.5581 267.321,70.5581 269.5,71C 268.742,72.3639 269.242,73.5305 271,74.5C 272.81,79.321 275.81,83.321 280,86.5C 280.399,86.2716 280.565,85.9382 280.5,85.5 Z"/></g>
<g><path style="opacity:0.478" fill="#fdd8c2" d="M 335.5,106.5 C 335.167,106.5 334.833,106.5 334.5,106.5C 320.166,99.0024 306.166,91.0024 292.5,82.5C 296.463,80.2687 300.13,78.102 303.5,76C 306.734,75.8003 309.734,74.9669 312.5,73.5C 314.055,73.722 315.389,74.3887 316.5,75.5C 317.086,75.2907 317.586,74.9574 318,74.5C 320.546,77.3605 323.38,79.8605 326.5,82C 326.167,82.3333 325.833,82.6667 325.5,83C 326.727,86.0112 328.727,89.0112 331.5,92C 330.511,94.2303 331.178,96.0636 333.5,97.5C 333.167,98.1667 332.833,98.8333 332.5,99.5C 333.1,101.805 334.1,104.139 335.5,106.5 Z"/></g>
<g><path style="opacity:0.752" fill="#c0e5e5" d="M 292.5,82.5 C 306.166,91.0024 320.166,99.0024 334.5,106.5C 334.841,110.893 336.508,114.56 339.5,117.5C 339.351,118.552 339.517,119.552 340,120.5C 344.667,125.167 349.333,129.833 354,134.5C 355.989,138.253 356.822,142.253 356.5,146.5C 351.273,141.779 345.607,137.612 339.5,134C 330.994,130.58 322.66,130.747 314.5,134.5C 313.969,132.376 312.635,130.876 310.5,130C 301.26,124.576 291.927,119.41 282.5,114.5C 282.666,105.161 282.5,95.8274 282,86.5C 281.617,85.944 281.117,85.6107 280.5,85.5C 282.893,83.4137 285.393,81.4137 288,79.5C 289.958,79.2086 291.458,80.2086 292.5,82.5 Z"/></g>
<g><path style="opacity:0.004" fill="#fefffe" d="M 249.5,88.5 C 248.833,87.1667 248.833,87.1667 249.5,88.5 Z"/></g>
<g><path style="opacity:0.004" fill="#fefffe" d="M 263.5,104.5 C 263.833,104.5 264.167,104.5 264.5,104.5C 264.315,105.17 263.981,105.17 263.5,104.5 Z"/></g>
<g><path style="opacity:0.004" fill="#fefffe" d="M 227.5,114.5 C 227.5,127.5 227.5,140.5 227.5,153.5C 227.737,154.791 227.404,155.791 226.5,156.5C 226.737,155.209 226.404,154.209 225.5,153.5C 225.5,152.5 225.5,151.5 225.5,150.5C 226.167,138.5 226.833,126.5 227.5,114.5 Z"/></g>
<g><path style="opacity:0.497" fill="#a1eaf0" d="M 282.5,114.5 C 291.927,119.41 301.26,124.576 310.5,130C 312.635,130.876 313.969,132.376 314.5,134.5C 307.095,139.971 302.761,147.305 301.5,156.5C 301.5,162.833 301.5,169.167 301.5,175.5C 300.833,168.655 300.167,161.655 299.5,154.5C 294.156,151.498 288.823,148.498 283.5,145.5C 282.833,137.343 282.167,129.343 281.5,121.5C 281.5,121.167 281.5,120.833 281.5,120.5C 281.5,119.833 281.167,119.5 280.5,119.5C 280.5,119.167 280.5,118.833 280.5,118.5C 281.167,117.167 281.833,115.833 282.5,114.5 Z"/></g>
<g><path style="opacity:0.479" fill="#fdd8c2" d="M 222.5,138.5 C 222.721,139.735 223.388,140.735 224.5,141.5C 223.282,142.803 223.615,143.803 225.5,144.5C 224.181,146.532 224.181,148.532 225.5,150.5C 225.5,151.5 225.5,152.5 225.5,153.5C 215.903,158.769 206.57,164.436 197.5,170.5C 197.167,169.167 196.833,169.167 196.5,170.5C 192.872,171.837 189.372,174.171 186,177.5C 185.667,177.167 185.333,176.833 185,176.5C 183.667,177.833 182.333,179.167 181,180.5C 179.434,179.939 178.101,180.606 177,182.5C 176.667,182.167 176.333,181.833 176,181.5C 174.43,182.614 173.097,183.947 172,185.5C 171.667,185.167 171.333,184.833 171,184.5C 168.866,185.992 166.866,187.659 165,189.5C 164.667,189.167 164.333,188.833 164,188.5C 162.667,189.833 161.333,191.167 160,192.5C 159.667,192.167 159.333,191.833 159,191.5C 157.406,193.982 155.572,194.148 153.5,192C 152.216,188.641 152.216,185.308 153.5,182C 157.275,175.967 161.775,170.467 167,165.5C 167.617,164.551 167.451,163.718 166.5,163C 168.301,162.683 168.634,162.016 167.5,161C 169.527,159.604 169.86,157.938 168.5,156C 170.301,155.683 170.634,155.016 169.5,154C 171.701,152.316 172.367,150.316 171.5,148C 173.304,146.458 174.971,144.791 176.5,143C 176.167,142.667 175.833,142.333 175.5,142C 178.77,140.369 182.603,139.202 187,138.5C 191.84,141.299 196.34,143.966 200.5,146.5C 202.737,146.306 204.903,146.306 207,146.5C 209.234,141.931 211.9,137.597 215,133.5C 216.548,132.316 218.048,132.483 219.5,134C 220.328,134.915 221.328,135.581 222.5,136C 221.226,136.977 221.226,137.811 222.5,138.5 Z"/></g>
<g><path style="opacity:0.474" fill="#56dbd9" d="M 334.5,106.5 C 334.833,106.5 335.167,106.5 335.5,106.5C 341.995,110.053 348.162,114.053 354,118.5C 355.566,117.939 356.899,118.606 358,120.5C 359.566,119.939 360.899,120.606 362,122.5C 363.943,122.041 365.276,123.041 366,125.5C 367.503,125.165 368.836,125.165 370,125.5C 373,127.833 376,130.167 379,132.5C 379.333,132.167 379.667,131.833 380,131.5C 381.936,133.254 383.77,134.921 385.5,136.5C 381.988,135.945 378.988,136.612 376.5,138.5C 364.032,131.765 351.698,124.765 339.5,117.5C 336.508,114.56 334.841,110.893 334.5,106.5 Z"/></g>
<g><path style="opacity:1" fill="#fe927c" d="M 335.5,135.5 C 335.5,137.833 335.5,140.167 335.5,142.5C 320.097,138.386 311.764,144.386 310.5,160.5C 306.617,160.249 304.617,158.249 304.5,154.5C 308.524,137.801 318.857,131.468 335.5,135.5 Z"/></g>
<g><path style="opacity:0.004" fill="#fefffe" d="M 222.5,137.5 C 223.833,138.167 223.833,138.167 222.5,137.5 Z"/></g>
<g><path style="opacity:0.994" fill="#20b1ab" d="M 280.5,118.5 C 280.5,118.833 280.5,119.167 280.5,119.5C 281.167,119.5 281.5,119.833 281.5,120.5C 281.5,120.833 281.5,121.167 281.5,121.5C 281.667,133.171 281.5,144.838 281,156.5C 280.586,156.957 280.086,157.291 279.5,157.5C 276.312,156.075 273.312,154.408 270.5,152.5C 260.612,146.971 250.779,141.305 241,135.5C 240.667,130.167 240.333,124.833 240,119.5C 239.283,118.956 238.783,118.289 238.5,117.5C 237.908,111.369 238.575,105.536 240.5,100C 240.167,99.6667 239.833,99.3333 239.5,99C 241.132,97.6896 242.799,97.1896 244.5,97.5C 255.577,104.11 267.577,111.11 280.5,118.5 Z"/></g>
<g><path style="opacity:0.993" fill="#fa8d78" d="M 276.5,135.5 C 276.821,140.695 276.487,145.695 275.5,150.5C 274.85,150.196 274.183,149.863 273.5,149.5C 272.511,145.893 272.177,142.226 272.5,138.5C 271.608,133.494 272.941,132.494 276.5,135.5 Z"/></g>
<g><path style="opacity:0.502" fill="#c4eef6" d="M 270.5,125.5 C 273.391,126.403 276.391,126.736 279.5,126.5C 280.069,130.329 279.402,133.663 277.5,136.5C 277.5,135.833 277.167,135.5 276.5,135.5C 272.941,132.494 271.608,133.494 272.5,138.5C 271.833,137.167 271.167,135.833 270.5,134.5C 270.5,131.5 270.5,128.5 270.5,125.5 Z"/></g>
<g><path style="opacity:0.995" fill="#fc8e79" d="M 247.5,124.5 C 247.665,127.518 247.498,130.518 247,133.5C 245.887,132.695 244.721,132.028 243.5,131.5C 243.335,128.482 243.502,125.482 244,122.5C 245.113,123.305 246.279,123.972 247.5,124.5 Z"/></g>
<g><path style="opacity:0.996" fill="#fc8c77" d="M 264.5,134.5 C 264.665,137.518 264.498,140.518 264,143.5C 262.482,142.837 261.315,141.837 260.5,140.5C 260.17,134.132 260.504,127.798 261.5,121.5C 262.478,121.977 263.311,122.643 264,123.5C 264.499,127.152 264.665,130.818 264.5,134.5 Z"/></g>
<g><path style="opacity:0.994" fill="#fa9480" d="M 270.5,125.5 C 270.5,128.5 270.5,131.5 270.5,134.5C 270.824,138.555 270.491,142.555 269.5,146.5C 268.252,145.96 267.085,145.293 266,144.5C 265.502,141.183 265.335,137.85 265.5,134.5C 265.17,128.132 265.504,121.798 266.5,115.5C 267.748,116.04 268.915,116.707 270,117.5C 270.497,120.146 270.664,122.813 270.5,125.5 Z"/></g>
<g><path style="opacity:0.99" fill="#fc8c78" d="M 254.5,113.5 C 255.583,113.539 256.583,113.873 257.5,114.5C 258.494,119.456 258.827,124.456 258.5,129.5C 258.82,132.898 258.487,136.232 257.5,139.5C 256.261,139.058 255.261,138.391 254.5,137.5C 254.5,129.5 254.5,121.5 254.5,113.5 Z"/></g>
<g><path style="opacity:0.781" fill="#f2b1a0" d="M 252.5,107.5 C 253.167,109.5 253.833,111.5 254.5,113.5C 254.5,121.5 254.5,129.5 254.5,137.5C 253.29,137.068 252.29,136.401 251.5,135.5C 252.494,126.348 252.827,117.015 252.5,107.5 Z"/></g>
<g><path style="opacity:0.501" fill="#ecf0f2" d="M 279.5,126.5 C 276.391,126.736 273.391,126.403 270.5,125.5C 270.664,122.813 270.497,120.146 270,117.5C 268.915,116.707 267.748,116.04 266.5,115.5C 265.504,121.798 265.17,128.132 265.5,134.5C 265.167,134.5 264.833,134.5 264.5,134.5C 264.665,130.818 264.499,127.152 264,123.5C 263.311,122.643 262.478,121.977 261.5,121.5C 260.504,127.798 260.17,134.132 260.5,140.5C 259.833,136.833 259.167,133.167 258.5,129.5C 258.827,124.456 258.494,119.456 257.5,114.5C 256.583,113.873 255.583,113.539 254.5,113.5C 253.833,111.5 253.167,109.5 252.5,107.5C 251.739,106.609 250.739,105.942 249.5,105.5C 248.504,111.798 248.17,118.132 248.5,124.5C 248.167,124.5 247.833,124.5 247.5,124.5C 246.279,123.972 245.113,123.305 244,122.5C 243.502,125.482 243.335,128.482 243.5,131.5C 243.167,131.5 242.833,131.5 242.5,131.5C 242.168,121.145 242.501,110.812 243.5,100.5C 255.297,106.9 266.964,113.567 278.5,120.5C 279.466,122.396 279.799,124.396 279.5,126.5 Z"/></g>
<g><path style="opacity:0.996" fill="#fd8f7b" d="M 252.5,107.5 C 252.827,117.015 252.494,126.348 251.5,135.5C 250.504,135.586 249.671,135.252 249,134.5C 248.502,131.183 248.335,127.85 248.5,124.5C 248.17,118.132 248.504,111.798 249.5,105.5C 250.739,105.942 251.739,106.609 252.5,107.5 Z"/></g>
<g><path style="opacity:0.749" fill="#7fdfdf" d="M 247.5,124.5 C 247.833,124.5 248.167,124.5 248.5,124.5C 248.335,127.85 248.502,131.183 249,134.5C 249.671,135.252 250.504,135.586 251.5,135.5C 252.29,136.401 253.29,137.068 254.5,137.5C 255.261,138.391 256.261,139.058 257.5,139.5C 258.487,136.232 258.82,132.898 258.5,129.5C 259.167,133.167 259.833,136.833 260.5,140.5C 261.315,141.837 262.482,142.837 264,143.5C 264.498,140.518 264.665,137.518 264.5,134.5C 264.833,134.5 265.167,134.5 265.5,134.5C 265.335,137.85 265.502,141.183 266,144.5C 267.085,145.293 268.252,145.96 269.5,146.5C 270.491,142.555 270.824,138.555 270.5,134.5C 271.167,135.833 271.833,137.167 272.5,138.5C 272.177,142.226 272.511,145.893 273.5,149.5C 274.183,149.863 274.85,150.196 275.5,150.5C 275.5,150.833 275.5,151.167 275.5,151.5C 265.394,146.278 255.394,140.778 245.5,135C 243.937,134.241 242.937,133.074 242.5,131.5C 242.833,131.5 243.167,131.5 243.5,131.5C 244.721,132.028 245.887,132.695 247,133.5C 247.498,130.518 247.665,127.518 247.5,124.5 Z"/></g>
<g><path style="opacity:0.859" fill="#cdb19f" d="M 276.5,135.5 C 277.167,135.5 277.5,135.833 277.5,136.5C 278.108,141.944 277.442,146.944 275.5,151.5C 275.5,151.167 275.5,150.833 275.5,150.5C 276.487,145.695 276.821,140.695 276.5,135.5 Z"/></g>
<g><path style="opacity:0.502" fill="#96e8ec" d="M 238.5,117.5 C 238.783,118.289 239.283,118.956 240,119.5C 240.333,124.833 240.667,130.167 241,135.5C 250.779,141.305 260.612,146.971 270.5,152.5C 267.109,154.125 263.442,155.125 259.5,155.5C 253.691,151.529 247.524,148.195 241,145.5C 238.594,145.703 236.594,146.703 235,148.5C 234.501,152.152 234.335,155.818 234.5,159.5C 233.539,157.735 233.205,155.735 233.5,153.5C 231.5,153.5 229.5,153.5 227.5,153.5C 227.5,140.5 227.5,127.5 227.5,114.5C 229.616,113.947 231.616,113.947 233.5,114.5C 234.892,115.605 236.059,116.939 237,118.5C 237.383,117.944 237.883,117.611 238.5,117.5 Z"/></g>
<g><path style="opacity:0.99" fill="#f0f2f2" d="M 356.5,146.5 C 362.839,153.849 368.172,161.849 372.5,170.5C 375.268,177.8 377.601,185.133 379.5,192.5C 379.745,201.208 379.411,209.874 378.5,218.5C 373.504,235.832 362.171,242.665 344.5,239C 341.102,237.643 338.102,235.81 335.5,233.5C 335.5,232.833 335.5,232.167 335.5,231.5C 354.601,242.689 368.101,238.023 376,217.5C 376.548,213.83 377.048,210.163 377.5,206.5C 376.929,186.109 370.263,168.109 357.5,152.5C 351.859,144.512 344.525,138.845 335.5,135.5C 318.857,131.468 308.524,137.801 304.5,154.5C 303.662,154.842 303.328,155.508 303.5,156.5C 302.833,156.5 302.167,156.5 301.5,156.5C 302.761,147.305 307.095,139.971 314.5,134.5C 322.66,130.747 330.994,130.58 339.5,134C 345.607,137.612 351.273,141.779 356.5,146.5 Z"/></g>
<g><path style="opacity:0.752" fill="#bfe4e4" d="M 335.5,135.5 C 344.525,138.845 351.859,144.512 357.5,152.5C 356.733,153.172 356.066,154.005 355.5,155C 353.981,154.669 352.648,154.836 351.5,155.5C 346.771,150.439 341.438,146.106 335.5,142.5C 335.5,140.167 335.5,137.833 335.5,135.5 Z"/></g>
<g><path style="opacity:0.467" fill="#12cbc7" d="M 417.5,154.5 C 415.059,155.557 412.725,156.89 410.5,158.5C 398.774,152.311 387.441,145.644 376.5,138.5C 378.988,136.612 381.988,135.945 385.5,136.5C 386.117,136.389 386.617,136.056 387,135.5C 391.028,137.779 395.028,140.779 399,144.5C 400.749,143.701 402.082,144.368 403,146.5C 404.566,145.939 405.899,146.606 407,148.5C 407.333,148.167 407.667,147.833 408,147.5C 411.21,149.859 414.377,152.193 417.5,154.5 Z"/></g>
<g><path style="opacity:0.657" fill="#81e4e5" d="M 281.5,121.5 C 282.167,129.343 282.833,137.343 283.5,145.5C 288.823,148.498 294.156,151.498 299.5,154.5C 300.167,161.655 300.833,168.655 301.5,175.5C 301.657,176.873 301.49,178.207 301,179.5C 287.221,171.362 273.388,163.362 259.5,155.5C 263.442,155.125 267.109,154.125 270.5,152.5C 273.312,154.408 276.312,156.075 279.5,157.5C 280.086,157.291 280.586,156.957 281,156.5C 281.5,144.838 281.667,133.171 281.5,121.5 Z"/></g>
<g><path style="opacity:0.998" fill="#cdf0f7" d="M 259.5,155.5 C 273.388,163.362 287.221,171.362 301,179.5C 301.49,178.207 301.657,176.873 301.5,175.5C 301.5,169.167 301.5,162.833 301.5,156.5C 302.167,156.5 302.833,156.5 303.5,156.5C 303.334,163.175 303.5,169.842 304,176.5C 304.093,181.432 306.593,184.432 311.5,185.5C 311.833,184.667 312.167,183.833 312.5,183C 310.796,175.94 310.129,168.773 310.5,161.5C 311.9,160.9 312.9,159.9 313.5,158.5C 312.364,163.985 312.364,169.319 313.5,174.5C 314.185,179.239 315.185,183.905 316.5,188.5C 311.982,189.265 307.482,188.598 303,186.5C 302.809,188.708 302.309,190.708 301.5,192.5C 301.808,190.076 301.474,187.743 300.5,185.5C 299.52,188.086 299.187,190.753 299.5,193.5C 297.139,193.326 294.806,192.993 292.5,192.5C 292.737,191.209 292.404,190.209 291.5,189.5C 291.817,186.428 291.484,183.428 290.5,180.5C 289.513,183.768 289.18,187.102 289.5,190.5C 287.302,191.067 284.969,191.067 282.5,190.5C 282.5,185.167 282.5,179.833 282.5,174.5C 281.5,174.5 280.5,174.5 279.5,174.5C 279.5,181.5 279.5,188.5 279.5,195.5C 277.517,195.157 276.183,195.824 275.5,197.5C 273.754,193.111 272.754,188.444 272.5,183.5C 272.827,178.456 272.494,173.456 271.5,168.5C 270.516,171.428 270.183,174.428 270.5,177.5C 267.117,175.772 264.45,176.439 262.5,179.5C 262.828,174.125 262.495,168.792 261.5,163.5C 260.181,170.656 260.181,177.656 261.5,184.5C 261.011,185.995 260.345,187.329 259.5,188.5C 258.225,186.27 256.225,184.937 253.5,184.5C 253.666,175.827 253.5,167.16 253,158.5C 252.31,157.262 251.81,157.262 251.5,158.5C 250.515,162.634 250.182,166.968 250.5,171.5C 248.738,171.643 247.071,171.309 245.5,170.5C 244.832,168.031 244.165,165.698 243.5,163.5C 243.823,159.774 243.489,156.107 242.5,152.5C 241.502,161.475 241.168,170.475 241.5,179.5C 238.956,179.896 236.789,179.229 235,177.5C 234.501,171.509 234.334,165.509 234.5,159.5C 234.335,155.818 234.501,152.152 235,148.5C 236.594,146.703 238.594,145.703 241,145.5C 247.524,148.195 253.691,151.529 259.5,155.5 Z"/></g>
<g><path style="opacity:0.502" fill="#8de4e6" d="M 365.5,188.5 C 359.53,187.834 353.53,187.167 347.5,186.5C 346.893,186.624 346.56,186.957 346.5,187.5C 340.531,180.69 334.698,173.69 329,166.5C 328.506,168.134 328.34,169.801 328.5,171.5C 328.819,176.363 328.486,181.03 327.5,185.5C 327.666,180.489 327.499,175.489 327,170.5C 322.731,167.778 318.231,165.778 313.5,164.5C 313.5,167.833 313.5,171.167 313.5,174.5C 312.364,169.319 312.364,163.985 313.5,158.5C 317.191,143.163 325.857,139.663 339.5,148C 352.562,158.611 361.229,172.111 365.5,188.5 Z"/></g>
<g><path style="opacity:0.502" fill="#95e8eb" d="M 339.5,117.5 C 351.698,124.765 364.032,131.765 376.5,138.5C 387.441,145.644 398.774,152.311 410.5,158.5C 412.725,156.89 415.059,155.557 417.5,154.5C 417.5,172.167 417.5,189.833 417.5,207.5C 416.198,208.807 414.865,208.807 413.5,207.5C 412.004,211.335 411.004,211.335 410.5,207.5C 410.318,194.495 409.985,181.495 409.5,168.5C 396.788,167.854 384.455,168.52 372.5,170.5C 368.172,161.849 362.839,153.849 356.5,146.5C 356.822,142.253 355.989,138.253 354,134.5C 349.333,129.833 344.667,125.167 340,120.5C 339.517,119.552 339.351,118.552 339.5,117.5 Z"/></g>
<g><path style="opacity:0.991" fill="#eff2f4" d="M 335.5,142.5 C 341.438,146.106 346.771,150.439 351.5,155.5C 362.918,169.41 369.252,185.41 370.5,203.5C 371.351,213.804 368.017,222.304 360.5,229C 356.259,230.457 351.926,230.791 347.5,230C 343.083,228.067 339.083,225.567 335.5,222.5C 335.351,221.448 335.517,220.448 336,219.5C 340.663,224.332 346.33,226.999 353,227.5C 361.921,226.753 366.588,221.753 367,212.5C 367.938,204.378 367.438,196.378 365.5,188.5C 361.229,172.111 352.562,158.611 339.5,148C 325.857,139.663 317.191,143.163 313.5,158.5C 312.9,159.9 311.9,160.9 310.5,161.5C 310.5,161.167 310.5,160.833 310.5,160.5C 311.764,144.386 320.097,138.386 335.5,142.5 Z"/></g>
<g><path style="opacity:0.464" fill="#78e1e2" d="M 227.5,153.5 C 229.5,153.5 231.5,153.5 233.5,153.5C 233.205,155.735 233.539,157.735 234.5,159.5C 234.334,165.509 234.501,171.509 235,177.5C 236.789,179.229 238.956,179.896 241.5,179.5C 241.666,189.839 241.5,200.172 241,210.5C 239.215,209.76 237.382,209.093 235.5,208.5C 234.833,205.5 234.167,202.5 233.5,199.5C 232.817,199.863 232.15,200.196 231.5,200.5C 231.167,199.833 230.833,199.167 230.5,198.5C 231.833,198.5 233.167,198.5 234.5,198.5C 234.701,189.792 234.201,181.125 233,172.5C 231.295,171.237 229.628,170.903 228,171.5C 227.826,166.649 227.326,161.982 226.5,157.5C 226.5,157.167 226.5,156.833 226.5,156.5C 227.404,155.791 227.737,154.791 227.5,153.5 Z"/></g>
<g><path style="opacity:0.004" fill="#fefffe" d="M 196.5,170.5 C 196.833,170.5 197.167,170.5 197.5,170.5C 197.315,171.17 196.981,171.17 196.5,170.5 Z"/></g>
<g><path style="opacity:1" fill="#3fb4ad" d="M 272.5,183.5 C 271.542,181.698 270.875,179.698 270.5,177.5C 270.183,174.428 270.516,171.428 271.5,168.5C 272.494,173.456 272.827,178.456 272.5,183.5 Z"/></g>
<g><path style="opacity:1" fill="#41beba" d="M 262.5,179.5 C 262.634,181.292 262.301,182.958 261.5,184.5C 260.181,177.656 260.181,170.656 261.5,163.5C 262.495,168.792 262.828,174.125 262.5,179.5 Z"/></g>
<g><path style="opacity:0.999" fill="#f78e78" d="M 346.5,187.5 C 348.091,190.431 350.091,193.098 352.5,195.5C 349.215,196.324 345.882,196.824 342.5,197C 349.167,201 355.833,205 362.5,209C 363.674,211.829 362.674,212.829 359.5,212C 351.667,207.5 343.833,203 336,198.5C 333.136,204.591 330.969,210.925 329.5,217.5C 328.514,219.426 327.514,221.426 326.5,223.5C 323.546,231.741 320.879,240.075 318.5,248.5C 315.918,254.945 313.251,261.445 310.5,268C 308.765,268.651 307.098,268.485 305.5,267.5C 304.162,263.738 302.828,260.071 301.5,256.5C 301.198,253.627 300.531,250.961 299.5,248.5C 298.135,240.345 296.135,232.345 293.5,224.5C 290.415,229 287.582,233.667 285,238.5C 282.733,239.935 280.733,239.602 279,237.5C 278.027,234.421 277.194,231.421 276.5,228.5C 274.191,212.645 271.025,196.978 267,181.5C 261.193,197.088 255.693,212.755 250.5,228.5C 248.703,232.685 247.37,237.018 246.5,241.5C 244.29,245.803 241.29,246.47 237.5,243.5C 234.814,231.424 231.814,219.424 228.5,207.5C 228.043,206.702 227.376,206.369 226.5,206.5C 223.237,212.138 219.737,217.138 216,221.5C 215.259,220.359 214.425,220.359 213.5,221.5C 212.803,219.615 211.803,219.282 210.5,220.5C 208.581,219.388 206.914,218.054 205.5,216.5C 204,214.821 202.167,213.488 200,212.5C 199.209,211.255 198.709,209.922 198.5,208.5C 200.045,206.195 202.045,205.862 204.5,207.5C 203.402,208.397 203.402,209.23 204.5,210C 206.443,211.555 208.61,212.722 211,213.5C 216.252,211.648 219.085,207.981 219.5,202.5C 221.124,199.21 223.457,196.543 226.5,194.5C 227.527,196.194 228.861,197.527 230.5,198.5C 230.833,199.167 231.167,199.833 231.5,200.5C 234.361,213.609 237.694,226.609 241.5,239.5C 246.417,228.501 250.417,217.168 253.5,205.5C 255.874,200.048 257.874,194.381 259.5,188.5C 260.345,187.329 261.011,185.995 261.5,184.5C 262.301,182.958 262.634,181.292 262.5,179.5C 264.45,176.439 267.117,175.772 270.5,177.5C 270.875,179.698 271.542,181.698 272.5,183.5C 272.754,188.444 273.754,193.111 275.5,197.5C 277.339,210.202 279.506,222.869 282,235.5C 283.777,232.941 285.277,230.274 286.5,227.5C 287.82,225.537 289.154,223.537 290.5,221.5C 290.5,220.833 290.833,220.5 291.5,220.5C 293.467,220.261 295.301,220.594 297,221.5C 297.943,224.251 298.776,226.917 299.5,229.5C 302.266,241.157 305.099,252.824 308,264.5C 312.866,252.402 317.033,240.069 320.5,227.5C 324.613,217.417 328.279,207.084 331.5,196.5C 332.151,195.909 332.818,195.243 333.5,194.5C 334.833,187.833 334.833,181.167 333.5,174.5C 331.64,173.74 329.973,172.74 328.5,171.5C 328.34,169.801 328.506,168.134 329,166.5C 334.698,173.69 340.531,180.69 346.5,187.5 Z"/></g>
<g><path style="opacity:1" fill="#dcb089" d="M 304.5,154.5 C 304.617,158.249 306.617,160.249 310.5,160.5C 310.5,160.833 310.5,161.167 310.5,161.5C 310.129,168.773 310.796,175.94 312.5,183C 312.167,183.833 311.833,184.667 311.5,185.5C 306.593,184.432 304.093,181.432 304,176.5C 303.5,169.842 303.334,163.175 303.5,156.5C 303.328,155.508 303.662,154.842 304.5,154.5 Z"/></g>
<g><path style="opacity:1" fill="#d4ac81" d="M 328.5,171.5 C 329.973,172.74 331.64,173.74 333.5,174.5C 334.833,181.167 334.833,187.833 333.5,194.5C 332.818,195.243 332.151,195.909 331.5,196.5C 330.432,195.566 329.099,195.232 327.5,195.5C 327.5,192.167 327.5,188.833 327.5,185.5C 328.486,181.03 328.819,176.363 328.5,171.5 Z"/></g>
<g><path style="opacity:0.502" fill="#77e1e2" d="M 410.5,207.5 C 409.511,202.025 409.178,196.358 409.5,190.5C 399.24,189.898 389.24,190.564 379.5,192.5C 377.601,185.133 375.268,177.8 372.5,170.5C 384.455,168.52 396.788,167.854 409.5,168.5C 409.985,181.495 410.318,194.495 410.5,207.5 Z"/></g>
<g><path style="opacity:0.752" fill="#5fdcdb" d="M 327.5,185.5 C 327.5,188.833 327.5,192.167 327.5,195.5C 324.003,192.917 320.336,190.584 316.5,188.5C 315.185,183.905 314.185,179.239 313.5,174.5C 313.5,171.167 313.5,167.833 313.5,164.5C 318.231,165.778 322.731,167.778 327,170.5C 327.499,175.489 327.666,180.489 327.5,185.5 Z"/></g>
<g><path style="opacity:0.431" fill="#41dcda" d="M 226.5,157.5 C 227.326,161.982 227.826,166.649 228,171.5C 229.628,170.903 231.295,171.237 233,172.5C 234.201,181.125 234.701,189.792 234.5,198.5C 233.167,198.5 231.833,198.5 230.5,198.5C 228.861,197.527 227.527,196.194 226.5,194.5C 226.5,182.167 226.5,169.833 226.5,157.5 Z"/></g>
<g><path style="opacity:0.502" fill="#7ae1e2" d="M 357.5,152.5 C 370.263,168.109 376.929,186.109 377.5,206.5C 375.313,205.242 372.98,204.242 370.5,203.5C 369.252,185.41 362.918,169.41 351.5,155.5C 352.648,154.836 353.981,154.669 355.5,155C 356.066,154.005 356.733,153.172 357.5,152.5 Z"/></g>
<g><path style="opacity:0.998" fill="#a2eaef" d="M 316.5,188.5 C 320.336,190.584 324.003,192.917 327.5,195.5C 329.099,195.232 330.432,195.566 331.5,196.5C 328.279,207.084 324.613,217.417 320.5,227.5C 320.832,217.145 320.499,206.812 319.5,196.5C 318.505,201.792 318.172,207.125 318.5,212.5C 316.738,212.643 315.071,212.309 313.5,211.5C 312.749,212.376 312.249,213.376 312,214.5C 311.5,206.841 311.334,199.174 311.5,191.5C 310.5,191.5 309.5,191.5 308.5,191.5C 308.83,197.868 308.496,204.202 307.5,210.5C 305.591,209.652 303.591,209.318 301.5,209.5C 301.5,203.833 301.5,198.167 301.5,192.5C 302.309,190.708 302.809,188.708 303,186.5C 307.482,188.598 311.982,189.265 316.5,188.5 Z"/></g>
<g><path style="opacity:1" fill="#92e5e8" d="M 253.5,184.5 C 256.225,184.937 258.225,186.27 259.5,188.5C 257.874,194.381 255.874,200.048 253.5,205.5C 253.5,198.5 253.5,191.5 253.5,184.5 Z"/></g>
<g><path style="opacity:1" fill="#14b7b1" d="M 291.5,189.5 C 291.5,199.833 291.5,210.167 291.5,220.5C 290.833,220.5 290.5,220.833 290.5,221.5C 289.506,211.347 289.172,201.014 289.5,190.5C 289.18,187.102 289.513,183.768 290.5,180.5C 291.484,183.428 291.817,186.428 291.5,189.5 Z"/></g>
<g><path style="opacity:0.004" fill="#fefffe" d="M 167.5,197.5 C 166.833,196.167 166.833,196.167 167.5,197.5 Z"/></g>
<g><path style="opacity:0.004" fill="#feffbc" d="M 170.5,196.5 C 171.833,197.167 171.833,197.167 170.5,196.5 Z"/></g>
<g><path style="opacity:0.559" fill="#fdd7c1" d="M 167.5,197.5 C 168.5,197.5 169.5,197.5 170.5,197.5C 171.313,198.653 172.313,198.653 173.5,197.5C 179.068,200.231 183.568,204.231 187,209.5C 188.395,208.185 189.395,208.519 190,210.5C 191.796,209.233 193.629,209.233 195.5,210.5C 196.265,209.388 197.265,208.721 198.5,208.5C 198.709,209.922 199.209,211.255 200,212.5C 202.167,213.488 204,214.821 205.5,216.5C 203.021,219.237 200.355,221.071 197.5,222C 198.5,222.333 199.5,222.667 200.5,223C 197.635,223.183 194.969,223.683 192.5,224.5C 190.205,225.136 188.539,226.469 187.5,228.5C 185.876,228.36 184.71,229.027 184,230.5C 182.984,229.366 182.317,229.699 182,231.5C 181.667,231.167 181.333,230.833 181,230.5C 178.655,233.553 175.988,235.553 173,236.5C 172.667,236.167 172.333,235.833 172,235.5C 170.903,237.053 169.57,238.386 168,239.5C 167.667,239.167 167.333,238.833 167,238.5C 163.393,241.852 159.727,244.519 156,246.5C 155.667,246.167 155.333,245.833 155,245.5C 148.758,249.372 142.591,253.372 136.5,257.5C 135.914,257.291 135.414,256.957 135,256.5C 134.535,257.931 133.701,259.097 132.5,260C 130.671,260.273 129.171,261.107 128,262.5C 127.667,262.167 127.333,261.833 127,261.5C 125.961,262.71 124.794,263.71 123.5,264.5C 123.167,263.167 122.833,263.167 122.5,264.5C 117.921,265.082 113.254,266.249 108.5,268C 103.5,270.833 98.5,273.667 93.5,276.5C 91.7988,276.81 90.1322,276.31 88.5,275C 88.8333,274.667 89.1667,274.333 89.5,274C 87.7357,268.454 86.9024,262.62 87,256.5C 79.0681,245.428 79.7348,234.428 89,223.5C 89.3333,223.833 89.6667,224.167 90,224.5C 92,222.5 94,220.5 96,218.5C 96.3333,218.833 96.6667,219.167 97,219.5C 100.333,217.5 103.667,215.5 107,213.5C 111.333,213.5 115.667,213.5 120,213.5C 121.314,214.313 122.481,215.313 123.5,216.5C 124.086,216.291 124.586,215.957 125,215.5C 126.097,217.053 127.43,218.386 129,219.5C 135.666,214.598 142.833,210.431 150.5,207C 150.167,206.667 149.833,206.333 149.5,206C 151.679,203.489 154.179,201.322 157,199.5C 157.333,199.833 157.667,200.167 158,200.5C 159.586,199.624 161.086,198.624 162.5,197.5C 164.316,198.735 165.983,198.735 167.5,197.5 Z"/></g>
<g><path style="opacity:0.433" fill="#fed7c1" d="M 219.5,202.5 C 219.085,207.981 216.252,211.648 211,213.5C 208.61,212.722 206.443,211.555 204.5,210C 203.402,209.23 203.402,208.397 204.5,207.5C 205.573,206.342 206.739,206.342 208,207.5C 208.945,207.095 209.612,206.428 210,205.5C 210.333,205.833 210.667,206.167 211,206.5C 211.677,204.311 212.844,203.978 214.5,205.5C 216.36,204.74 218.027,203.74 219.5,202.5 Z"/></g>
<g><path style="opacity:1" fill="#fe8d78" d="M 370.5,203.5 C 372.98,204.242 375.313,205.242 377.5,206.5C 377.048,210.163 376.548,213.83 376,217.5C 368.101,238.023 354.601,242.689 335.5,231.5C 335.5,231.167 335.5,230.833 335.5,230.5C 335.5,227.833 335.5,225.167 335.5,222.5C 339.083,225.567 343.083,228.067 347.5,230C 351.926,230.791 356.259,230.457 360.5,229C 368.017,222.304 371.351,213.804 370.5,203.5 Z"/></g>
<g><path style="opacity:0.502" fill="#5cdbda" d="M 410.5,207.5 C 411.004,211.335 412.004,211.335 413.5,207.5C 414.865,208.807 416.198,208.807 417.5,207.5C 417.5,216.833 417.5,226.167 417.5,235.5C 415.208,235.244 413.041,235.577 411,236.5C 409.928,230.545 409.428,224.545 409.5,218.5C 399.167,218.5 388.833,218.5 378.5,218.5C 379.411,209.874 379.745,201.208 379.5,192.5C 389.24,190.564 399.24,189.898 409.5,190.5C 409.178,196.358 409.511,202.025 410.5,207.5 Z"/></g>
<g><path style="opacity:0.502" fill="#59d9d6" d="M 365.5,188.5 C 367.438,196.378 367.938,204.378 367,212.5C 366.588,221.753 361.921,226.753 353,227.5C 346.33,226.999 340.663,224.332 336,219.5C 335.517,220.448 335.351,221.448 335.5,222.5C 333.5,220.833 331.5,219.167 329.5,217.5C 330.969,210.925 333.136,204.591 336,198.5C 343.833,203 351.667,207.5 359.5,212C 362.674,212.829 363.674,211.829 362.5,209C 355.833,205 349.167,201 342.5,197C 345.882,196.824 349.215,196.324 352.5,195.5C 350.091,193.098 348.091,190.431 346.5,187.5C 346.56,186.957 346.893,186.624 347.5,186.5C 353.53,187.167 359.53,187.834 365.5,188.5 Z"/></g>
<g><path style="opacity:0.004" fill="#fefffe" d="M 109.5,212.5 C 110.833,213.167 110.833,213.167 109.5,212.5 Z"/></g>
<g><path style="opacity:0.729" fill="#fec6ad" d="M 138.5,246.5 C 137.878,244.665 136.544,243.498 134.5,243C 126.563,239.535 118.563,236.368 110.5,233.5C 122.39,226.054 134.723,219.388 147.5,213.5C 147.335,215.827 146.669,217.993 145.5,220C 152.67,221.052 159.67,223.218 166.5,226.5C 167.287,227.242 167.953,228.075 168.5,229C 158.937,235.614 148.937,241.447 138.5,246.5 Z"/></g>
<g><path style="opacity:1" fill="#7ce0e1" d="M 291.5,189.5 C 292.404,190.209 292.737,191.209 292.5,192.5C 294.806,192.993 297.139,193.326 299.5,193.5C 299.5,205.5 299.5,217.5 299.5,229.5C 298.776,226.917 297.943,224.251 297,221.5C 295.301,220.594 293.467,220.261 291.5,220.5C 291.5,210.167 291.5,199.833 291.5,189.5 Z"/></g>
<g><path style="opacity:1" fill="#35c9c4" d="M 243.5,163.5 C 243.5,172.167 243.5,180.833 243.5,189.5C 243.5,196.167 243.5,202.833 243.5,209.5C 245.806,209.993 248.139,210.326 250.5,210.5C 251.377,201.867 251.711,193.2 251.5,184.5C 251.5,175.833 251.5,167.167 251.5,158.5C 251.81,157.262 252.31,157.262 253,158.5C 253.5,167.16 253.666,175.827 253.5,184.5C 253.5,191.5 253.5,198.5 253.5,205.5C 250.417,217.168 246.417,228.501 241.5,239.5C 237.694,226.609 234.361,213.609 231.5,200.5C 232.15,200.196 232.817,199.863 233.5,199.5C 234.167,202.5 234.833,205.5 235.5,208.5C 237.382,209.093 239.215,209.76 241,210.5C 241.5,200.172 241.666,189.839 241.5,179.5C 241.168,170.475 241.502,161.475 242.5,152.5C 243.489,156.107 243.823,159.774 243.5,163.5 Z"/></g>
<g><path style="opacity:1" fill="#69dede" d="M 251.5,184.5 C 251.711,193.2 251.377,201.867 250.5,210.5C 248.139,210.326 245.806,209.993 243.5,209.5C 243.5,202.833 243.5,196.167 243.5,189.5C 244.461,191.265 244.795,193.265 244.5,195.5C 246.5,195.833 248.5,196.167 250.5,196.5C 250.183,192.298 250.517,188.298 251.5,184.5 Z"/></g>
<g><path style="opacity:1" fill="#9fe9ee" d="M 251.5,158.5 C 251.5,167.167 251.5,175.833 251.5,184.5C 250.517,188.298 250.183,192.298 250.5,196.5C 248.5,196.167 246.5,195.833 244.5,195.5C 244.795,193.265 244.461,191.265 243.5,189.5C 243.5,180.833 243.5,172.167 243.5,163.5C 244.165,165.698 244.832,168.031 245.5,170.5C 247.071,171.309 248.738,171.643 250.5,171.5C 250.182,166.968 250.515,162.634 251.5,158.5 Z"/></g>
<g><path style="opacity:1" fill="#5bd7d5" d="M 276.5,228.5 C 275.167,228.5 273.833,228.5 272.5,228.5C 272.83,235.2 272.497,241.866 271.5,248.5C 270.833,240.833 270.167,233.167 269.5,225.5C 266.96,223.861 264.793,224.194 263,226.5C 262.829,231.864 262.329,237.198 261.5,242.5C 260.503,235.866 260.17,229.2 260.5,222.5C 258.139,222.326 255.806,221.993 253.5,221.5C 253.828,226.875 253.495,232.208 252.5,237.5C 251.833,234.358 251.166,231.358 250.5,228.5C 255.693,212.755 261.193,197.088 267,181.5C 271.025,196.978 274.191,212.645 276.5,228.5 Z"/></g>
<g><path style="opacity:1" fill="#75e0e0" d="M 282.5,190.5 C 284.969,191.067 287.302,191.067 289.5,190.5C 289.172,201.014 289.506,211.347 290.5,221.5C 289.154,223.537 287.82,225.537 286.5,227.5C 286.034,225.799 286.034,224.299 286.5,223C 285.207,222.51 283.873,222.343 282.5,222.5C 282.5,211.833 282.5,201.167 282.5,190.5 Z"/></g>
<g><path style="opacity:1" fill="#4ccac7" d="M 282.5,190.5 C 282.5,201.167 282.5,211.833 282.5,222.5C 283.873,222.343 285.207,222.51 286.5,223C 286.034,224.299 286.034,225.799 286.5,227.5C 285.277,230.274 283.777,232.941 282,235.5C 279.506,222.869 277.339,210.202 275.5,197.5C 276.183,195.824 277.517,195.157 279.5,195.5C 279.5,188.5 279.5,181.5 279.5,174.5C 280.5,174.5 281.5,174.5 282.5,174.5C 282.5,179.833 282.5,185.167 282.5,190.5 Z"/></g>
<g><path style="opacity:1" fill="#a4a67a" d="M 329.5,217.5 C 331.5,219.167 333.5,220.833 335.5,222.5C 335.5,225.167 335.5,227.833 335.5,230.5C 332.208,228.542 329.208,226.209 326.5,223.5C 327.514,221.426 328.514,219.426 329.5,217.5 Z"/></g>
<g><path style="opacity:0.756" fill="#3b2b1f" d="M 192.5,224.5 C 195.879,224.678 199.045,224.678 202,224.5C 201.88,226.151 201.047,227.485 199.5,228.5C 195.013,227.614 192.346,229.614 191.5,234.5C 190.833,234.167 190.167,233.833 189.5,233.5C 189.107,231.716 188.441,230.05 187.5,228.5C 188.539,226.469 190.205,225.136 192.5,224.5 Z"/></g>
<g><path style="opacity:1" fill="#41cecb" d="M 301.5,192.5 C 301.5,198.167 301.5,203.833 301.5,209.5C 303.591,209.318 305.591,209.652 307.5,210.5C 308.496,204.202 308.83,197.868 308.5,191.5C 309.5,191.5 310.5,191.5 311.5,191.5C 311.334,199.174 311.5,206.841 312,214.5C 312.249,213.376 312.749,212.376 313.5,211.5C 315.071,212.309 316.738,212.643 318.5,212.5C 318.172,207.125 318.505,201.792 319.5,196.5C 320.499,206.812 320.832,217.145 320.5,227.5C 317.033,240.069 312.866,252.402 308,264.5C 305.099,252.824 302.266,241.157 299.5,229.5C 299.5,217.5 299.5,205.5 299.5,193.5C 299.187,190.753 299.52,188.086 300.5,185.5C 301.474,187.743 301.808,190.076 301.5,192.5 Z"/></g>
<g><path style="opacity:0.467" fill="#1bc2bc" d="M 226.5,206.5 C 227.376,206.369 228.043,206.702 228.5,207.5C 231.814,219.424 234.814,231.424 237.5,243.5C 234.339,244.913 231.339,246.58 228.5,248.5C 227.508,248.672 226.842,248.338 226.5,247.5C 226.5,233.833 226.5,220.167 226.5,206.5 Z"/></g>
<g><path style="opacity:0.647" fill="#f8c7ac" d="M 199.5,228.5 C 198.659,230.379 198.325,232.379 198.5,234.5C 196.811,235.304 195.145,236.304 193.5,237.5C 192.081,236.995 191.415,235.995 191.5,234.5C 192.346,229.614 195.013,227.614 199.5,228.5 Z"/></g>
<g><path style="opacity:0.753" fill="#feb29b" d="M 110.5,233.5 C 118.563,236.368 126.563,239.535 134.5,243C 136.544,243.498 137.878,244.665 138.5,246.5C 127.449,253.53 116.116,260.197 104.5,266.5C 100.068,264.111 95.7348,261.445 91.5,258.5C 91.3342,253.821 91.5008,249.155 92,244.5C 97.9466,240.444 104.113,236.778 110.5,233.5 Z"/></g>
<g><path style="opacity:1" fill="#54d5d3" d="M 326.5,223.5 C 329.208,226.209 332.208,228.542 335.5,230.5C 335.5,230.833 335.5,231.167 335.5,231.5C 335.5,232.167 335.5,232.833 335.5,233.5C 332.9,232.081 330.4,230.415 328,228.5C 327.667,234.833 327.333,241.167 327,247.5C 325.215,246.76 323.382,246.093 321.5,245.5C 320.504,251.798 320.17,258.132 320.5,264.5C 320.824,268.555 320.491,272.555 319.5,276.5C 318.502,267.19 318.168,257.857 318.5,248.5C 320.879,240.075 323.546,231.741 326.5,223.5 Z"/></g>
<g><path style="opacity:0.905" fill="#fcbea5" d="M 203.5,252.5 C 203.081,248.227 203.748,244.227 205.5,240.5C 206.151,241.091 206.818,241.757 207.5,242.5C 210.389,239.944 213.722,238.277 217.5,237.5C 217.554,238.53 217.888,239.697 218.5,241C 215.593,244.151 212.926,247.484 210.5,251C 209.551,251.617 208.718,251.451 208,250.5C 206.951,252.107 205.451,252.773 203.5,252.5 Z"/></g>
<g><path style="opacity:0.495" fill="#17ccc8" d="M 378.5,218.5 C 388.833,218.5 399.167,218.5 409.5,218.5C 409.428,224.545 409.928,230.545 411,236.5C 413.041,235.577 415.208,235.244 417.5,235.5C 417.833,252.846 417.5,270.179 416.5,287.5C 415.281,288.263 414.281,289.263 413.5,290.5C 411.437,290.608 409.27,290.275 407,289.5C 406.055,289.095 405.388,288.428 405,287.5C 404.282,288.451 403.449,288.617 402.5,288C 400.37,286.168 398.203,284.334 396,282.5C 394.434,283.061 393.101,282.394 392,280.5C 391.667,280.833 391.333,281.167 391,281.5C 390,279.833 388.667,278.5 387,277.5C 386.667,277.833 386.333,278.167 386,278.5C 383.28,275.777 380.28,273.443 377,271.5C 376,271.5 375,271.5 374,271.5C 373.085,270.672 372.419,269.672 372,268.5C 370.434,269.061 369.101,268.394 368,266.5C 367.667,266.833 367.333,267.167 367,267.5C 364.489,264.273 361.489,262.607 358,262.5C 356.002,260.566 353.835,258.9 351.5,257.5C 351.167,256.167 350.833,256.167 350.5,257.5C 346.558,255.736 342.725,253.069 339,249.5C 338.617,250.056 338.117,250.389 337.5,250.5C 335.51,247.36 332.676,245.027 329,243.5C 328.169,250.146 327.669,256.813 327.5,263.5C 325.738,263.643 324.071,263.309 322.5,262.5C 321.818,263.243 321.151,263.909 320.5,264.5C 320.17,258.132 320.504,251.798 321.5,245.5C 323.382,246.093 325.215,246.76 327,247.5C 327.333,241.167 327.667,234.833 328,228.5C 330.4,230.415 332.9,232.081 335.5,233.5C 338.102,235.81 341.102,237.643 344.5,239C 362.171,242.665 373.504,235.832 378.5,218.5 Z"/></g>
<g><path style="opacity:1" fill="#69dddc" d="M 189.5,233.5 C 190.167,233.833 190.833,234.167 191.5,234.5C 191.415,235.995 192.081,236.995 193.5,237.5C 195.145,236.304 196.811,235.304 198.5,234.5C 199.833,235.833 201.167,237.167 202.5,238.5C 201.5,238.5 200.5,238.5 199.5,238.5C 199.5,242.5 199.5,246.5 199.5,250.5C 195.167,250.5 190.833,250.5 186.5,250.5C 186.769,246.069 186.436,241.735 185.5,237.5C 186.5,235.833 187.833,234.5 189.5,233.5 Z"/></g>
<g><path style="opacity:0.991" fill="#f5f6f7" d="M 226.5,247.5 C 226.842,248.338 227.508,248.672 228.5,248.5C 228.028,251.358 229.028,253.358 231.5,254.5C 225.723,256.888 220.057,259.554 214.5,262.5C 212.192,262.914 209.858,263.247 207.5,263.5C 205.667,263.415 204.334,262.748 203.5,261.5C 203.5,261.167 203.5,260.833 203.5,260.5C 205.679,260.16 207.512,259.16 209,257.5C 209.333,258.167 209.667,258.833 210,259.5C 210.465,258.069 211.299,256.903 212.5,256C 217.569,252.944 222.235,250.111 226.5,247.5 Z"/></g>
<g><path style="opacity:1" fill="#19c1bc" d="M 276.5,228.5 C 277.194,231.421 278.027,234.421 279,237.5C 280.733,239.602 282.733,239.935 285,238.5C 287.582,233.667 290.415,229 293.5,224.5C 296.135,232.345 298.135,240.345 299.5,248.5C 299.5,253.833 299.5,259.167 299.5,264.5C 294.418,262.201 289.084,260.535 283.5,259.5C 282.584,259.543 281.917,259.876 281.5,260.5C 269.993,253.912 258.326,247.579 246.5,241.5C 247.37,237.018 248.703,232.685 250.5,228.5C 251.166,231.358 251.833,234.358 252.5,237.5C 253.495,232.208 253.828,226.875 253.5,221.5C 255.806,221.993 258.139,222.326 260.5,222.5C 260.17,229.2 260.503,235.866 261.5,242.5C 262.329,237.198 262.829,231.864 263,226.5C 264.793,224.194 266.96,223.861 269.5,225.5C 270.167,233.167 270.833,240.833 271.5,248.5C 272.497,241.866 272.83,235.2 272.5,228.5C 273.833,228.5 275.167,228.5 276.5,228.5 Z"/></g>
<g><path style="opacity:1" fill="#27c7c1" d="M 185.5,237.5 C 186.436,241.735 186.769,246.069 186.5,250.5C 190.833,250.5 195.167,250.5 199.5,250.5C 199.5,246.5 199.5,242.5 199.5,238.5C 200.5,238.5 201.5,238.5 202.5,238.5C 202.369,239.239 202.536,239.906 203,240.5C 203.77,239.402 204.603,239.402 205.5,240.5C 203.748,244.227 203.081,248.227 203.5,252.5C 201.395,255.049 201.395,257.715 203.5,260.5C 203.5,260.833 203.5,261.167 203.5,261.5C 202.533,262.806 201.199,263.473 199.5,263.5C 194.833,263.5 190.167,263.5 185.5,263.5C 185.541,258.912 185.208,254.245 184.5,249.5C 182.872,248.465 181.205,248.465 179.5,249.5C 180.196,244.816 182.196,240.816 185.5,237.5 Z"/></g>
<g><path style="opacity:0.725" fill="#f8d1b7" d="M 185.5,263.5 C 183.833,263.5 182.167,263.5 180.5,263.5C 179.952,261.374 179.285,259.374 178.5,257.5C 178.936,255.254 179.603,253.087 180.5,251C 179.944,250.617 179.611,250.117 179.5,249.5C 181.205,248.465 182.872,248.465 184.5,249.5C 185.208,254.245 185.541,258.912 185.5,263.5 Z"/></g>
<g><path style="opacity:1" fill="#f5f7fb" d="M 234.5,256.5 C 251.833,266.167 269.167,275.833 286.5,285.5C 286.34,287.199 286.506,288.866 287,290.5C 288.507,291.505 289.673,292.838 290.5,294.5C 294.367,293.513 294.367,294.013 290.5,296C 294.626,298.311 298.293,297.811 301.5,294.5C 312.806,301.155 324.139,307.822 335.5,314.5C 336.498,304.856 336.832,295.19 336.5,285.5C 353.277,294.438 369.943,303.604 386.5,313C 391.26,315.391 392.426,318.891 390,323.5C 339.048,354.058 287.881,384.225 236.5,414C 232.186,414.455 228.186,413.455 224.5,411C 184.994,388.746 145.328,366.746 105.5,345C 98.8665,340.695 98.8665,336.528 105.5,332.5C 106.376,332.369 107.043,332.702 107.5,333.5C 109.585,339.407 113.252,343.907 118.5,347C 120.5,347.667 122.5,347.667 124.5,347C 141.731,337.561 158.397,327.394 174.5,316.5C 175.117,316.389 175.617,316.056 176,315.5C 178.249,318.371 181.082,320.371 184.5,321.5C 185.468,323.607 185.802,325.941 185.5,328.5C 184.242,338.144 183.242,347.811 182.5,357.5C 178.228,357.629 175.728,359.629 175,363.5C 176.319,365.487 178.152,366.654 180.5,367C 188.376,368.138 196.043,367.471 203.5,365C 206.129,362.211 205.462,360.211 201.5,359C 198.937,357.921 196.271,357.421 193.5,357.5C 193.5,353.5 193.5,349.5 193.5,345.5C 193.407,339.137 193.74,332.804 194.5,326.5C 194.5,325.5 194.5,324.5 194.5,323.5C 200.327,324.038 205.827,323.038 211,320.5C 211.399,320.728 211.565,321.062 211.5,321.5C 209.077,326.189 207.744,331.189 207.5,336.5C 209.5,336.5 211.5,336.5 213.5,336.5C 211.54,345.055 210.206,353.722 209.5,362.5C 208.662,362.842 208.328,363.508 208.5,364.5C 198.426,366.821 198.093,369.655 207.5,373C 214.367,374.034 221.033,373.367 227.5,371C 229.394,369.921 229.727,368.587 228.5,367C 226.26,366.023 223.927,365.523 221.5,365.5C 221.5,356.167 221.5,346.833 221.5,337.5C 222.422,333.888 223.089,330.221 223.5,326.5C 224.295,319.272 225.295,311.938 226.5,304.5C 226.44,301.659 225.774,298.993 224.5,296.5C 224.904,295.244 225.571,294.077 226.5,293C 225.767,291.234 225.433,289.401 225.5,287.5C 225.5,286.5 225.5,285.5 225.5,284.5C 223.801,284.34 222.134,284.506 220.5,285C 217.449,288.299 214.782,291.799 212.5,295.5C 210.566,296.11 208.899,297.11 207.5,298.5C 206.5,298.5 205.5,298.5 204.5,298.5C 204.719,299.675 204.386,300.675 203.5,301.5C 202.148,300.476 200.815,299.476 199.5,298.5C 198.5,298.167 197.833,297.5 197.5,296.5C 199.587,295.415 200.92,293.749 201.5,291.5C 204.144,288.52 206.811,285.52 209.5,282.5C 211.772,283.441 213.772,284.774 215.5,286.5C 216.086,286.291 216.586,285.957 217,285.5C 218.137,278.88 218.637,272.214 218.5,265.5C 223.85,262.472 229.184,259.472 234.5,256.5 Z"/></g>
<g><path style="opacity:0.004" fill="#00fffe" d="M 350.5,257.5 C 350.833,257.5 351.167,257.5 351.5,257.5C 351.315,258.17 350.981,258.17 350.5,257.5 Z"/></g>
<g><path style="opacity:1" fill="#a4e5ea" d="M 299.5,248.5 C 300.531,250.961 301.198,253.627 301.5,256.5C 301.817,259.572 301.484,262.572 300.5,265.5C 299.893,265.376 299.56,265.043 299.5,264.5C 299.5,259.167 299.5,253.833 299.5,248.5 Z"/></g>
<g><path style="opacity:0.502" fill="#fe8b75" d="M 91.5,258.5 C 95.7348,261.445 100.068,264.111 104.5,266.5C 100.429,269.043 96.0959,270.709 91.5,271.5C 91.5,267.167 91.5,262.833 91.5,258.5 Z"/></g>
<g><path style="opacity:0.004" fill="#fefffe" d="M 122.5,264.5 C 122.833,264.5 123.167,264.5 123.5,264.5C 123.315,265.17 122.981,265.17 122.5,264.5 Z"/></g>
<g><path style="opacity:0.998" fill="#673c1e" d="M 185.5,263.5 C 190.167,263.5 194.833,263.5 199.5,263.5C 199.5,266.167 199.5,268.833 199.5,271.5C 199.198,274.059 199.532,276.393 200.5,278.5C 200.586,282.857 200.92,287.19 201.5,291.5C 200.92,293.749 199.587,295.415 197.5,296.5C 197.747,294.142 197.081,292.142 195.5,290.5C 195.288,283.424 194.455,276.424 193,269.5C 192.506,271.134 192.34,272.801 192.5,274.5C 189.917,273.062 187.583,273.396 185.5,275.5C 185.5,271.5 185.5,267.5 185.5,263.5 Z"/></g>
<g><path style="opacity:0.996" fill="#faf4c8" d="M 203.5,261.5 C 204.334,262.748 205.667,263.415 207.5,263.5C 209.858,263.247 212.192,262.914 214.5,262.5C 210.005,266.251 205.005,269.251 199.5,271.5C 199.5,268.833 199.5,266.167 199.5,263.5C 201.199,263.473 202.533,262.806 203.5,261.5 Z"/></g>
<g><path style="opacity:1" fill="#fad5a8" d="M 231.5,254.5 C 232.71,254.932 233.71,255.599 234.5,256.5C 229.184,259.472 223.85,262.472 218.5,265.5C 212.851,268.806 207.184,272.139 201.5,275.5C 200.614,276.325 200.281,277.325 200.5,278.5C 199.532,276.393 199.198,274.059 199.5,271.5C 205.005,269.251 210.005,266.251 214.5,262.5C 220.057,259.554 225.723,256.888 231.5,254.5 Z"/></g>
<g><path style="opacity:1" fill="#6ddede" d="M 246.5,241.5 C 258.326,247.579 269.993,253.912 281.5,260.5C 293.665,267.803 305.998,274.97 318.5,282C 326.588,283.344 329.921,279.844 328.5,271.5C 331.22,272.86 333.886,274.193 336.5,275.5C 336.5,277.5 336.5,279.5 336.5,281.5C 336.5,282.833 336.5,284.167 336.5,285.5C 336.832,295.19 336.498,304.856 335.5,314.5C 324.139,307.822 312.806,301.155 301.5,294.5C 303.194,285.025 299.194,280.859 289.5,282C 288.29,283.039 287.29,284.206 286.5,285.5C 269.167,275.833 251.833,266.167 234.5,256.5C 233.71,255.599 232.71,254.932 231.5,254.5C 229.028,253.358 228.028,251.358 228.5,248.5C 231.339,246.58 234.339,244.913 237.5,243.5C 241.29,246.47 244.29,245.803 246.5,241.5 Z"/></g>
<g><path style="opacity:0.109" fill="#ffe46b" d="M 178.5,257.5 C 179.285,259.374 179.952,261.374 180.5,263.5C 180.833,264.833 181.167,266.167 181.5,267.5C 177.909,267.894 174.576,268.894 171.5,270.5C 170.717,266.854 170.55,263.188 171,259.5C 173.228,261.113 175.728,261.78 178.5,261.5C 178.5,260.167 178.5,258.833 178.5,257.5 Z"/></g>
<g><path style="opacity:1" fill="#0cb0a9" d="M 337.5,250.5 C 337.801,258.586 337.467,266.586 336.5,274.5C 336.5,274.833 336.5,275.167 336.5,275.5C 333.886,274.193 331.22,272.86 328.5,271.5C 329.921,279.844 326.588,283.344 318.5,282C 305.998,274.97 293.665,267.803 281.5,260.5C 281.917,259.876 282.584,259.543 283.5,259.5C 289.084,260.535 294.418,262.201 299.5,264.5C 299.56,265.043 299.893,265.376 300.5,265.5C 301.484,262.572 301.817,259.572 301.5,256.5C 302.828,260.071 304.162,263.738 305.5,267.5C 307.098,268.485 308.765,268.651 310.5,268C 313.251,261.445 315.918,254.945 318.5,248.5C 318.168,257.857 318.502,267.19 319.5,276.5C 320.491,272.555 320.824,268.555 320.5,264.5C 321.151,263.909 321.818,263.243 322.5,262.5C 324.071,263.309 325.738,263.643 327.5,263.5C 327.669,256.813 328.169,250.146 329,243.5C 332.676,245.027 335.51,247.36 337.5,250.5 Z"/></g>
<g><path style="opacity:1" fill="#1d1510" d="M 192.5,274.5 C 192.567,275.959 192.234,277.292 191.5,278.5C 190.755,281.39 190.088,284.39 189.5,287.5C 188.833,287.5 188.167,287.5 187.5,287.5C 186.5,287.5 185.5,287.5 184.5,287.5C 183.883,287.389 183.383,287.056 183,286.5C 181.813,282.217 182.647,278.55 185.5,275.5C 187.583,273.396 189.917,273.062 192.5,274.5 Z"/></g>
<g><path style="opacity:1" fill="#fdefbf" d="M 218.5,265.5 C 218.637,272.214 218.137,278.88 217,285.5C 216.586,285.957 216.086,286.291 215.5,286.5C 213.772,284.774 211.772,283.441 209.5,282.5C 206.811,285.52 204.144,288.52 201.5,291.5C 200.92,287.19 200.586,282.857 200.5,278.5C 200.281,277.325 200.614,276.325 201.5,275.5C 207.184,272.139 212.851,268.806 218.5,265.5 Z"/></g>
<g><path style="opacity:0.169" fill="#fec96a" d="M 181.5,267.5 C 182.043,267.56 182.376,267.893 182.5,268.5C 181.833,269.167 181.167,269.833 180.5,270.5C 181.833,271.5 183.167,272.5 184.5,273.5C 181.124,276.194 177.457,278.527 173.5,280.5C 172.893,280.376 172.56,280.043 172.5,279.5C 172.492,276.455 172.159,273.455 171.5,270.5C 174.576,268.894 177.909,267.894 181.5,267.5 Z"/></g>
<g><path style="opacity:0.996" fill="#fce2b4" d="M 180.5,263.5 C 182.167,263.5 183.833,263.5 185.5,263.5C 185.5,267.5 185.5,271.5 185.5,275.5C 182.647,278.55 181.813,282.217 183,286.5C 183.383,287.056 183.883,287.389 184.5,287.5C 183.886,291.135 183.552,294.802 183.5,298.5C 177.814,298.856 175.481,301.856 176.5,307.5C 175.738,299.952 174.738,292.285 173.5,284.5C 173.197,282.886 172.53,281.552 171.5,280.5C 171.5,279.833 171.833,279.5 172.5,279.5C 172.56,280.043 172.893,280.376 173.5,280.5C 177.457,278.527 181.124,276.194 184.5,273.5C 183.167,272.5 181.833,271.5 180.5,270.5C 181.167,269.833 181.833,269.167 182.5,268.5C 182.376,267.893 182.043,267.56 181.5,267.5C 181.167,266.167 180.833,264.833 180.5,263.5 Z"/></g>
<g><path style="opacity:0.967" fill="#f6f6f8" d="M 336.5,274.5 C 360.333,286.652 383.333,299.485 405.5,313C 405.167,313.333 404.833,313.667 404.5,314C 406.696,315.222 408.196,317.056 409,319.5C 410.656,326.862 408.489,333.028 402.5,338C 390.963,344.893 378.63,352.06 365.5,359.5C 364.897,356.692 363.897,354.026 362.5,351.5C 347.104,360.526 331.77,369.526 316.5,378.5C 291.156,393.841 265.489,408.674 239.5,423C 236.167,423.667 232.833,423.667 229.5,423C 182.833,397 136.167,371 89.5,345C 87.6859,342.521 86.0192,340.021 84.5,337.5C 84.759,333.641 86.759,330.474 90.5,328C 94.0838,325.959 97.5838,323.792 101,321.5C 99.6332,313.2 102.467,307.2 109.5,303.5C 110.797,305.371 111.797,307.371 112.5,309.5C 112.5,309.833 112.5,310.167 112.5,310.5C 110.897,310.312 109.563,310.812 108.5,312C 111.7,314.099 115.033,315.933 118.5,317.5C 118.5,318.833 118.5,320.167 118.5,321.5C 118.657,322.873 118.49,324.207 118,325.5C 115.263,324.39 112.429,324.223 109.5,325C 107.563,325.122 106.23,325.955 105.5,327.5C 95.7681,332.419 94.4348,338.919 101.5,347C 143.5,370.333 185.5,393.667 227.5,417C 231.5,417.667 235.5,417.667 239.5,417C 288.833,388 338.167,359 387.5,330C 396.754,324.815 397.754,318.482 390.5,311C 372.606,300.888 354.606,291.055 336.5,281.5C 336.5,279.5 336.5,277.5 336.5,275.5C 336.5,275.167 336.5,274.833 336.5,274.5 Z"/></g>
<g><path style="opacity:1" fill="#825c4f" d="M 191.5,278.5 C 191.5,281.5 191.5,284.5 191.5,287.5C 190.833,287.5 190.167,287.5 189.5,287.5C 190.088,284.39 190.755,281.39 191.5,278.5 Z"/></g>
<g><path style="opacity:1" fill="#fd8e79" d="M 301.5,294.5 C 298.293,297.811 294.626,298.311 290.5,296C 294.367,294.013 294.367,293.513 290.5,294.5C 289.673,292.838 288.507,291.505 287,290.5C 286.506,288.866 286.34,287.199 286.5,285.5C 287.29,284.206 288.29,283.039 289.5,282C 299.194,280.859 303.194,285.025 301.5,294.5 Z"/></g>
<g><path style="opacity:1" fill="#fdd9c3" d="M 336.5,281.5 C 354.606,291.055 372.606,300.888 390.5,311C 397.754,318.482 396.754,324.815 387.5,330C 338.167,359 288.833,388 239.5,417C 235.5,417.667 231.5,417.667 227.5,417C 185.5,393.667 143.5,370.333 101.5,347C 94.4348,338.919 95.7681,332.419 105.5,327.5C 106.683,328.504 108.016,329.338 109.5,330C 107.934,330.608 106.6,331.442 105.5,332.5C 98.8665,336.528 98.8665,340.695 105.5,345C 145.328,366.746 184.994,388.746 224.5,411C 228.186,413.455 232.186,414.455 236.5,414C 287.881,384.225 339.048,354.058 390,323.5C 392.426,318.891 391.26,315.391 386.5,313C 369.943,303.604 353.277,294.438 336.5,285.5C 336.5,284.167 336.5,282.833 336.5,281.5 Z"/></g>
<g><path style="opacity:1" fill="#edc4a2" d="M 195.5,290.5 C 194.764,288.771 193.43,287.771 191.5,287.5C 191.5,284.5 191.5,281.5 191.5,278.5C 192.234,277.292 192.567,275.959 192.5,274.5C 192.34,272.801 192.506,271.134 193,269.5C 194.455,276.424 195.288,283.424 195.5,290.5 Z"/></g>
<g><path style="opacity:0.992" fill="#def3f9" d="M 145.5,282.5 C 146.478,282.811 147.145,283.478 147.5,284.5C 146.311,285.429 144.978,285.762 143.5,285.5C 144.167,284.5 144.833,283.5 145.5,282.5 Z"/></g>
<g><path style="opacity:1" fill="#fe8d78" d="M 225.5,287.5 C 223.933,288.681 223.099,290.347 223,292.5C 222.444,290.405 221.944,290.238 221.5,292C 221.899,293.981 222.899,295.481 224.5,296.5C 225.774,298.993 226.44,301.659 226.5,304.5C 224.571,306.803 222.238,307.137 219.5,305.5C 217.578,305.801 215.912,306.467 214.5,307.5C 211.429,308.075 209.429,306.909 208.5,304C 209.711,301.08 211.044,298.247 212.5,295.5C 214.782,291.799 217.449,288.299 220.5,285C 222.134,284.506 223.801,284.34 225.5,284.5C 225.5,285.5 225.5,286.5 225.5,287.5 Z"/></g>
<g><path style="opacity:0.289" fill="#e5f5f7" d="M 137.5,287.5 C 137.402,290.104 136.235,292.104 134,293.5C 132.699,293.361 131.866,292.695 131.5,291.5C 133.246,289.748 135.246,288.415 137.5,287.5 Z"/></g>
<g><path style="opacity:1" fill="#11bdb6" d="M 156.5,279.5 C 155.887,282.485 156.22,285.485 157.5,288.5C 157.677,290.981 156.677,292.814 154.5,294C 142.671,300.414 131.004,307.08 119.5,314C 116.386,314.443 114.052,313.276 112.5,310.5C 112.5,310.167 112.5,309.833 112.5,309.5C 116.107,307.939 119.607,305.939 123,303.5C 125.072,300.793 124.572,298.627 121.5,297C 122.056,296.617 122.389,296.117 122.5,295.5C 124.451,290.64 127.451,289.307 131.5,291.5C 131.866,292.695 132.699,293.361 134,293.5C 136.235,292.104 137.402,290.104 137.5,287.5C 138.762,284.533 140.762,283.866 143.5,285.5C 144.978,285.762 146.311,285.429 147.5,284.5C 147.145,283.478 146.478,282.811 145.5,282.5C 145.403,279.686 146.569,277.686 149,276.5C 150.235,277.615 151.402,277.615 152.5,276.5C 153.569,277.91 154.903,278.91 156.5,279.5 Z"/></g>
<g><path style="opacity:1" fill="#f9ede5" d="M 156.5,279.5 C 160.052,281.172 162.719,283.172 164.5,285.5C 166.557,284.144 168.89,282.477 171.5,280.5C 172.53,281.552 173.197,282.886 173.5,284.5C 174.738,292.285 175.738,299.952 176.5,307.5C 177.383,311.386 179.717,314.053 183.5,315.5C 184.466,317.396 184.799,319.396 184.5,321.5C 181.082,320.371 178.249,318.371 176,315.5C 175.617,316.056 175.117,316.389 174.5,316.5C 174.702,314.011 174.202,311.677 173,309.5C 170.625,308.285 168.791,306.619 167.5,304.5C 167.5,304.167 167.5,303.833 167.5,303.5C 168.782,302.292 168.782,300.958 167.5,299.5C 151.294,307.103 134.961,314.436 118.5,321.5C 118.5,320.167 118.5,318.833 118.5,317.5C 133.473,309.012 148.473,300.512 163.5,292C 161.609,290.558 159.609,289.391 157.5,288.5C 156.22,285.485 155.887,282.485 156.5,279.5 Z"/></g>
<g><path style="opacity:1" fill="#f6efec" d="M 187.5,287.5 C 188.167,287.5 188.833,287.5 189.5,287.5C 190.167,287.5 190.833,287.5 191.5,287.5C 193.43,287.771 194.764,288.771 195.5,290.5C 197.081,292.142 197.747,294.142 197.5,296.5C 196.566,297.568 196.232,298.901 196.5,300.5C 197.412,301.738 197.579,303.072 197,304.5C 195.369,301.962 194.036,299.295 193,296.5C 191.519,297.471 190.685,298.804 190.5,300.5C 189.732,301.263 189.232,302.263 189,303.5C 186.929,302.897 185.762,301.564 185.5,299.5C 184.99,295.187 185.657,291.187 187.5,287.5 Z"/></g>
<g><path style="opacity:1" fill="#fec8b3" d="M 225.5,287.5 C 225.433,289.401 225.767,291.234 226.5,293C 225.571,294.077 224.904,295.244 224.5,296.5C 222.899,295.481 221.899,293.981 221.5,292C 221.944,290.238 222.444,290.405 223,292.5C 223.099,290.347 223.933,288.681 225.5,287.5 Z"/></g>
<g><path style="opacity:1" fill="#b27b5e" d="M 184.5,287.5 C 185.5,287.5 186.5,287.5 187.5,287.5C 185.657,291.187 184.99,295.187 185.5,299.5C 184.508,299.672 183.842,299.338 183.5,298.5C 183.552,294.802 183.886,291.135 184.5,287.5 Z"/></g>
<g><path style="opacity:1" fill="#7f3b23" d="M 197.5,296.5 C 197.833,297.5 198.5,298.167 199.5,298.5C 199.179,300.048 198.179,300.715 196.5,300.5C 196.232,298.901 196.566,297.568 197.5,296.5 Z"/></g>
<g><path style="opacity:1" fill="#52d9d6" d="M 122.5,295.5 C 122.389,296.117 122.056,296.617 121.5,297C 124.572,298.627 125.072,300.793 123,303.5C 119.607,305.939 116.107,307.939 112.5,309.5C 111.797,307.371 110.797,305.371 109.5,303.5C 109.244,301.208 109.577,299.041 110.5,297C 109.833,296.333 109.167,295.667 108.5,295C 109.852,292.908 111.686,291.408 114,290.5C 114.945,290.905 115.612,291.572 116,292.5C 116.333,292.167 116.667,291.833 117,291.5C 118.451,293.464 120.284,294.797 122.5,295.5 Z"/></g>
<g><path style="opacity:1" fill="#f8ac91" d="M 196.5,300.5 C 198.179,300.715 199.179,300.048 199.5,298.5C 200.815,299.476 202.148,300.476 203.5,301.5C 204.386,300.675 204.719,299.675 204.5,298.5C 205.5,298.5 206.5,298.5 207.5,298.5C 208.573,299.251 208.74,300.251 208,301.5C 206.38,303.241 204.88,305.075 203.5,307C 204.328,307.915 205.328,308.581 206.5,309C 202.68,309.235 199.013,310.068 195.5,311.5C 191.467,309.092 189.801,305.425 190.5,300.5C 190.685,298.804 191.519,297.471 193,296.5C 194.036,299.295 195.369,301.962 197,304.5C 197.579,303.072 197.412,301.738 196.5,300.5 Z"/></g>
<g><path style="opacity:1" fill="#fae5d6" d="M 167.5,303.5 C 151.929,309.427 136.262,316.427 120.5,324.5C 118.914,326.173 118.247,328.173 118.5,330.5C 109.592,330.326 109.592,331.659 118.5,334.5C 133.957,326.27 149.291,317.77 164.5,309C 165.781,307.591 166.781,306.091 167.5,304.5C 168.791,306.619 170.625,308.285 173,309.5C 174.202,311.677 174.702,314.011 174.5,316.5C 158.397,327.394 141.731,337.561 124.5,347C 122.5,347.667 120.5,347.667 118.5,347C 113.252,343.907 109.585,339.407 107.5,333.5C 107.043,332.702 106.376,332.369 105.5,332.5C 106.6,331.442 107.934,330.608 109.5,330C 108.016,329.338 106.683,328.504 105.5,327.5C 106.23,325.955 107.563,325.122 109.5,325C 112.429,324.223 115.263,324.39 118,325.5C 118.49,324.207 118.657,322.873 118.5,321.5C 134.961,314.436 151.294,307.103 167.5,299.5C 168.782,300.958 168.782,302.292 167.5,303.5 Z"/></g>
<g><path style="opacity:1" fill="#fdd4b7" d="M 212.5,295.5 C 211.044,298.247 209.711,301.08 208.5,304C 209.429,306.909 211.429,308.075 214.5,307.5C 213.308,312.12 210.308,314.953 205.5,316C 201.914,317.108 198.247,317.608 194.5,317.5C 194.5,319.5 194.5,321.5 194.5,323.5C 194.5,324.5 194.5,325.5 194.5,326.5C 191.785,328.123 188.785,328.79 185.5,328.5C 185.802,325.941 185.468,323.607 184.5,321.5C 184.799,319.396 184.466,317.396 183.5,315.5C 179.717,314.053 177.383,311.386 176.5,307.5C 175.481,301.856 177.814,298.856 183.5,298.5C 183.842,299.338 184.508,299.672 185.5,299.5C 185.762,301.564 186.929,302.897 189,303.5C 189.232,302.263 189.732,301.263 190.5,300.5C 189.801,305.425 191.467,309.092 195.5,311.5C 199.013,310.068 202.68,309.235 206.5,309C 205.328,308.581 204.328,307.915 203.5,307C 204.88,305.075 206.38,303.241 208,301.5C 208.74,300.251 208.573,299.251 207.5,298.5C 208.899,297.11 210.566,296.11 212.5,295.5 Z"/></g>
<g><path style="opacity:1" fill="#f8de8e" d="M 157.5,288.5 C 159.609,289.391 161.609,290.558 163.5,292C 148.473,300.512 133.473,309.012 118.5,317.5C 115.033,315.933 111.7,314.099 108.5,312C 109.563,310.812 110.897,310.312 112.5,310.5C 114.052,313.276 116.386,314.443 119.5,314C 131.004,307.08 142.671,300.414 154.5,294C 156.677,292.814 157.677,290.981 157.5,288.5 Z"/></g>
<g><path style="opacity:1" fill="#fecbb1" d="M 226.5,304.5 C 225.295,311.938 224.295,319.272 223.5,326.5C 223.66,324.801 223.494,323.134 223,321.5C 220.083,320.238 217.249,318.905 214.5,317.5C 217.1,314.053 217.1,310.72 214.5,307.5C 215.912,306.467 217.578,305.801 219.5,305.5C 222.238,307.137 224.571,306.803 226.5,304.5 Z"/></g>
<g><path style="opacity:1" fill="#fddac4" d="M 167.5,303.5 C 167.5,303.833 167.5,304.167 167.5,304.5C 166.781,306.091 165.781,307.591 164.5,309C 149.291,317.77 133.957,326.27 118.5,334.5C 109.592,331.659 109.592,330.326 118.5,330.5C 118.247,328.173 118.914,326.173 120.5,324.5C 136.262,316.427 151.929,309.427 167.5,303.5 Z"/></g>
<g><path style="opacity:1" fill="#fae6d9" d="M 214.5,307.5 C 217.1,310.72 217.1,314.053 214.5,317.5C 213.5,318.833 212.5,320.167 211.5,321.5C 211.565,321.062 211.399,320.728 211,320.5C 205.827,323.038 200.327,324.038 194.5,323.5C 194.5,321.5 194.5,319.5 194.5,317.5C 198.247,317.608 201.914,317.108 205.5,316C 210.308,314.953 213.308,312.12 214.5,307.5 Z"/></g>
<g><path style="opacity:1" fill="#fdd3bb" d="M 298.5,334.5 C 297.612,331.946 297.279,329.279 297.5,326.5C 298.787,322.732 298.787,319.065 297.5,315.5C 297.334,311.154 297.501,306.821 298,302.5C 301.161,308.517 302.661,315.017 302.5,322C 302.024,326.16 301.691,330.327 301.5,334.5C 300.5,334.5 299.5,334.5 298.5,334.5 Z"/></g>
<g><path style="opacity:1" fill="#f8d0b7" d="M 280.5,312.5 C 281.5,312.5 282.5,312.5 283.5,312.5C 283.766,316.571 283.433,320.571 282.5,324.5C 283.243,325.182 283.909,325.849 284.5,326.5C 284.813,330.042 284.479,333.375 283.5,336.5C 282.652,334.907 281.319,333.74 279.5,333C 279.33,326.193 279.663,319.36 280.5,312.5 Z"/></g>
<g><path style="opacity:1" fill="#f9e7dc" d="M 297.5,315.5 C 298.787,319.065 298.787,322.732 297.5,326.5C 293.167,326.5 288.833,326.5 284.5,326.5C 283.909,325.849 283.243,325.182 282.5,324.5C 283.433,320.571 283.766,316.571 283.5,312.5C 282.5,312.5 281.5,312.5 280.5,312.5C 280.799,308.895 281.965,305.561 284,302.5C 284.499,308.157 284.666,313.824 284.5,319.5C 288.833,319.5 293.167,319.5 297.5,319.5C 297.5,318.167 297.5,316.833 297.5,315.5 Z"/></g>
<g><path style="opacity:1" fill="#feae96" d="M 214.5,317.5 C 217.249,318.905 220.083,320.238 223,321.5C 223.494,323.134 223.66,324.801 223.5,326.5C 223.089,330.221 222.422,333.888 221.5,337.5C 220.5,337.5 219.5,337.5 218.5,337.5C 217.081,336.549 215.415,336.216 213.5,336.5C 211.5,336.5 209.5,336.5 207.5,336.5C 207.744,331.189 209.077,326.189 211.5,321.5C 212.5,320.167 213.5,318.833 214.5,317.5 Z"/></g>
<g><path style="opacity:1" fill="#3d2c21" d="M 284.5,326.5 C 288.833,326.5 293.167,326.5 297.5,326.5C 297.279,329.279 297.612,331.946 298.5,334.5C 298.434,341.518 298.768,348.518 299.5,355.5C 299.357,358.113 298.69,360.447 297.5,362.5C 296.5,362.5 295.5,362.5 294.5,362.5C 293.993,352.097 292.826,341.764 291,331.5C 289.438,341.784 288.272,352.117 287.5,362.5C 286.5,362.5 285.5,362.5 284.5,362.5C 283.325,360.616 282.658,358.449 282.5,356C 283.237,349.519 283.57,343.019 283.5,336.5C 284.479,333.375 284.813,330.042 284.5,326.5 Z"/></g>
<g><path style="opacity:1" fill="#fead95" d="M 194.5,326.5 C 193.74,332.804 193.407,339.137 193.5,345.5C 192.511,350.975 192.178,356.642 192.5,362.5C 192.5,363.167 192.167,363.5 191.5,363.5C 191.802,360.941 191.468,358.607 190.5,356.5C 190.663,349.453 190.163,342.453 189,335.5C 187.616,341.807 186.449,348.14 185.5,354.5C 184.596,355.209 184.263,356.209 184.5,357.5C 184.158,358.338 183.492,358.672 182.5,358.5C 182.5,358.167 182.5,357.833 182.5,357.5C 183.242,347.811 184.242,338.144 185.5,328.5C 188.785,328.79 191.785,328.123 194.5,326.5 Z"/></g>
<g><path style="opacity:0.92" fill="#fddbc3" d="M 84.5,337.5 C 86.0192,340.021 87.6859,342.521 89.5,345C 136.167,371 182.833,397 229.5,423C 232.833,423.667 236.167,423.667 239.5,423C 265.489,408.674 291.156,393.841 316.5,378.5C 319.086,379.487 320.419,381.487 320.5,384.5C 320.459,386.745 319.625,387.412 318,386.5C 317.424,389.124 316.09,389.791 314,388.5C 313.535,389.931 312.701,391.097 311.5,392C 300.581,398.376 289.747,404.876 279,411.5C 268.491,416.867 257.991,423.034 247.5,430C 239.13,434.657 230.796,434.657 222.5,430C 180.045,405.915 138.045,382.582 96.5,360C 92.3808,357.71 88.7142,354.876 85.5,351.5C 85.24,350.095 84.9066,348.762 84.5,347.5C 83.2185,344.064 83.2185,340.731 84.5,337.5 Z"/></g>
<g><path style="opacity:1" fill="#f7efef" d="M 190.5,356.5 C 188.219,356.923 186.552,356.256 185.5,354.5C 186.449,348.14 187.616,341.807 189,335.5C 190.163,342.453 190.663,349.453 190.5,356.5 Z"/></g>
<g><path style="opacity:1" fill="#f6f4f4" d="M 218.5,337.5 C 218.626,346.509 218.959,355.509 219.5,364.5C 216.833,364.5 214.167,364.5 211.5,364.5C 211.5,364.167 211.5,363.833 211.5,363.5C 212.345,354.2 214.678,345.533 218.5,337.5 Z"/></g>
<g><path style="opacity:0.004" fill="#feffb3" d="M 84.5,347.5 C 83.8333,348.167 83.8333,348.167 84.5,347.5 Z"/></g>
<g><path style="opacity:1" fill="#ebe9ea" d="M 294.5,362.5 C 294.5,363.833 294.5,365.167 294.5,366.5C 292.167,366.5 289.833,366.5 287.5,366.5C 287.5,365.167 287.5,363.833 287.5,362.5C 288.272,352.117 289.438,341.784 291,331.5C 292.826,341.764 293.993,352.097 294.5,362.5 Z"/></g>
<g><path style="opacity:1" fill="#fed6bd" d="M 213.5,336.5 C 215.415,336.216 217.081,336.549 218.5,337.5C 214.678,345.533 212.345,354.2 211.5,363.5C 210.833,363.167 210.167,362.833 209.5,362.5C 210.206,353.722 211.54,345.055 213.5,336.5 Z"/></g>
<g><path style="opacity:1" fill="#f8d3be" d="M 193.5,345.5 C 193.5,349.5 193.5,353.5 193.5,357.5C 196.271,357.421 198.937,357.921 201.5,359C 205.462,360.211 206.129,362.211 203.5,365C 196.043,367.471 188.376,368.138 180.5,367C 178.152,366.654 176.319,365.487 175,363.5C 175.728,359.629 178.228,357.629 182.5,357.5C 182.5,357.833 182.5,358.167 182.5,358.5C 182.351,359.552 182.517,360.552 183,361.5C 184.833,360.333 186.667,359.167 188.5,358C 187.207,357.51 185.873,357.343 184.5,357.5C 184.263,356.209 184.596,355.209 185.5,354.5C 186.552,356.256 188.219,356.923 190.5,356.5C 191.468,358.607 191.802,360.941 191.5,363.5C 191.351,364.552 191.517,365.552 192,366.5C 194.087,365.206 196.254,364.039 198.5,363C 196.527,362.505 194.527,362.338 192.5,362.5C 192.178,356.642 192.511,350.975 193.5,345.5 Z"/></g>
<g><path style="opacity:1" fill="#49332a" d="M 184.5,357.5 C 185.873,357.343 187.207,357.51 188.5,358C 186.667,359.167 184.833,360.333 183,361.5C 182.517,360.552 182.351,359.552 182.5,358.5C 183.492,358.672 184.158,358.338 184.5,357.5 Z"/></g>
<g><path style="opacity:1" fill="#281b16" d="M 192.5,362.5 C 194.527,362.338 196.527,362.505 198.5,363C 196.254,364.039 194.087,365.206 192,366.5C 191.517,365.552 191.351,364.552 191.5,363.5C 192.167,363.5 192.5,363.167 192.5,362.5 Z"/></g>
<g><path style="opacity:1" fill="#f9dec8" d="M 218.5,337.5 C 219.5,337.5 220.5,337.5 221.5,337.5C 221.5,346.833 221.5,356.167 221.5,365.5C 223.927,365.523 226.26,366.023 228.5,367C 229.727,368.587 229.394,369.921 227.5,371C 221.033,373.367 214.367,374.034 207.5,373C 198.093,369.655 198.426,366.821 208.5,364.5C 209.046,367.752 210.712,368.752 213.5,367.5C 212.807,366.482 212.141,365.482 211.5,364.5C 214.167,364.5 216.833,364.5 219.5,364.5C 218.959,355.509 218.626,346.509 218.5,337.5 Z"/></g>
<g><path style="opacity:1" fill="#503c30" d="M 209.5,362.5 C 210.167,362.833 210.833,363.167 211.5,363.5C 211.5,363.833 211.5,364.167 211.5,364.5C 212.141,365.482 212.807,366.482 213.5,367.5C 210.712,368.752 209.046,367.752 208.5,364.5C 208.328,363.508 208.662,362.842 209.5,362.5 Z"/></g>
<g><path style="opacity:1" fill="#796151" d="M 221.5,365.5 C 224.307,368.044 223.64,369.044 219.5,368.5C 219.285,366.821 219.952,365.821 221.5,365.5 Z"/></g>
<g><path style="opacity:1" fill="#f5d5bf" d="M 284.5,362.5 C 285.5,362.5 286.5,362.5 287.5,362.5C 287.5,363.833 287.5,365.167 287.5,366.5C 289.833,366.5 292.167,366.5 294.5,366.5C 294.5,365.167 294.5,363.833 294.5,362.5C 295.5,362.5 296.5,362.5 297.5,362.5C 297.5,363.833 297.5,365.167 297.5,366.5C 300.93,366.519 303.597,367.853 305.5,370.5C 304.275,372.827 302.275,373.994 299.5,374C 293.5,374.667 287.5,374.667 281.5,374C 279.445,373.313 277.779,372.146 276.5,370.5C 278.536,368.016 281.202,367.016 284.5,367.5C 284.5,365.833 284.5,364.167 284.5,362.5 Z"/></g>
<g><path style="opacity:1" fill="#291a14" d="M 294.5,367.5 C 295.5,367.5 296.5,367.5 297.5,367.5C 297.5,368.5 297.5,369.5 297.5,370.5C 296.5,370.5 295.5,370.5 294.5,370.5C 294.5,369.5 294.5,368.5 294.5,367.5 Z"/></g>
<g><path style="opacity:1" fill="#332119" d="M 284.5,367.5 C 285.5,367.5 286.5,367.5 287.5,367.5C 287.5,368.5 287.5,369.5 287.5,370.5C 286.5,370.5 285.5,370.5 284.5,370.5C 284.5,369.5 284.5,368.5 284.5,367.5 Z"/></g>
<g><path style="opacity:0.923" fill="#faeae0" d="M 365.5,359.5 C 363.961,360.401 362.128,361.734 360,363.5C 359.667,363.167 359.333,362.833 359,362.5C 357.903,364.053 356.57,365.386 355,366.5C 354,366.5 353,366.5 352,366.5C 350.997,369.156 349.33,370.156 347,369.5C 343.472,372.687 339.639,375.521 335.5,378C 334.551,378.617 333.718,378.451 333,377.5C 330.457,380.7 327.291,383.2 323.5,385C 322.423,385.47 321.423,385.303 320.5,384.5C 320.419,381.487 319.086,379.487 316.5,378.5C 331.77,369.526 347.104,360.526 362.5,351.5C 363.897,354.026 364.897,356.692 365.5,359.5 Z"/></g>
</svg>
